<?xml version="1.0" encoding="utf-8"?>
<svg viewBox="0 0 379.07 44.367" xmlns="http://www.w3.org/2000/svg">
  <g xmlns="http://www.w3.org/2000/svg" class="blocklyBlockCanvas" transform="matrix(1, 0, 0, 1, -50.47681045532227, -73.02363586425781)">
    <g class="blocklyCursor">
      <g width="100" height="5">
        <rect width="100" height="5" style="display: none"/>
        <rect class="blocklyVerticalMarker" rx="10" ry="10" style="display: none; fill: rgba(255, 255, 255, 0.5); pointer-events: none; stroke-width: 3px;"/>
        <path transform="" style="display: none"/>
        <path transform="" style="display: none" fill="none" stroke-width="4"/>
      </g>
    </g>
    <g data-id="QWW|$jB8+*EL;}|#uA" class="blocklyDraggable" transform="translate(55, 80)" style="cursor: grabbing;">
      <g transform="matrix(1, 0, 0, 1, 13.120775, 3.439612)">
        <text class="blocklyText" x="0" y="14" style="white-space: pre; cursor: grabbing; fill: rgb(255, 255, 255); font-family: sans-serif; font-size: 14.6667px; font-weight: 400; line-height: normal; perspective-origin: 24.0312px 8.5px;">Setup()</text>
      </g>
    </g>
    <g data-id=":upT=oyS6M6ty8Uk6L(%" class="blocklyDraggable" style="display: block; cursor: grabbing;" transform="matrix(1, 0, 0, 1, 56.64003, 80.275078)">
      <path class="blocklyPathDark" transform="translate(1,1)" fill="#498449" d=" m 0,0 m 0,8 a 8 8 0 0,1 8,-8 h 7 l 6,4 3,0 6,-4 h 327.5999984741211 v 5 H 357.5999984741211 V 5 H 357.5999984741211 V 22 H 357.5999984741211 V 22 V 26 h -328.0999984741211 l -6,4 -3,0 -6,-4 h -6.5 a 8 8 0 0,1 -8,-8 z " style="cursor: grabbing; display: flex;"/>
      <path class="blocklyPath" stroke="none" fill="#5ba55b" d=" m 0,0 m 0,8 a 8 8 0 0,1 8,-8 h 7 l 6,4 3,0 6,-4 h 327.5999984741211 v 5 H 357.5999984741211 V 5 H 357.5999984741211 V 22 H 357.5999984741211 V 22 V 26 h -328.0999984741211 l -6,4 -3,0 -6,-4 h -6.5 a 8 8 0 0,1 -8,-8 z " style="cursor: grabbing;"/>
      <path class="blocklyPathLight" stroke="#8cc08c" d=" m 0,0 m 0.5,8 a 7.5 7.5 0 0,1 8,-7.5 H 14.5 h 0.5 l 6,4 3,0 6,-4 H 357.0999984741211 H 357.0999984741211 M 0,26 m 2.6966991411008934,-2.6966991411008934 a 7.5 7.5 0 0,1 -2.1966991411008934,-5.303300858899107 V 8 " style="cursor: grabbing; display: flex; fill: none; stroke-linecap: round;"/>
      <g transform="translate(10,5)">
        <text class="blocklyText" x="0" y="14" style="white-space: pre; cursor: grabbing; fill: rgb(255, 255, 255); font-family: sans-serif; font-size: 14.6667px; font-weight: 400; line-height: normal; perspective-origin: 88px 8.5px;">Erstelle Datei auf SD-Karte</text>
      </g>
      <g transform="translate(196,5)">
        <text class="blocklyText" x="0" y="14" style="white-space: pre; cursor: grabbing; fill: rgb(255, 255, 255); font-family: sans-serif; font-size: 14.6667px; font-weight: 400; line-height: normal; perspective-origin: 19.5625px 8.5px;">Daten</text>
      </g>
      <g class="blocklyEditableText" style="cursor: text;" transform="translate(240,5)">
        <rect rx="4" ry="4" x="0" y="0" height="17" width="49" class="blocklyFieldRect" style="fill: rgb(255, 255, 255); fill-opacity: 0.6;"/>
        <text class="blocklyText" x="5" y="14" style="white-space: pre; font-family: sans-serif; font-size: 14.6667px; font-weight: 400; line-height: normal; perspective-origin: 22.0625px 8.5px;">Daten</text>
      </g>
      <g transform="translate(294,5)">
        <text class="blocklyText" x="0" y="14" style="white-space: pre; cursor: grabbing; fill: rgb(255, 255, 255); font-family: sans-serif; font-size: 14.6667px; font-weight: 400; line-height: normal; perspective-origin: 2.03125px 8.5px;">.</text>
      </g>
      <g class="blocklyEditableText" style="cursor: default;" transform="translate(303,5)">
        <rect rx="4" ry="4" x="0" y="0" height="17" width="49.599998474121094" class="blocklyFieldRect blocklyDropdownRect" stroke="#8cc08c" fill="transparent" style="fill: rgb(255, 255, 255); fill-opacity: 0.6; stroke: none;"/>
        <text class="blocklyText blocklyDropdownText" text-anchor="start" x="5" y="14" style="white-space: pre; font-family: sans-serif; font-size: 14.6667px; font-weight: 400; line-height: normal; perspective-origin: 21.6562px 8.5px;">csv<tspan style="fill: rgb(91, 165, 91);"> ▾</tspan></text>
        <image style="display: none;"/>
      </g>
    </g>
  </g>
</svg>