<svg xmlns="http://www.w3.org/2000/svg" viewBox="-12 -2.53 188.65 57.52"><g data-id="$1?qJ@P03Ma(9S*d~bYo" class="blocklyDraggable" transform="matrix(1, 0, 0, 1, -9.861913681030273, -0.019012289121747017)" style="cursor: grab;" id="object-0"><path class="blocklyPathDark" transform="translate(1,1)" fill="#498449" d=" m 8,0 h 176.50000381469727 v 5 H 184.50000381469727 V 5 H 184.50000381469727 V 22 H 184.50000381469727 V 32 H 184.50000381469727 V 49 H 184.50000381469727 V 49 V 53 h -176.50000381469727 H 8 V 20 c 0,-10 -8,8 -8,-7.5 s 8,2.5 8,-7.5 z " style="width: 184.5px; block-size: 53px; cursor: grab; display: flex; height: 53px; inline-size: 184.5px;"/><path class="blocklyPath" stroke="none" fill="#5ba55b" d=" m 8,0 h 176.50000381469727 v 5 H 184.50000381469727 V 5 H 184.50000381469727 V 22 H 184.50000381469727 V 32 H 184.50000381469727 V 49 H 184.50000381469727 V 49 V 53 h -176.50000381469727 H 8 V 20 c 0,-10 -8,8 -8,-7.5 s 8,2.5 8,-7.5 z " style="cursor: grab;"/><path class="blocklyPathLight" stroke="#8cc08c" d=" m 8,0 m 0.5,0.5 H 184.00000381469727 H 184.00000381469727 M 8.5,52.5 M 8.5,52.5 V 20 v -1.5 m -7.36,-0.5 q -1.52,-5.5 0,-11 m 7.36,1 V 0.5 " style="width: 187.633px; block-size: 56.5px; cursor: grab; display: flex; fill: none; height: 56.5px; inline-size: 187.633px; stroke-linecap: round;"/><g transform="translate(18,5)"><text class="blocklyText" x="0" y="14" style="white-space: pre; cursor: grab; fill: rgb(255, 255, 255); font-family: sans-serif; font-size: 14.6667px; line-height: normal;">ESP32-S2 Phododiode</text></g><g transform="translate(18,32)"><text class="blocklyText" x="0" y="14" style="white-space: pre; cursor: grab; fill: rgb(255, 255, 255); font-family: sans-serif; font-size: 14.6667px; line-height: normal;">Value:</text></g><g class="blocklyEditableText" style="cursor: default;" transform="translate(63.38333511352539,32)"><rect rx="4" ry="4" x="0" y="0" height="17" width="116.11666870117188" class="blocklyFieldRect blocklyDropdownRect" stroke="#8cc08c" fill="transparent" style="fill: rgb(255, 255, 255); fill-opacity: 0.6; stroke: none;"/><text class="blocklyText blocklyDropdownText" text-anchor="start" x="5" y="14" style="white-space: pre; font-family: sans-serif; font-size: 14.6667px; line-height: normal;">Light intensity<tspan style="fill: rgb(91, 165, 91);"> ▾</tspan></text><image style="display: none;"/></g></g></svg>