<svg version="1.1" xmlns="http://www.w3.org/2000/svg" xmlns:xlink="http://www.w3.org/1999/xlink"
                  width="542.8065185546875" height="794" viewBox="27 16 542.8065185546875 794">
                  <defs><style type="text/css" xmlns="http://www.w3.org/1999/xhtml"><![CDATA[.blocklyText, 
.blocklyFlyoutLabelText {
font: normal 11pt sans-serif;
}
.blocklyText {
fill: #fff;
}
.blocklyNonEditableText>rect,
.blocklyEditableText>rect {
fill: #fff;
fill-opacity: .6;
stroke: none;
}
.blocklyNonEditableText>text,
.blocklyEditableText>text {
fill: #000;
}
.blocklyFlyoutLabelText {
fill: #000;
}
.blocklyText.blocklyBubbleText {
fill: #000;
}
.blocklyEditableText:not(.editing):hover>rect {
stroke: #fff;
stroke-width: 2;
}
.blocklyHtmlInput {
font-family: sans-serif;
font-weight: normal;
}
.blocklySelected>.blocklyPath {
stroke: #fc3;
stroke-width: 3px;
}
.blocklyHighlightedConnectionPath {
stroke: #fc3;
}
.blocklyPath {
fill-opacity: .5;
}
.blocklyPathLight,
.blocklyPathDark {
display: none;
}
.blocklyInsertionMarker>.blocklyPath {
fill-opacity: 0.2;
stroke: none;
}
.blocklyInsertionMarker>.blocklyPathLight,
.blocklyInsertionMarker>.blocklyPathDark {
fill-opacity: 0.2;
stroke: none;
}.blocklySvg {
background-color: #fff;
outline: none;
overflow: hidden;
position: absolute;
display: block;
}
.blocklyWidgetDiv {
display: none;
position: absolute;
z-index: 99999;
}
.injectionDiv {
height: 100%;
position: relative;
overflow: hidden;
touch-action: none;
}
.blocklyNonSelectable {
user-select: none;
-ms-user-select: none;
-webkit-user-select: none;
}
.blocklyWsDragSurface {
display: none;
position: absolute;
top: 0;
left: 0;
}
.blocklyWsDragSurface.blocklyOverflowVisible {
overflow: visible;
}
.blocklyBlockDragSurface {
display: none;
position: absolute;
top: 0;
left: 0;
right: 0;
bottom: 0;
overflow: visible !important;
z-index: 50;
}
.blocklyBlockCanvas.blocklyCanvasTransitioning,
.blocklyBubbleCanvas.blocklyCanvasTransitioning {
transition: transform .5s;
}
.blocklyTooltipDiv {
background-color: #ffffc7;
border: 1px solid #ddc;
box-shadow: 4px 4px 20px 1px rgba(0,0,0,.15);
color: #000;
display: none;
font: 9pt sans-serif;
opacity: .9;
padding: 2px;
position: absolute;
z-index: 100000;
}
.blocklyDropDownDiv {
position: absolute;
left: 0;
top: 0;
z-index: 1000;
display: none;
border: 1px solid;
border-color: #dadce0;
background-color: #fff;
border-radius: 2px;
padding: 4px;
box-shadow: 0 0 3px 1px rgba(0,0,0,.3);
}
.blocklyDropDownDiv.blocklyFocused {
box-shadow: 0 0 6px 1px rgba(0,0,0,.3);
}
.blocklyDropDownContent {
max-height: 300px;
overflow: auto;
overflow-x: hidden;
position: relative;
}
.blocklyDropDownArrow {
position: absolute;
left: 0;
top: 0;
width: 16px;
height: 16px;
z-index: -1;
background-color: inherit;
border-color: inherit;
}
.blocklyDropDownButton {
display: inline-block;
float: left;
padding: 0;
margin: 4px;
border-radius: 4px;
outline: none;
border: 1px solid;
transition: box-shadow .1s;
cursor: pointer;
}
.blocklyArrowTop {
border-top: 1px solid;
border-left: 1px solid;
border-top-left-radius: 4px;
border-color: inherit;
}
.blocklyArrowBottom {
border-bottom: 1px solid;
border-right: 1px solid;
border-bottom-right-radius: 4px;
border-color: inherit;
}
.blocklyResizeSE {
cursor: se-resize;
fill: #aaa;
}
.blocklyResizeSW {
cursor: sw-resize;
fill: #aaa;
}
.blocklyResizeLine {
stroke: #515A5A;
stroke-width: 1;
}
.blocklyHighlightedConnectionPath {
fill: none;
stroke: #fc3;
stroke-width: 4px;
}
.blocklyPathLight {
fill: none;
stroke-linecap: round;
stroke-width: 1;
}
.blocklySelected>.blocklyPathLight {
display: none;
}
.blocklyDraggable {
cursor: url("/media/blockly/handopen.cur"), auto;
cursor: grab;
cursor: -webkit-grab;
}
.blocklyDragging {
cursor: url("/media/blockly/handclosed.cur"), auto;
cursor: grabbing;
cursor: -webkit-grabbing;
}
.blocklyDraggable:active {
cursor: url("/media/blockly/handclosed.cur"), auto;
cursor: grabbing;
cursor: -webkit-grabbing;
}
.blocklyDraggable {
cursor: url("/media/blockly/handclosed.cur"), auto;
cursor: grabbing;
cursor: -webkit-grabbing;
}
.blocklyDragging.blocklyDraggingDelete {
cursor: url("/media/blockly/handdelete.cur"), auto;
}
.blocklyDragging>.blocklyPath,
.blocklyDragging>.blocklyPathLight {
fill-opacity: .8;
stroke-opacity: .8;
}
.blocklyDragging>.blocklyPathDark {
display: none;
}
.blocklyDisabled>.blocklyPath {
fill-opacity: .5;
stroke-opacity: .5;
}
.blocklyDisabled>.blocklyPathLight,
.blocklyDisabled>.blocklyPathDark {
display: none;
}
.blocklyInsertionMarker>.blocklyPath,
.blocklyInsertionMarker>.blocklyPathLight,
.blocklyInsertionMarker>.blocklyPathDark {
fill-opacity: .2;
stroke: none;
}
.blocklyMultilineText {
font-family: monospace;
}
.blocklyNonEditableText>text {
pointer-events: none;
}
.blocklyFlyout {
position: absolute;
z-index: 20;
}
.blocklyText text {
cursor: default;
}
.blocklySvg text,
.blocklyBlockDragSurface text {
user-select: none;
-ms-user-select: none;
-webkit-user-select: none;
cursor: inherit;
}
.blocklyHidden {
display: none;
}
.blocklyFieldDropdown:not(.blocklyHidden) {
display: block;
}
.blocklyIconGroup {
cursor: default;
}
.blocklyIconGroup:not(:hover),
.blocklyIconGroupReadonly {
opacity: .6;
}
.blocklyIconShape {
fill: #00f;
stroke: #fff;
stroke-width: 1px;
}
.blocklyIconSymbol {
fill: #fff;
}
.blocklyMinimalBody {
margin: 0;
padding: 0;
}
.blocklyHtmlInput {
border: none;
border-radius: 4px;
height: 100%;
margin: 0;
outline: none;
padding: 0;
width: 100%;
text-align: center;
display: block;
box-sizing: border-box;
}
.blocklyHtmlInput::-ms-clear {
display: none;
}
.blocklyMainBackground {
stroke-width: 1;
stroke: #c6c6c6;
}
.blocklyMutatorBackground {
fill: #fff;
stroke: #ddd;
stroke-width: 1;
}
.blocklyFlyoutBackground {
fill: #ddd;
fill-opacity: .8;
}
.blocklyMainWorkspaceScrollbar {
z-index: 20;
}
.blocklyFlyoutScrollbar {
z-index: 30;
}
.blocklyScrollbarHorizontal,
.blocklyScrollbarVertical {
position: absolute;
outline: none;
}
.blocklyScrollbarBackground {
opacity: 0;
}
.blocklyScrollbarHandle {
fill: #ccc;
}
.blocklyScrollbarBackground:hover+.blocklyScrollbarHandle,
.blocklyScrollbarHandle:hover {
fill: #bbb;
}
.blocklyScrollbarHandle {
fill: #bbb;
}
.blocklyScrollbarBackground:hover+.blocklyScrollbarHandle,
.blocklyScrollbarHandle:hover {
fill: #aaa;
}
.blocklyInvalidInput {
background: #faa;
}
.blocklyVerticalMarker {
stroke-width: 3px;
fill: rgba(255,255,255,.5);
pointer-events: none;
}
.blocklyComputeCanvas {
position: absolute;
width: 0;
height: 0;
}
.blocklyNoPointerEvents {
pointer-events: none;
}
.blocklyContextMenu {
border-radius: 4px;
max-height: 100%;
}
.blocklyDropdownMenu {
border-radius: 2px;
padding: 0 !important;
}
.blocklyMenuItem {
padding-left: 28px;
}
.blocklyMenuItemRtl {
padding-left: 5px;
padding-right: 28px;
}
.blocklyMenu {
background: #fff;
border: 1px solid transparent;
box-shadow: 0 0 3px 1px rgba(0,0,0,.3);
font: normal 13px Arial, sans-serif;
margin: 0;
outline: none;
padding: 4px 0;
position: absolute;
overflow-y: auto;
overflow-x: hidden;
max-height: 100%;
z-index: 20000;
}
.blocklyMenu.blocklyFocused {
box-shadow: 0 0 6px 1px rgba(0,0,0,.3);
}
.blocklyMenu {
background: inherit;
border: inherit;
font: normal 13px "Helvetica Neue", Helvetica, sans-serif;
outline: none;
position: relative;
z-index: 20000;
}
.blocklyMenuItem {
border: none;
color: #000;
cursor: pointer;
list-style: none;
margin: 0;
min-width: 7em;
padding: 6px 15px;
white-space: nowrap;
}
.blocklyMenuItemDisabled {
color: #ccc;
cursor: inherit;
}
.blocklyMenuItemHighlight {
background-color: rgba(0,0,0,.1);
}
.blocklyMenuItemCheckbox {
height: 16px;
position: absolute;
width: 16px;
}
.blocklyMenuItemCheckbox {
background: url(/media/blockly/sprites.png) no-repeat -48px -16px;
float: left;
margin-left: -24px;
position: static;
}
.blocklyMenuItemCheckbox {
float: right;
margin-right: -24px;
}
.blocklyCommentTextarea {
background-color: #fef49c;
border: 0;
outline: 0;
margin: 0;
padding: 3px;
resize: none;
display: block;
text-overflow: hidden;
}
.blocklyFlyoutButton {
fill: #888;
cursor: default;
}
.blocklyFlyoutButtonShadow {
fill: #666;
}
.blocklyFlyoutButton:hover {
fill: #aaa;
}
.blocklyFlyoutLabel {
cursor: default;
}
.blocklyFlyoutLabelBackground {
opacity: 0;
}
.blocklyTreeRow:not(.blocklyTreeSelected):hover {
background-color: rgba(255, 255, 255, 0.2);
}
.blocklyToolboxCategory {
margin: 1px 5px 1px 0;
}
.blocklyToolboxCategory {
margin: 1px 0 1px 5px;
}
.blocklyTreeRow {
height: 22px;
line-height: 22px;
margin-bottom: 3px;
padding-right: 8px;
white-space: nowrap;
}
.blocklyTreeRow {
margin-left: 8px;
padding-right: 0px
}
.blocklyTreeIcon {
background-image: url(/media/blockly/sprites.png);
height: 16px;
vertical-align: middle;
visibility: hidden;
width: 16px;
}
.blocklyTreeIconClosed {
background-position: -32px -1px;
}
.blocklyTreeIconClosed {
background-position: 0 -1px;
}
.blocklyTreeSelected>.blocklyTreeIconClosed {
background-position: -32px -17px;
}
.blocklyTreeSelected>.blocklyTreeIconClosed {
background-position: 0 -17px;
}
.blocklyTreeIconOpen {
background-position: -16px -1px;
}
.blocklyTreeSelected>.blocklyTreeIconOpen {
background-position: -16px -17px;
}
.blocklyTreeLabel {
cursor: default;
font: 16px sans-serif;
padding: 0 3px;
vertical-align: middle;
}
.blocklyTreeLabel {
cursor: url("/media/blockly/handdelete.cur"), auto;
}
.blocklyTreeLabel {
color: #fff;
}
.blocklyTreeSeparator {
border-bottom: solid #e5e5e5 1px;
height: 0;
margin: 5px 0;
}
.blocklyTreeSeparator {
border-right: solid #e5e5e5 1px;
border-bottom: none;
height: auto;
margin: 0 5px 0 5px;
padding: 5px 0;
width: 0;
}
.blocklyToolboxDelete {
cursor: url("/media/blockly/handdelete.cur"), auto;
}
.blocklyToolboxGrab {
cursor: url("/media/blockly/handclosed.cur"), auto;
cursor: grabbing;
cursor: -webkit-grabbing;
}
.blocklyToolboxDiv {
background-color: #ddd;
overflow-x: visible;
overflow-y: auto;
padding: 4px 0 4px 0;
position: absolute;
z-index: 70;
-webkit-tap-highlight-color: transparent;
}
.blocklyToolboxContents {
display: flex;
flex-wrap: wrap;
flex-direction: column;
}
.blocklyToolboxContents:focus {
outline: none;
}
.blocklyZoom>svg>image {
opacity: .4;
}
.blocklyZoom>svg>image:hover {
opacity: .6;
}
.blocklyZoom>svg>image:active {
opacity: .8;
}
.blocklyAngleCircle {
stroke: #444;
stroke-width: 1;
fill: #ddd;
fill-opacity: .8;
}
.blocklyAngleMarks {
stroke: #444;
stroke-width: 1;
}
.blocklyAngleGauge {
fill: #f88;
fill-opacity: .8;
pointer-events: none;
}
.blocklyAngleLine {
stroke: #f00;
stroke-width: 2;
stroke-linecap: round;
pointer-events: none;
}
.blocklyColourTable {
border-collapse: collapse;
display: block;
outline: none;
padding: 1px;
}
.blocklyColourTable>tr>td {
border: .5px solid #888;
box-sizing: border-box;
cursor: pointer;
display: inline-block;
height: 20px;
padding: 0;
width: 20px;
}
.blocklyColourTable>tr>td.blocklyColourHighlighted {
border-color: #eee;
box-shadow: 2px 2px 7px 2px rgba(0,0,0,.3);
position: relative;
}
.blocklyColourSelected:hover {
border-color: #eee !important;
outline: 1px solid #333;
position: relative;
}
.blocklyHtmlTextAreaInput {
font-family: monospace;
resize: none;
overflow: hidden;
height: 100%;
text-align: left;
}
.blocklyHtmlTextAreaInputOverflowedY {
overflow-y: scroll;
}

    .blocklyModalOverlay {
      width: 100%;
      height: 100%;
      left: 0px;
      top: 0px;
      position: fixed;
    }
    .blocklyModalContainer {
      background-color: white;
      border: 1px solid gray;
      font-family: Helvetica;
      font-weight: 300;
      padding: 1em;
      width: 400px;
      display: flex;
      flex-direction: column;
      justify-content: center;
      box-shadow: 0px 10px 20px grey;
      z-index: 100;
      margin: 15% auto;
    }
    .blocklyModalHeader {
      display: flex;
      justify-content: space-between;
      align-items: center;
    }
    .blocklyModalHeaderTitle {
      margin-top: 0;
      margin-bottom: 0;
      font-size: 1.2em;
      line-height: 1.25;
    }
    .blocklyModalBtn {
      margin-left: auto;
      height: fit-content;
    }
    .blocklyModalBtnClose:before {
      content: "\2715";
    }
    .blocklyModalBtn {
      margin-right: .5em;
      border: 1px solid gray;
      font-weight: 500;
      color: gray;
      border-radius: 25px;
    }
    .blocklyModalBtnPrimary {
      background-color: gray;
      color: white;
    }

    .typedModalTitle {
      font-weight: bold;
      font-size: 1em;
    }
    .typedModalVariableInputContainer {
      margin: 1em 0 1em 0;
    }
    .typedModalVariableLabel{
      margin-right: .5em;
    }
    .typedModalTypes ul{
      display: flex;
      flex-wrap: wrap;
      list-style-type: none;
      padding: 0;
    }
    .typedModalTypes li {
      margin-right: 1em;
      display: flex;
    }
.fieldSliderContainer {
      align-items: center;
      display: flex;
      height: 32px;
      justify-content: center;
      width: 150px;
    }
    .fieldSlider {
      -webkit-appearance: none;
      background: transparent; /* override white in chrome */
      margin: 4px;
      padding: 0;
      width: 100%;
    }
    .fieldSlider:focus {
      outline: none;
    }
    /* Webkit */
    .fieldSlider::-webkit-slider-runnable-track {
      background: #ddd;
      border-radius: 5px;
      height: 10px;
    }
    .fieldSlider::-webkit-slider-thumb {
      -webkit-appearance: none;
      background: #fff;
      border-radius: 50%;
      box-shadow: 0 0 0 4px rgba(255,255,255,.15);
      cursor: pointer;
      height: 24px;
      margin-top: -7px;
      width: 24px;
    }
    /* Firefox */
    .fieldSlider::-moz-range-track {
      background: #ddd;
      border-radius: 5px;
      height: 10px;
    }
    .fieldSlider::-moz-range-thumb {
      background: #fff;
      border: none;
      border-radius: 50%;
      box-shadow: 0 0 0 4px rgba(255,255,255,.15);
      cursor: pointer;
      height: 24px;
      width: 24px;
    }
    .fieldSlider::-moz-focus-outer {
      /* override the focus border style */
      border: 0;
    }
    /* IE */
    .fieldSlider::-ms-track {
      /* IE wont let the thumb overflow the track, so fake it */
      background: transparent;
      border-color: transparent;
      border-width: 15px 0;
      /* remove default tick marks */
      color: transparent;
      height: 10px;
      width: 100%;
      margin: -4px 0;
    }
    .fieldSlider::-ms-fill-lower  {
      background: #ddd;
      border-radius: 5px;
    }
    .fieldSlider::-ms-fill-upper  {
      background: #ddd;
      border-radius: 5px;
    }
    .fieldSlider::-ms-thumb {
      background: #fff;
      border: none;
      border-radius: 50%;
      box-shadow: 0 0 0 4px rgba(255,255,255,.15);
      cursor: pointer;
      height: 24px;
      width: 24px;
    }
.zoomToFit {
    opacity: .4;
  }
  .zoomToFit:hover {
    opacity: .6;
  }
  .zoomToFit:active {
    opacity: .8;
  }.blocklyPath {
        fill-opacity: 1;
      }
      .blocklyPathDark {
        display: flex;
      }
      .blocklyPathLight {
        display: flex;
      }  ]]></style></defs>"><g xmlns="http://www.w3.org/2000/svg" class="blocklyBlockCanvas"><g class="blocklyCursor"><g width="100" height="5"><rect width="100" height="5" style="display: none"><animate attributeType="XML" attributeName="fill" dur="1s" values="#cc0a0a;transparent;transparent;" repeatCount="indefinite"/></rect><rect class="blocklyVerticalMarker" rx="10" ry="10" style="display: none"/><path transform="" style="display: none"><animate attributeType="XML" attributeName="fill" dur="1s" values="#cc0a0a;transparent;transparent;" repeatCount="indefinite"/></path><path transform="" style="display: none" fill="none" stroke-width="4"><animate attributeType="XML" attributeName="stroke" dur="1s" values="#cc0a0a;transparent;transparent;" repeatCount="indefinite"/></path></g></g><g data-id="QWW|$jB8+*EL;}|#uA" class="blocklyDraggable" transform="translate(27,16)"><path class="blocklyPathDark" transform="translate(1,1)" fill="#7a4984" d=" m 0,0  m 0,8 a 8 8 0 0,1 8,-8  h 116.29484558105469  v 5  H 124.29484558105469  V 5  H 124.29484558105469  V 22  H 124.29484558105469  V 26  H 50  l -6,4  -3,0  -6,-4  h -7 a 8 8 0 0,0 -8,8  v 540 a 8 8 0 0,0 8,8  H 124.29484558105469  H 124.29484558105469  V 587  H 124.29484558105469  V 604  H 124.29484558105469  V 608  H 50  l -6,4  -3,0  -6,-4  h -7 a 8 8 0 0,0 -8,8  v 159 a 8 8 0 0,0 8,8  H 124.29484558105469  H 124.29484558105469  V 783  V 793  h -116.29484558105469 a 8 8 0 0,1 -8,-8 z&#10;"/><path class="blocklyPath" stroke="none" fill="#995ba5" d=" m 0,0  m 0,8 a 8 8 0 0,1 8,-8  h 116.29484558105469  v 5  H 124.29484558105469  V 5  H 124.29484558105469  V 22  H 124.29484558105469  V 26  H 50  l -6,4  -3,0  -6,-4  h -7 a 8 8 0 0,0 -8,8  v 540 a 8 8 0 0,0 8,8  H 124.29484558105469  H 124.29484558105469  V 587  H 124.29484558105469  V 604  H 124.29484558105469  V 608  H 50  l -6,4  -3,0  -6,-4  h -7 a 8 8 0 0,0 -8,8  v 159 a 8 8 0 0,0 8,8  H 124.29484558105469  H 124.29484558105469  V 783  V 793  h -116.29484558105469 a 8 8 0 0,1 -8,-8 z&#10;"/><path class="blocklyPathLight" stroke="#b88cc0" d=" m 0,0  m 0.5,8 a 7.5 7.5 0 0,1 8,-7.5  H 123.79484558105469  H 123.79484558105469  M 20,582  m 1.9895923599143455,-1.9895923599143455 a 8.5 8.5 0 0,0 6.0104076400856545,2.4895923599143455  l 95.79484558105469,0  H 123.79484558105469  M 20,783  m 1.9895923599143455,-1.9895923599143455 a 8.5 8.5 0 0,0 6.0104076400856545,2.4895923599143455  l 95.79484558105469,0  H 123.79484558105469  M 0,793  m 2.6966991411008934,-2.6966991411008934 a 7.5 7.5 0 0,1 -2.1966991411008934,-5.303300858899107  V 8 &#10;"/><g data-id="gXnrf@@(Ma_*_}jl$GBt" style="display: block;" class="blocklyDraggable" transform="translate(21,27)"><path class="blocklyPathDark" transform="translate(1,1)" fill="#846249" d=" m 0,0  m 0,8 a 8 8 0 0,1 8,-8  h 7  l 6,4  3,0  6,-4  h 325.9053497314453  v 5  H 355.9053497314453  V 5  H 355.9053497314453  V 22  H 355.9053497314453  V 22  V 26  h -326.4053497314453  l -6,4  -3,0  -6,-4  h -14.5  H 0 z&#10;"/><path class="blocklyPath" stroke="none" fill="#a57a5b" d=" m 0,0  m 0,8 a 8 8 0 0,1 8,-8  h 7  l 6,4  3,0  6,-4  h 325.9053497314453  v 5  H 355.9053497314453  V 5  H 355.9053497314453  V 22  H 355.9053497314453  V 22  V 26  h -326.4053497314453  l -6,4  -3,0  -6,-4  h -14.5  H 0 z&#10;"/><path class="blocklyPathLight" stroke="#c0a28c" d=" m 0,0  m 0.5,8 a 7.5 7.5 0 0,1 8,-7.5  H 14.5  h 0.5  l 6,4  3,0  6,-4  H 355.4053497314453  H 355.4053497314453  M 0.5,25.5  V 8 &#10;"/><g data-id="u^NjD#rIkuzd$5Fz8w;l" class="blocklyDraggable" transform="translate(0,27)"><path class="blocklyPathDark" transform="translate(1,1)" fill="#846249" d=" m 0,0  h 15  l 6,4  3,0  6,-4  h 339.7994079589844  v 5  H 369.7994079589844  V 5  H 369.7994079589844  V 22  H 369.7994079589844  V 32  H 369.7994079589844  V 49  H 369.7994079589844  V 59  H 369.7994079589844  V 76  H 369.7994079589844  V 80  H 134.7386932373047  l -6,4  -3,0  -6,-4  h -7 a 8 8 0 0,0 -8,8  v 419 a 8 8 0 0,0 8,8  H 369.7994079589844  H 369.7994079589844  V 515  V 525  h -340.2994079589844  l -6,4  -3,0  -6,-4  h -6.5 a 8 8 0 0,1 -8,-8 z&#10;"/><path class="blocklyPath" stroke="none" fill="#a57a5b" d=" m 0,0  h 15  l 6,4  3,0  6,-4  h 339.7994079589844  v 5  H 369.7994079589844  V 5  H 369.7994079589844  V 22  H 369.7994079589844  V 32  H 369.7994079589844  V 49  H 369.7994079589844  V 59  H 369.7994079589844  V 76  H 369.7994079589844  V 80  H 134.7386932373047  l -6,4  -3,0  -6,-4  h -7 a 8 8 0 0,0 -8,8  v 419 a 8 8 0 0,0 8,8  H 369.7994079589844  H 369.7994079589844  V 515  V 525  h -340.2994079589844  l -6,4  -3,0  -6,-4  h -6.5 a 8 8 0 0,1 -8,-8 z&#10;"/><path class="blocklyPathLight" stroke="#c0a28c" d=" m 0,0  m 0.5,0.5  H 14.5  h 0.5  l 6,4  3,0  6,-4  H 369.2994079589844  H 369.2994079589844  M 104.73869323730469,515  m 1.9895923599143455,-1.9895923599143455 a 8.5 8.5 0 0,0 6.0104076400856545,2.4895923599143455  l 256.5607147216797,0  H 369.2994079589844  M 0,525  m 2.6966991411008934,-2.6966991411008934 a 7.5 7.5 0 0,1 -2.1966991411008934,-5.303300858899107  V 0.5 &#10;"/><g data-id="a4nr%_X3ZwAuqLBo56@m" style="display: block;" class="blocklyDraggable" transform="translate(105.73869323730469,81)"><path class="blocklyPathDark" transform="translate(1,1)" fill="#846249" d=" m 0,0  m 0,8 a 8 8 0 0,1 8,-8  h 7  l 6,4  3,0  6,-4  h 236.98341369628906  v 5  H 266.98341369628906  V 5  H 266.98341369628906  V 22  H 266.98341369628906  V 32  H 266.98341369628906  V 49  H 266.98341369628906  V 59  H 266.98341369628906  V 76  H 266.98341369628906  V 86  H 266.98341369628906  V 103  H 266.98341369628906  V 113  H 266.98341369628906  V 130  H 266.98341369628906  V 140  H 266.98341369628906  V 157  H 266.98341369628906  V 167  H 266.98341369628906  c 0,10  -8,-8  -8,7.5  s 8,-2.5  8,7.5  v 2  H 266.98341369628906  V 194  H 266.98341369628906  c 0,10  -8,-8  -8,7.5  s 8,-2.5  8,7.5  v 2  H 266.98341369628906  V 211  V 215  h -237.48341369628906  l -6,4  -3,0  -6,-4  h -14.5  H 0 z&#10;"/><path class="blocklyPath" stroke="none" fill="#a57a5b" d=" m 0,0  m 0,8 a 8 8 0 0,1 8,-8  h 7  l 6,4  3,0  6,-4  h 236.98341369628906  v 5  H 266.98341369628906  V 5  H 266.98341369628906  V 22  H 266.98341369628906  V 32  H 266.98341369628906  V 49  H 266.98341369628906  V 59  H 266.98341369628906  V 76  H 266.98341369628906  V 86  H 266.98341369628906  V 103  H 266.98341369628906  V 113  H 266.98341369628906  V 130  H 266.98341369628906  V 140  H 266.98341369628906  V 157  H 266.98341369628906  V 167  H 266.98341369628906  c 0,10  -8,-8  -8,7.5  s 8,-2.5  8,7.5  v 2  H 266.98341369628906  V 194  H 266.98341369628906  c 0,10  -8,-8  -8,7.5  s 8,-2.5  8,7.5  v 2  H 266.98341369628906  V 211  V 215  h -237.48341369628906  l -6,4  -3,0  -6,-4  h -14.5  H 0 z&#10;"/><path class="blocklyPathLight" stroke="#c0a28c" d=" m 0,0  m 0.5,8 a 7.5 7.5 0 0,1 8,-7.5  H 14.5  h 0.5  l 6,4  3,0  6,-4  H 266.48341369628906  H 266.48341369628906  M 266.98341369628906,167  m -5,14.3  l 3.68,-2.1  M 266.98341369628906,194  m -5,14.3  l 3.68,-2.1  M 0.5,214.5  V 8 &#10;"/><g data-id="cO6S!);g|%oAMXYsmm}v" class="blocklyDraggable" style="display: block;" transform="translate(259.98341369628906,162)"><path class="blocklyPathDark" transform="translate(1,1)" fill="#846249" d=" m 8,0  h 95.76947021484375  v 5  H 103.76947021484375  V 5  H 103.76947021484375  V 22  H 103.76947021484375  V 22  V 26  h -95.76947021484375  H 8  V 20  c 0,-10  -8,8  -8,-7.5  s 8,2.5  8,-7.5 z&#10;"/><path class="blocklyPath" stroke="none" fill="#a57a5b" d=" m 8,0  h 95.76947021484375  v 5  H 103.76947021484375  V 5  H 103.76947021484375  V 22  H 103.76947021484375  V 22  V 26  h -95.76947021484375  H 8  V 20  c 0,-10  -8,8  -8,-7.5  s 8,2.5  8,-7.5 z&#10;"/><path class="blocklyPathLight" stroke="#c0a28c" d=" m 8,0  m 0.5,0.5  H 103.26947021484375  H 103.26947021484375  M 8.5,25.5  M 8.5,25.5  V 20  v -1.5  m -7.36,-0.5  q -1.52,-5.5  0,-11  m 7.36,1  V 0.5 &#10;"/><g transform="translate(18,5)"><text class="blocklyText" x="0" y="13">Zeitstempel</text></g></g><g data-id="=rF@WvaU+~W1feO}GSh*" class="blocklyDraggable" style="display: block;" transform="translate(259.98341369628906,189)"><path class="blocklyPathDark" transform="translate(1,1)" fill="#846249" d=" m 8,0  h 89.08372497558594  v 5  H 97.08372497558594  V 5  H 97.08372497558594  V 22  H 97.08372497558594  V 22  V 26  h -89.08372497558594  H 8  V 20  c 0,-10  -8,8  -8,-7.5  s 8,2.5  8,-7.5 z&#10;"/><path class="blocklyPath" stroke="none" fill="#a57a5b" d=" m 8,0  h 89.08372497558594  v 5  H 97.08372497558594  V 5  H 97.08372497558594  V 22  H 97.08372497558594  V 22  V 26  h -89.08372497558594  H 8  V 20  c 0,-10  -8,8  -8,-7.5  s 8,2.5  8,-7.5 z&#10;"/><path class="blocklyPathLight" stroke="#c0a28c" d=" m 8,0  m 0.5,0.5  H 96.58372497558594  H 96.58372497558594  M 8.5,25.5  M 8.5,25.5  V 20  v -1.5  m -7.36,-0.5  q -1.52,-5.5  0,-11  m 7.36,1  V 0.5 &#10;"/><g transform="translate(18,5)"><text class="blocklyText" x="0" y="13">Kanal</text></g><g class="blocklyEditableText" transform="translate(60.49461364746094,5)" style="cursor: default;"><rect rx="4" ry="4" x="0" y="0" height="17" width="31.589111328125" class="blocklyFieldRect blocklyDropdownRect" stroke="#c0a28c" fill="transparent"/><text class="blocklyText blocklyDropdownText" text-anchor="start" x="5" y="13">1<tspan style="fill: rgb(165, 122, 91);"> ▾</tspan></text><image style="display: none;"/></g></g><g data-id="wBWIA8,sVW)R~rrSV1cP" class="blocklyDraggable" transform="translate(0,216)"><path class="blocklyPathDark" transform="translate(1,1)" fill="#846249" d=" m 0,0  h 15  l 6,4  3,0  6,-4  h 220.6627197265625  v 5  H 250.6627197265625  V 5  H 250.6627197265625  V 22  H 250.6627197265625  V 32  H 250.6627197265625  V 49  H 250.6627197265625  V 59  H 250.6627197265625  V 76  H 250.6627197265625  V 86  H 250.6627197265625  V 103  H 250.6627197265625  V 113  H 250.6627197265625  V 130  H 250.6627197265625  V 140  H 250.6627197265625  V 157  H 250.6627197265625  V 167  H 250.6627197265625  c 0,10  -8,-8  -8,7.5  s 8,-2.5  8,7.5  v 2  H 250.6627197265625  V 194  H 250.6627197265625  c 0,10  -8,-8  -8,7.5  s 8,-2.5  8,7.5  v 2  H 250.6627197265625  V 211  V 215  h -221.1627197265625  l -6,4  -3,0  -6,-4  h -6.5 a 8 8 0 0,1 -8,-8 z&#10;"/><path class="blocklyPath" stroke="none" fill="#a57a5b" d=" m 0,0  h 15  l 6,4  3,0  6,-4  h 220.6627197265625  v 5  H 250.6627197265625  V 5  H 250.6627197265625  V 22  H 250.6627197265625  V 32  H 250.6627197265625  V 49  H 250.6627197265625  V 59  H 250.6627197265625  V 76  H 250.6627197265625  V 86  H 250.6627197265625  V 103  H 250.6627197265625  V 113  H 250.6627197265625  V 130  H 250.6627197265625  V 140  H 250.6627197265625  V 157  H 250.6627197265625  V 167  H 250.6627197265625  c 0,10  -8,-8  -8,7.5  s 8,-2.5  8,7.5  v 2  H 250.6627197265625  V 194  H 250.6627197265625  c 0,10  -8,-8  -8,7.5  s 8,-2.5  8,7.5  v 2  H 250.6627197265625  V 211  V 215  h -221.1627197265625  l -6,4  -3,0  -6,-4  h -6.5 a 8 8 0 0,1 -8,-8 z&#10;"/><path class="blocklyPathLight" stroke="#c0a28c" d=" m 0,0  m 0.5,0.5  H 14.5  h 0.5  l 6,4  3,0  6,-4  H 250.1627197265625  H 250.1627197265625  M 250.6627197265625,167  m -5,14.3  l 3.68,-2.1  M 250.6627197265625,194  m -5,14.3  l 3.68,-2.1  M 0,215  m 2.6966991411008934,-2.6966991411008934 a 7.5 7.5 0 0,1 -2.1966991411008934,-5.303300858899107  V 0.5 &#10;"/><g data-id="eNHz7vn}c(K)PbYCvJ)z" class="blocklyDraggable" style="display: block;" transform="translate(243.6627197265625,162)"><path class="blocklyPathDark" transform="translate(1,1)" fill="#846249" d=" m 8,0  h 95.76947021484375  v 5  H 103.76947021484375  V 5  H 103.76947021484375  V 22  H 103.76947021484375  V 22  V 26  h -95.76947021484375  H 8  V 20  c 0,-10  -8,8  -8,-7.5  s 8,2.5  8,-7.5 z&#10;"/><path class="blocklyPath" stroke="none" fill="#a57a5b" d=" m 8,0  h 95.76947021484375  v 5  H 103.76947021484375  V 5  H 103.76947021484375  V 22  H 103.76947021484375  V 22  V 26  h -95.76947021484375  H 8  V 20  c 0,-10  -8,8  -8,-7.5  s 8,2.5  8,-7.5 z&#10;"/><path class="blocklyPathLight" stroke="#c0a28c" d=" m 8,0  m 0.5,0.5  H 103.26947021484375  H 103.26947021484375  M 8.5,25.5  M 8.5,25.5  V 20  v -1.5  m -7.36,-0.5  q -1.52,-5.5  0,-11  m 7.36,1  V 0.5 &#10;"/><g transform="translate(18,5)"><text class="blocklyText" x="0" y="13">Zeitstempel</text></g></g><g data-id="u{C=F8.=[!*mbodGoT$G" class="blocklyDraggable" style="display: block;" transform="translate(243.6627197265625,189)"><path class="blocklyPathDark" transform="translate(1,1)" fill="#846249" d=" m 8,0  h 89.08372497558594  v 5  H 97.08372497558594  V 5  H 97.08372497558594  V 22  H 97.08372497558594  V 22  V 26  h -89.08372497558594  H 8  V 20  c 0,-10  -8,8  -8,-7.5  s 8,2.5  8,-7.5 z&#10;"/><path class="blocklyPath" stroke="none" fill="#a57a5b" d=" m 8,0  h 89.08372497558594  v 5  H 97.08372497558594  V 5  H 97.08372497558594  V 22  H 97.08372497558594  V 22  V 26  h -89.08372497558594  H 8  V 20  c 0,-10  -8,8  -8,-7.5  s 8,2.5  8,-7.5 z&#10;"/><path class="blocklyPathLight" stroke="#c0a28c" d=" m 8,0  m 0.5,0.5  H 96.58372497558594  H 96.58372497558594  M 8.5,25.5  M 8.5,25.5  V 20  v -1.5  m -7.36,-0.5  q -1.52,-5.5  0,-11  m 7.36,1  V 0.5 &#10;"/><g transform="translate(18,5)"><text class="blocklyText" x="0" y="13">Kanal</text></g><g class="blocklyEditableText" transform="translate(60.49461364746094,5)" style="cursor: default;"><rect rx="4" ry="4" x="0" y="0" height="17" width="31.589111328125" class="blocklyFieldRect blocklyDropdownRect" stroke="#c0a28c" fill="transparent"/><text class="blocklyText blocklyDropdownText" text-anchor="start" x="5" y="13">2<tspan style="fill: rgb(165, 122, 91);"> ▾</tspan></text><image style="display: none;"/></g></g><g transform="translate(10,5)"><text class="blocklyText" x="0" y="13">Erstelle Graph</text></g><g class="blocklyEditableText" transform="translate(108.70072937011719,5)" style="cursor: text;"><rect rx="4" ry="4" x="0" y="0" height="17" width="84.14454650878906" class="blocklyFieldRect"/><text class="blocklyText" x="5" y="13">Temperatur</text></g><g transform="translate(10,32)"><text class="blocklyText" x="0" y="13">Einheit x-Achse</text></g><g class="blocklyEditableText" transform="translate(116.85391235351562,32)" style="cursor: text;"><rect rx="4" ry="4" x="0" y="0" height="17" width="17.329986572265625" class="blocklyFieldRect"/><text class="blocklyText" x="5" y="13">s</text></g><g transform="translate(10,59)"><text class="blocklyText" x="0" y="13">Einheit y-Achse</text></g><g class="blocklyEditableText" transform="translate(116.85391235351562,59)" style="cursor: text;"><rect rx="4" ry="4" x="0" y="0" height="17" width="26.449508666992188" class="blocklyFieldRect"/><text class="blocklyText" x="5" y="13">°C</text></g><g transform="translate(10,86)"><text class="blocklyText" x="0" y="13">Beschriftung x-Achse</text></g><g class="blocklyEditableText" transform="translate(153.51817321777344,86)" style="cursor: text;"><rect rx="4" ry="4" x="0" y="0" height="17" width="34.43806457519531" class="blocklyFieldRect"/><text class="blocklyText" x="5" y="13">Zeit</text></g><g transform="translate(10,113)"><text class="blocklyText" x="0" y="13">Beschriftung y-Achse</text></g><g class="blocklyEditableText" transform="translate(153.51817321777344,113)" style="cursor: text;"><rect rx="4" ry="4" x="0" y="0" height="17" width="84.14454650878906" class="blocklyFieldRect"/><text class="blocklyText" x="5" y="13">Temperatur</text></g><g transform="translate(10,140)"><text class="blocklyText" x="0" y="13">Stil</text></g><g class="blocklyEditableText" transform="translate(35.36505126953125,140)" style="cursor: default;"><rect rx="4" ry="4" x="0" y="0" height="17" width="54.409423828125" class="blocklyFieldRect blocklyDropdownRect" stroke="#c0a28c" fill="transparent"/><text class="blocklyText blocklyDropdownText" text-anchor="start" x="5" y="13">Linie<tspan style="fill: rgb(165, 122, 91);"> ▾</tspan></text><image style="display: none;"/></g><g transform="translate(10,167)"><text class="blocklyText" x="0" y="13">Wert x-Achse</text></g><g transform="translate(10,194)"><text class="blocklyText" x="0" y="13">Wert y-Achse</text></g></g><g transform="translate(10,5)"><text class="blocklyText" x="0" y="13">Erstelle Graph</text></g><g class="blocklyEditableText" transform="translate(108.70072937011719,5)" style="cursor: text;"><rect rx="4" ry="4" x="0" y="0" height="17" width="135.49026489257812" class="blocklyFieldRect"/><text class="blocklyText" x="5" y="13">CO2-Konzentration</text></g><g transform="translate(10,32)"><text class="blocklyText" x="0" y="13">Einheit x-Achse</text></g><g class="blocklyEditableText" transform="translate(116.85391235351562,32)" style="cursor: text;"><rect rx="4" ry="4" x="0" y="0" height="17" width="17.329986572265625" class="blocklyFieldRect"/><text class="blocklyText" x="5" y="13">s</text></g><g transform="translate(10,59)"><text class="blocklyText" x="0" y="13">Einheit y-Achse</text></g><g class="blocklyEditableText" transform="translate(116.85391235351562,59)" style="cursor: text;"><rect rx="4" ry="4" x="0" y="0" height="17" width="38.51824951171875" class="blocklyFieldRect"/><text class="blocklyText" x="5" y="13">ppm</text></g><g transform="translate(10,86)"><text class="blocklyText" x="0" y="13">Beschriftung x-Achse</text></g><g class="blocklyEditableText" transform="translate(153.51817321777344,86)" style="cursor: text;"><rect rx="4" ry="4" x="0" y="0" height="17" width="34.43806457519531" class="blocklyFieldRect"/><text class="blocklyText" x="5" y="13">Zeit</text></g><g transform="translate(10,113)"><text class="blocklyText" x="0" y="13">Beschriftung y-Achse</text></g><g class="blocklyEditableText" transform="translate(153.51817321777344,113)" style="cursor: text;"><rect rx="4" ry="4" x="0" y="0" height="17" width="100.46524047851562" class="blocklyFieldRect"/><text class="blocklyText" x="5" y="13">Konzentration</text></g><g transform="translate(10,140)"><text class="blocklyText" x="0" y="13">Stil</text></g><g class="blocklyEditableText" transform="translate(35.36505126953125,140)" style="cursor: default;"><rect rx="4" ry="4" x="0" y="0" height="17" width="54.409423828125" class="blocklyFieldRect blocklyDropdownRect" stroke="#c0a28c" fill="transparent"/><text class="blocklyText blocklyDropdownText" text-anchor="start" x="5" y="13">Linie<tspan style="fill: rgb(165, 122, 91);"> ▾</tspan></text><image style="display: none;"/></g><g transform="translate(10,167)"><text class="blocklyText" x="0" y="13">Wert x-Achse</text></g><g transform="translate(10,194)"><text class="blocklyText" x="0" y="13">Wert y-Achse</text></g></g><g transform="translate(10,5)"><text class="blocklyText" x="0" y="13">Erstelle Experiment</text></g><g transform="translate(10,32)"><text class="blocklyText" x="0" y="13">Titel</text></g><g class="blocklyEditableText" transform="translate(42.158172607421875,32)" style="cursor: text;"><rect rx="4" ry="4" x="0" y="0" height="17" width="85.76947021484375" class="blocklyFieldRect"/><text class="blocklyText" x="5" y="13">CO2 Ampel</text></g><g transform="translate(10,59)"><text class="blocklyText" x="0" y="13">Beschreibung</text></g><g class="blocklyEditableText" transform="translate(104.64920043945312,59)" style="cursor: text;"><rect rx="4" ry="4" x="0" y="0" height="17" width="260.15020751953125" class="blocklyFieldRect"/><text class="blocklyText" x="5" y="13">Sendet die Messwerte der CO2 Ampel</text></g><g transform="translate(10,85)"><text class="blocklyText" x="0" y="13">Mit Graphen:</text></g></g><g transform="translate(10,5)"><text class="blocklyText" x="0" y="13">Initialisiere Phyphox Gerät mit Namen:</text></g><g class="blocklyEditableText" transform="translate(265.13587951660156,5)" style="cursor: text;"><rect rx="4" ry="4" x="0" y="0" height="17" width="85.76947021484375" class="blocklyFieldRect"/><text class="blocklyText" x="5" y="13">CO2 Ampel</text></g></g><g data-id="z~y*Zf|d{n!u,!}:LbsB" style="display: block;" class="blocklyDraggable" transform="translate(21,609)"><path class="blocklyPathDark" transform="translate(1,1)" fill="#49845d" d=" m 0,0  m 0,8 a 8 8 0 0,1 8,-8  h 7  l 6,4  3,0  6,-4  h 147.6949920654297  v 5  H 177.6949920654297  V 5  H 177.6949920654297  V 22  H 177.6949920654297  V 26  H 50  l -6,4  -3,0  -6,-4  h -7 a 8 8 0 0,0 -8,8  v 119 a 8 8 0 0,0 8,8  H 50  H 50  V 161  V 171  h -20.5  l -6,4  -3,0  -6,-4  h -6.5 a 8 8 0 0,1 -8,-8 z&#10;"/><path class="blocklyPath" stroke="none" fill="#5ba574" d=" m 0,0  m 0,8 a 8 8 0 0,1 8,-8  h 7  l 6,4  3,0  6,-4  h 147.6949920654297  v 5  H 177.6949920654297  V 5  H 177.6949920654297  V 22  H 177.6949920654297  V 26  H 50  l -6,4  -3,0  -6,-4  h -7 a 8 8 0 0,0 -8,8  v 119 a 8 8 0 0,0 8,8  H 50  H 50  V 161  V 171  h -20.5  l -6,4  -3,0  -6,-4  h -6.5 a 8 8 0 0,1 -8,-8 z&#10;"/><path class="blocklyPathLight" stroke="#8cc09e" d=" m 0,0  m 0.5,8 a 7.5 7.5 0 0,1 8,-7.5  H 14.5  h 0.5  l 6,4  3,0  6,-4  H 177.1949920654297  H 177.1949920654297  M 20,161  m 1.9895923599143455,-1.9895923599143455 a 8.5 8.5 0 0,0 6.0104076400856545,2.4895923599143455  l 21.5,0  H 49.5  M 0,171  m 2.6966991411008934,-2.6966991411008934 a 7.5 7.5 0 0,1 -2.1966991411008934,-5.303300858899107  V 8 &#10;"/><g data-id=":=^A)EJy[yWqi+6BAm9m" style="display: block;" class="blocklyDraggable" transform="translate(21,27)"><path class="blocklyPathDark" transform="translate(1,1)" fill="#846249" d=" m 0,0  m 0,8 a 8 8 0 0,1 8,-8  h 7  l 6,4  3,0  6,-4  h 105.30418395996094  v 10  H 135.30418395996094  V 10  H 135.30418395996094  l -6,4  -3,0  -6,-4  h -7 a 8 8 0 0,0 -8,8  v 95 a 8 8 0 0,0 8,8  H 135.30418395996094  H 135.30418395996094  V 121  V 131  h -105.80418395996094  l -6,4  -3,0  -6,-4  h -6.5 a 8 8 0 0,1 -8,-8 z&#10;"/><path class="blocklyPath" stroke="none" fill="#a57a5b" d=" m 0,0  m 0,8 a 8 8 0 0,1 8,-8  h 7  l 6,4  3,0  6,-4  h 105.30418395996094  v 10  H 135.30418395996094  V 10  H 135.30418395996094  l -6,4  -3,0  -6,-4  h -7 a 8 8 0 0,0 -8,8  v 95 a 8 8 0 0,0 8,8  H 135.30418395996094  H 135.30418395996094  V 121  V 131  h -105.80418395996094  l -6,4  -3,0  -6,-4  h -6.5 a 8 8 0 0,1 -8,-8 z&#10;"/><path class="blocklyPathLight" stroke="#c0a28c" d=" m 0,0  m 0.5,8 a 7.5 7.5 0 0,1 8,-7.5  H 14.5  h 0.5  l 6,4  3,0  6,-4  H 134.80418395996094  H 134.80418395996094  M 105.30418395996094,121  m 1.9895923599143455,-1.9895923599143455 a 8.5 8.5 0 0,0 6.0104076400856545,2.4895923599143455  l 21.5,0  H 134.80418395996094  M 0,131  m 2.6966991411008934,-2.6966991411008934 a 7.5 7.5 0 0,1 -2.1966991411008934,-5.303300858899107  V 8 &#10;"/><g data-id="uhA-AERZ$}F!ZbF,nDBz" style="display: block;" class="blocklyDraggable" transform="translate(106.30418395996094,11)"><path class="blocklyPathDark" transform="translate(1,1)" fill="#846249" d=" m 0,0  m 0,8 a 8 8 0 0,1 8,-8  h 7  l 6,4  3,0  6,-4  h 135.55184936523438  v 5  H 165.55184936523438  V 5  H 165.55184936523438  c 0,10  -8,-8  -8,7.5  s 8,-2.5  8,7.5  v 29  H 165.55184936523438  V 49  V 53  h -136.05184936523438  l -6,4  -3,0  -6,-4  h -14.5  H 0 z&#10;"/><path class="blocklyPath" stroke="none" fill="#a57a5b" d=" m 0,0  m 0,8 a 8 8 0 0,1 8,-8  h 7  l 6,4  3,0  6,-4  h 135.55184936523438  v 5  H 165.55184936523438  V 5  H 165.55184936523438  c 0,10  -8,-8  -8,7.5  s 8,-2.5  8,7.5  v 29  H 165.55184936523438  V 49  V 53  h -136.05184936523438  l -6,4  -3,0  -6,-4  h -14.5  H 0 z&#10;"/><path class="blocklyPathLight" stroke="#c0a28c" d=" m 0,0  m 0.5,8 a 7.5 7.5 0 0,1 8,-7.5  H 14.5  h 0.5  l 6,4  3,0  6,-4  H 165.05184936523438  H 165.05184936523438  M 165.55184936523438,5  m -5,14.3  l 3.68,-2.1  M 0.5,52.5  V 8 &#10;"/><g data-id="fiKdg.vKfLusdT%9$QdS" class="blocklyDraggable" style="display: block;" transform="translate(158.55184936523438,0)"><path class="blocklyPathDark" transform="translate(1,1)" fill="#498449" d=" m 8,0  h 226.95046997070312  v 5  H 234.95046997070312  V 5  H 234.95046997070312  V 22  H 234.95046997070312  V 32  H 234.95046997070312  V 49  H 234.95046997070312  V 49  V 53  h -226.95046997070312  H 8  V 20  c 0,-10  -8,8  -8,-7.5  s 8,2.5  8,-7.5 z&#10;"/><path class="blocklyPath" stroke="none" fill="#5ba55b" d=" m 8,0  h 226.95046997070312  v 5  H 234.95046997070312  V 5  H 234.95046997070312  V 22  H 234.95046997070312  V 32  H 234.95046997070312  V 49  H 234.95046997070312  V 49  V 53  h -226.95046997070312  H 8  V 20  c 0,-10  -8,8  -8,-7.5  s 8,2.5  8,-7.5 z&#10;"/><path class="blocklyPathLight" stroke="#8cc08c" d=" m 8,0  m 0.5,0.5  H 234.45046997070312  H 234.45046997070312  M 8.5,52.5  M 8.5,52.5  V 20  v -1.5  m -7.36,-0.5  q -1.52,-5.5  0,-11  m 7.36,1  V 0.5 &#10;"/><g transform="translate(18,5)"><text class="blocklyText" x="0" y="13">CO2 Sensor (Sensirion SCD30)</text></g><g transform="translate(56.503875732421875,32)"><text class="blocklyText" x="0" y="13">Messwert:</text></g><g class="blocklyEditableText" transform="translate(128.29696655273438,32)" style="cursor: default;"><rect rx="4" ry="4" x="0" y="0" height="17" width="101.65350341796875" class="blocklyFieldRect blocklyDropdownRect" stroke="#8cc08c" fill="transparent"/><text class="blocklyText blocklyDropdownText" text-anchor="start" x="5" y="13">CO2 in ppm<tspan style="fill: rgb(91, 165, 91);"> ▾</tspan></text><image style="display: none;"/></g></g><g data-id="@Xa*{n9}?QI$ev=A8L}m" class="blocklyDraggable" transform="translate(0,54)"><path class="blocklyPathDark" transform="translate(1,1)" fill="#846249" d=" m 0,0  h 15  l 6,4  3,0  6,-4  h 135.55184936523438  v 5  H 165.55184936523438  V 5  H 165.55184936523438  c 0,10  -8,-8  -8,7.5  s 8,-2.5  8,7.5  v 29  H 165.55184936523438  V 49  V 53  h -136.05184936523438  l -6,4  -3,0  -6,-4  h -6.5 a 8 8 0 0,1 -8,-8 z&#10;"/><path class="blocklyPath" stroke="none" fill="#a57a5b" d=" m 0,0  h 15  l 6,4  3,0  6,-4  h 135.55184936523438  v 5  H 165.55184936523438  V 5  H 165.55184936523438  c 0,10  -8,-8  -8,7.5  s 8,-2.5  8,7.5  v 29  H 165.55184936523438  V 49  V 53  h -136.05184936523438  l -6,4  -3,0  -6,-4  h -6.5 a 8 8 0 0,1 -8,-8 z&#10;"/><path class="blocklyPathLight" stroke="#c0a28c" d=" m 0,0  m 0.5,0.5  H 14.5  h 0.5  l 6,4  3,0  6,-4  H 165.05184936523438  H 165.05184936523438  M 165.55184936523438,5  m -5,14.3  l 3.68,-2.1  M 0,53  m 2.6966991411008934,-2.6966991411008934 a 7.5 7.5 0 0,1 -2.1966991411008934,-5.303300858899107  V 0.5 &#10;"/><g data-id="[BJu8x=weyN@xC:}L}V}" class="blocklyDraggable" style="display: block;" transform="translate(158.55184936523438,0)"><path class="blocklyPathDark" transform="translate(1,1)" fill="#498449" d=" m 8,0  h 226.95046997070312  v 5  H 234.95046997070312  V 5  H 234.95046997070312  V 22  H 234.95046997070312  V 32  H 234.95046997070312  V 49  H 234.95046997070312  V 49  V 53  h -226.95046997070312  H 8  V 20  c 0,-10  -8,8  -8,-7.5  s 8,2.5  8,-7.5 z&#10;"/><path class="blocklyPath" stroke="none" fill="#5ba55b" d=" m 8,0  h 226.95046997070312  v 5  H 234.95046997070312  V 5  H 234.95046997070312  V 22  H 234.95046997070312  V 32  H 234.95046997070312  V 49  H 234.95046997070312  V 49  V 53  h -226.95046997070312  H 8  V 20  c 0,-10  -8,8  -8,-7.5  s 8,2.5  8,-7.5 z&#10;"/><path class="blocklyPathLight" stroke="#8cc08c" d=" m 8,0  m 0.5,0.5  H 234.45046997070312  H 234.45046997070312  M 8.5,52.5  M 8.5,52.5  V 20  v -1.5  m -7.36,-0.5  q -1.52,-5.5  0,-11  m 7.36,1  V 0.5 &#10;"/><g transform="translate(18,5)"><text class="blocklyText" x="0" y="13">CO2 Sensor (Sensirion SCD30)</text></g><g transform="translate(24.571212768554688,32)"><text class="blocklyText" x="0" y="13">Messwert:</text></g><g class="blocklyEditableText" transform="translate(96.36430358886719,32)" style="cursor: default;"><rect rx="4" ry="4" x="0" y="0" height="17" width="133.58616638183594" class="blocklyFieldRect blocklyDropdownRect" stroke="#8cc08c" fill="transparent"/><text class="blocklyText blocklyDropdownText" text-anchor="start" x="5" y="13">Temperatur in °C<tspan style="fill: rgb(91, 165, 91);"> ▾</tspan></text><image style="display: none;"/></g></g><g transform="translate(10,5)"><text class="blocklyText" x="0" y="13">sende an Kanal:</text></g><g class="blocklyEditableText" transform="translate(120.96273803710938,5)" style="cursor: default;"><rect rx="4" ry="4" x="0" y="0" height="17" width="31.589111328125" class="blocklyFieldRect blocklyDropdownRect" stroke="#c0a28c" fill="transparent"/><text class="blocklyText blocklyDropdownText" text-anchor="start" x="5" y="13">2<tspan style="fill: rgb(165, 122, 91);"> ▾</tspan></text><image style="display: none;"/></g></g><g transform="translate(10,5)"><text class="blocklyText" x="0" y="13">sende an Kanal:</text></g><g class="blocklyEditableText" transform="translate(120.96273803710938,5)" style="cursor: default;"><rect rx="4" ry="4" x="0" y="0" height="17" width="31.589111328125" class="blocklyFieldRect blocklyDropdownRect" stroke="#c0a28c" fill="transparent"/><text class="blocklyText blocklyDropdownText" text-anchor="start" x="5" y="13">1<tspan style="fill: rgb(165, 122, 91);"> ▾</tspan></text><image style="display: none;"/></g></g><g transform="translate(10,15)"><text class="blocklyText" x="0" y="13">Sende Werte</text></g></g><g transform="translate(10,5)"><text class="blocklyText" x="0" y="13">Messintervall</text></g><g class="blocklyEditableText" transform="translate(100.54039001464844,5)" style="cursor: text;"><rect rx="4" ry="4" x="0" y="0" height="17" width="42.61273193359375" class="blocklyFieldRect"/><text class="blocklyText" x="5" y="13">2000</text></g><g transform="translate(148.1531219482422,5)"><text class="blocklyText" x="0" y="13">ms</text></g></g><g transform="translate(10,5)"><text class="blocklyText" x="0" y="13">Setup()</text></g><g transform="translate(10,587)"><text class="blocklyText" x="0" y="13">Endlosschleife()</text></g></g></g></svg>