<svg version="1.1" xmlns="http://www.w3.org/2000/svg" xmlns:xlink="http://www.w3.org/1999/xlink"
                  width="543.5999755859375" height="794" viewBox="161 146 543.5999755859375 794">
                  <defs><style type="text/css" xmlns="http://www.w3.org/1999/xhtml"><![CDATA[.blocklyText, 
.blocklyFlyoutLabelText {
font: normal 11pt sans-serif;
}
.blocklyText {
fill: #fff;
}
.blocklyNonEditableText>rect,
.blocklyEditableText>rect {
fill: #fff;
fill-opacity: .6;
stroke: none;
}
.blocklyNonEditableText>text,
.blocklyEditableText>text {
fill: #000;
}
.blocklyFlyoutLabelText {
fill: #000;
}
.blocklyText.blocklyBubbleText {
fill: #000;
}
.blocklyEditableText:not(.editing):hover>rect {
stroke: #fff;
stroke-width: 2;
}
.blocklyHtmlInput {
font-family: sans-serif;
font-weight: normal;
}
.blocklySelected>.blocklyPath {
stroke: #fc3;
stroke-width: 3px;
}
.blocklyHighlightedConnectionPath {
stroke: #fc3;
}
.blocklyPath {
fill-opacity: .5;
}
.blocklyPathLight,
.blocklyPathDark {
display: none;
}
.blocklyInsertionMarker>.blocklyPath {
fill-opacity: 0.2;
stroke: none;
}
.blocklyInsertionMarker>.blocklyPathLight,
.blocklyInsertionMarker>.blocklyPathDark {
fill-opacity: 0.2;
stroke: none;
}
.blocklySvg {
  background-color: #fff;
  outline: none;
  overflow: hidden;  /* IE overflows by default. */
  position: absolute;
  display: block;
}

.blocklyWidgetDiv {
  display: none;
  position: absolute;
  z-index: 99999;  /* big value for bootstrap3 compatibility */
}

.injectionDiv {
  height: 100%;
  position: relative;
  overflow: hidden;  /* So blocks in drag surface disappear at edges */
  touch-action: none;
}

.blocklyNonSelectable {
  user-select: none;
  -ms-user-select: none;
  -webkit-user-select: none;
}

.blocklyWsDragSurface {
  display: none;
  position: absolute;
  top: 0;
  left: 0;
}

/* Added as a separate rule with multiple classes to make it more specific
   than a bootstrap rule that selects svg:root. See issue #1275 for context.
*/
.blocklyWsDragSurface.blocklyOverflowVisible {
  overflow: visible;
}

.blocklyBlockDragSurface {
  display: none;
  position: absolute;
  top: 0;
  left: 0;
  right: 0;
  bottom: 0;
  overflow: visible !important;
  z-index: 50;  /* Display below toolbox, but above everything else. */
}

.blocklyBlockCanvas.blocklyCanvasTransitioning,
.blocklyBubbleCanvas.blocklyCanvasTransitioning {
  transition: transform .5s;
}

.blocklyTooltipDiv {
  background-color: #ffffc7;
  border: 1px solid #ddc;
  box-shadow: 4px 4px 20px 1px rgba(0,0,0,.15);
  color: #000;
  display: none;
  font: 9pt sans-serif;
  opacity: .9;
  padding: 2px;
  position: absolute;
  z-index: 100000;  /* big value for bootstrap3 compatibility */
}

.blocklyDropDownDiv {
  position: absolute;
  left: 0;
  top: 0;
  z-index: 1000;
  display: none;
  border: 1px solid;
  border-color: #dadce0;
  background-color: #fff;
  border-radius: 2px;
  padding: 4px;
  box-shadow: 0 0 3px 1px rgba(0,0,0,.3);
}

.blocklyDropDownDiv.blocklyFocused {
  box-shadow: 0 0 6px 1px rgba(0,0,0,.3);
}

.blocklyDropDownContent {
  max-height: 300px;  /* @todo: spec for maximum height. */
  overflow: auto;
  overflow-x: hidden;
  position: relative;
}

.blocklyDropDownArrow {
  position: absolute;
  left: 0;
  top: 0;
  width: 16px;
  height: 16px;
  z-index: -1;
  background-color: inherit;
  border-color: inherit;
}

.blocklyDropDownButton {
  display: inline-block;
  float: left;
  padding: 0;
  margin: 4px;
  border-radius: 4px;
  outline: none;
  border: 1px solid;
  transition: box-shadow .1s;
  cursor: pointer;
}

.blocklyArrowTop {
  border-top: 1px solid;
  border-left: 1px solid;
  border-top-left-radius: 4px;
  border-color: inherit;
}

.blocklyArrowBottom {
  border-bottom: 1px solid;
  border-right: 1px solid;
  border-bottom-right-radius: 4px;
  border-color: inherit;
}

.blocklyResizeSE {
  cursor: se-resize;
  fill: #aaa;
}

.blocklyResizeSW {
  cursor: sw-resize;
  fill: #aaa;
}

.blocklyResizeLine {
  stroke: #515A5A;
  stroke-width: 1;
}

.blocklyHighlightedConnectionPath {
  fill: none;
  stroke: #fc3;
  stroke-width: 4px;
}

.blocklyPathLight {
  fill: none;
  stroke-linecap: round;
  stroke-width: 1;
}

.blocklySelected>.blocklyPathLight {
  display: none;
}

.blocklyDraggable {
  cursor: grab;
  cursor: -webkit-grab;
}

.blocklyDragging {
  cursor: grabbing;
  cursor: -webkit-grabbing;
}

  /* Changes cursor on mouse down. Not effective in Firefox because of
     https://bugzilla.mozilla.org/show_bug.cgi?id=771241 */
.blocklyDraggable:active {
  cursor: grabbing;
  cursor: -webkit-grabbing;
}

/* Change the cursor on the whole drag surface in case the mouse gets
   ahead of block during a drag. This way the cursor is still a closed hand.
  */
.blocklyDraggable {
  cursor: grabbing;
  cursor: -webkit-grabbing;
}

.blocklyDragging.blocklyDraggingDelete {
  cursor: url("/media/blockly/handdelete.cur"), auto;
}

.blocklyDragging>.blocklyPath,
.blocklyDragging>.blocklyPathLight {
  fill-opacity: .8;
  stroke-opacity: .8;
}

.blocklyDragging>.blocklyPathDark {
  display: none;
}

.blocklyDisabled>.blocklyPath {
  fill-opacity: .5;
  stroke-opacity: .5;
}

.blocklyDisabled>.blocklyPathLight,
.blocklyDisabled>.blocklyPathDark {
  display: none;
}

.blocklyInsertionMarker>.blocklyPath,
.blocklyInsertionMarker>.blocklyPathLight,
.blocklyInsertionMarker>.blocklyPathDark {
  fill-opacity: .2;
  stroke: none;
}

.blocklyMultilineText {
  font-family: monospace;
}

.blocklyNonEditableText>text {
  pointer-events: none;
}

.blocklyFlyout {
  position: absolute;
  z-index: 20;
}

.blocklyText text {
  cursor: default;
}

/*
  Don't allow users to select text.  It gets annoying when trying to
  drag a block and selected text moves instead.
*/
.blocklySvg text,
.blocklyBlockDragSurface text {
  user-select: none;
  -ms-user-select: none;
  -webkit-user-select: none;
  cursor: inherit;
}

.blocklyHidden {
  display: none;
}

.blocklyFieldDropdown:not(.blocklyHidden) {
  display: block;
}

.blocklyIconGroup {
  cursor: default;
}

.blocklyIconGroup:not(:hover),
.blocklyIconGroupReadonly {
  opacity: .6;
}

.blocklyIconShape {
  fill: #00f;
  stroke: #fff;
  stroke-width: 1px;
}

.blocklyIconSymbol {
  fill: #fff;
}

.blocklyMinimalBody {
  margin: 0;
  padding: 0;
}

.blocklyHtmlInput {
  border: none;
  border-radius: 4px;
  height: 100%;
  margin: 0;
  outline: none;
  padding: 0;
  width: 100%;
  text-align: center;
  display: block;
  box-sizing: border-box;
}

/* Remove the increase and decrease arrows on the field number editor */
input.blocklyHtmlInput[type=number]::-webkit-inner-spin-button,
input.blocklyHtmlInput[type=number]::-webkit-outer-spin-button {
  -webkit-appearance: none;
  margin: 0;
}

input[type=number] {
  -moz-appearance: textfield;
}

.blocklyMainBackground {
  stroke-width: 1;
  stroke: #c6c6c6;  /* Equates to #ddd due to border being off-pixel. */
}

.blocklyMutatorBackground {
  fill: #fff;
  stroke: #ddd;
  stroke-width: 1;
}

.blocklyFlyoutBackground {
  fill: #ddd;
  fill-opacity: .8;
}

.blocklyMainWorkspaceScrollbar {
  z-index: 20;
}

.blocklyFlyoutScrollbar {
  z-index: 30;
}

.blocklyScrollbarHorizontal,
.blocklyScrollbarVertical {
  position: absolute;
  outline: none;
}

.blocklyScrollbarBackground {
  opacity: 0;
}

.blocklyScrollbarHandle {
  fill: #ccc;
}

.blocklyScrollbarBackground:hover+.blocklyScrollbarHandle,
.blocklyScrollbarHandle:hover {
  fill: #bbb;
}

/* Darken flyout scrollbars due to being on a grey background. */
/* By contrast, workspace scrollbars are on a white background. */
.blocklyScrollbarHandle {
  fill: #bbb;
}

.blocklyScrollbarBackground:hover+.blocklyScrollbarHandle,
.blocklyScrollbarHandle:hover {
  fill: #aaa;
}

.blocklyInvalidInput {
  background: #faa;
}

.blocklyVerticalMarker {
  stroke-width: 3px;
  fill: rgba(255,255,255,.5);
  pointer-events: none;
}

.blocklyComputeCanvas {
  position: absolute;
  width: 0;
  height: 0;
}

.blocklyNoPointerEvents {
  pointer-events: none;
}

.blocklyContextMenu {
  border-radius: 4px;
  max-height: 100%;
}

.blocklyDropdownMenu {
  border-radius: 2px;
  padding: 0 !important;
}

.blocklyMenuItem {
  /* 28px on the left for icon or checkbox. */
  padding-left: 28px;
}

/* BiDi override for the resting state. */
.blocklyMenuItemRtl {
  /* Flip left/right padding for BiDi. */
  padding-left: 5px;
  padding-right: 28px;
}

.blocklyMenu {
  background: #fff;
  border: 1px solid transparent;
  box-shadow: 0 0 3px 1px rgba(0,0,0,.3);
  font: normal 13px Arial, sans-serif;
  margin: 0;
  outline: none;
  padding: 4px 0;
  position: absolute;
  overflow-y: auto;
  overflow-x: hidden;
  max-height: 100%;
  z-index: 20000;  /* Arbitrary, but some apps depend on it... */
}

.blocklyMenu.blocklyFocused {
  box-shadow: 0 0 6px 1px rgba(0,0,0,.3);
}

.blocklyMenu {
  background: inherit;  /* Compatibility with gapi, reset from goog-menu */
  border: inherit;  /* Compatibility with gapi, reset from goog-menu */
  font: normal 13px "Helvetica Neue", Helvetica, sans-serif;
  outline: none;
  position: relative;  /* Compatibility with gapi, reset from goog-menu */
  z-index: 20000;  /* Arbitrary, but some apps depend on it... */
}

/* State: resting. */
.blocklyMenuItem {
  border: none;
  color: #000;
  cursor: pointer;
  list-style: none;
  margin: 0;
  /* 7em on the right for shortcut. */
  min-width: 7em;
  padding: 6px 15px;
  white-space: nowrap;
}

/* State: disabled. */
.blocklyMenuItemDisabled {
  color: #ccc;
  cursor: inherit;
}

/* State: hover. */
.blocklyMenuItemHighlight {
  background-color: rgba(0,0,0,.1);
}

/* State: selected/checked. */
.blocklyMenuItemCheckbox {
  height: 16px;
  position: absolute;
  width: 16px;
}

.blocklyMenuItemCheckbox {
  background: url(/media/blockly/sprites.png) no-repeat -48px -16px;
  float: left;
  margin-left: -24px;
  position: static;  /* Scroll with the menu. */
}

.blocklyMenuItemCheckbox {
  float: right;
  margin-right: -24px;
}


.blocklyCommentForeignObject {
  position: relative;
  z-index: 0;
}

.blocklyCommentRect {
  fill: #E7DE8E;
  stroke: #bcA903;
  stroke-width: 1px;
}

.blocklyCommentTarget {
  fill: transparent;
  stroke: #bcA903;
}

.blocklyCommentTargetFocused {
  fill: none;
}

.blocklyCommentHandleTarget {
  fill: none;
}

.blocklyCommentHandleTargetFocused {
  fill: transparent;
}

.blocklyFocused>.blocklyCommentRect {
  fill: #B9B272;
  stroke: #B9B272;
}

.blocklySelected>.blocklyCommentTarget {
  stroke: #fc3;
  stroke-width: 3px;
}

.blocklyCommentDeleteIcon {
  cursor: pointer;
  fill: #000;
  display: none;
}

.blocklyCommentDeleteIcon {
  display: block;
}

.blocklyDeleteIconShape {
  fill: #000;
  stroke: #000;
  stroke-width: 1px;
}

.blocklyDeleteIconShape.blocklyDeleteIconHighlighted {
  stroke: #fc3;
}


.blocklyCommentTextarea {
  background-color: #fef49c;
  border: 0;
  display: block;
  margin: 0;
  outline: 0;
  padding: 3px;
  resize: none;
  text-overflow: hidden;
}


.blocklyAngleCircle {
  stroke: #444;
  stroke-width: 1;
  fill: #ddd;
  fill-opacity: 0.8;
}

.blocklyAngleMarks {
  stroke: #444;
  stroke-width: 1;
}

.blocklyAngleGauge {
  fill: #f88;
  fill-opacity: 0.8;
  pointer-events: none;
}

.blocklyAngleLine {
  stroke: #f00;
  stroke-width: 2;
  stroke-linecap: round;
  pointer-events: none;
}


.blocklyColourTable {
  border-collapse: collapse;
  display: block;
  outline: none;
  padding: 1px;
}

.blocklyColourTable>tr>td {
  border: 0.5px solid #888;
  box-sizing: border-box;
  cursor: pointer;
  display: inline-block;
  height: 20px;
  padding: 0;
  width: 20px;
}

.blocklyColourTable>tr>td.blocklyColourHighlighted {
  border-color: #eee;
  box-shadow: 2px 2px 7px 2px rgba(0, 0, 0, 0.3);
  position: relative;
}

.blocklyColourSelected:hover {
  border-color: #eee !important;
  outline: 1px solid #333;
  position: relative;
}


.blocklyHtmlTextAreaInput {
  font-family: monospace;
  resize: none;
  overflow: hidden;
  height: 100%;
  text-align: left;
}

.blocklyHtmlTextAreaInputOverflowedY {
  overflow-y: scroll;
}


.blocklyFlyoutButton {
  fill: #888;
  cursor: default;
}

.blocklyFlyoutButtonShadow {
  fill: #666;
}

.blocklyFlyoutButton:hover {
  fill: #aaa;
}

.blocklyFlyoutLabel {
  cursor: default;
}

.blocklyFlyoutLabelBackground {
  opacity: 0;
}


.blocklyZoom>svg>image {
  opacity: .4;
}

.blocklyZoom>svg>image:hover {
  opacity: .6;
}

.blocklyZoom>svg>image:active {
  opacity: .8;
}


.blocklyTreeRow:not(.blocklyTreeSelected):hover {
  background-color: rgba(255, 255, 255, .2);
}

.blocklyToolboxCategory {
  margin: 1px 5px 1px 0;
}

.blocklyToolboxCategory {
  margin: 1px 0 1px 5px;
}

.blocklyTreeRow {
  height: 22px;
  line-height: 22px;
  margin-bottom: 3px;
  padding-right: 8px;
  white-space: nowrap;
}

.blocklyTreeRow {
  margin-left: 8px;
  padding-right: 0;
}

.blocklyTreeIcon {
  background-image: url(/media/blockly/sprites.png);
  height: 16px;
  vertical-align: middle;
  visibility: hidden;
  width: 16px;
}

.blocklyTreeIconClosed {
  background-position: -32px -1px;
}

.blocklyTreeIconClosed {
  background-position: 0 -1px;
}

.blocklyTreeSelected>.blocklyTreeIconClosed {
  background-position: -32px -17px;
}

.blocklyTreeSelected>.blocklyTreeIconClosed {
  background-position: 0 -17px;
}

.blocklyTreeIconOpen {
  background-position: -16px -1px;
}

.blocklyTreeSelected>.blocklyTreeIconOpen {
  background-position: -16px -17px;
}

.blocklyTreeLabel {
  cursor: default;
  font: 16px sans-serif;
  padding: 0 3px;
  vertical-align: middle;
}

.blocklyTreeLabel {
  cursor: url("/media/blockly/handdelete.cur"), auto;
}

.blocklyTreeLabel {
  color: #fff;
}


.blocklyTreeSeparator {
  border-bottom: solid #e5e5e5 1px;
  height: 0;
  margin: 5px 0;
}

.blocklyTreeSeparator {
  border-right: solid #e5e5e5 1px;
  border-bottom: none;
  height: auto;
  margin: 0 5px 0 5px;
  padding: 5px 0;
  width: 0;
}


.blocklyToolboxDelete {
  cursor: url("/media/blockly/handdelete.cur"), auto;
}

.blocklyToolboxGrab {
  cursor: url("/media/blockly/handclosed.cur"), auto;
  cursor: grabbing;
  cursor: -webkit-grabbing;
}

/* Category tree in Toolbox. */
.blocklyToolboxDiv {
  background-color: #ddd;
  overflow-x: visible;
  overflow-y: auto;
  padding: 4px 0 4px 0;
  position: absolute;
  z-index: 70;  /* so blocks go under toolbox when dragging */
  -webkit-tap-highlight-color: transparent;  /* issue #1345 */
}

.blocklyToolboxContents {
  display: flex;
  flex-wrap: wrap;
  flex-direction: column;
}

.blocklyToolboxContents:focus {
  outline: none;
}


.blocklyModalOverlay {
  width: 100%;
  height: 100%;
  left: 0;
  top: 0;
  position: fixed;
}
.blocklyModalContainer {
  background-color: #fff;
  border: 1px solid gray;
  font-family: Helvetica;
  font-weight: 300;
  padding: 1em;
  width: 400px;
  display: flex;
  flex-direction: column;
  justify-content: center;
  box-shadow: 0px 10px 20px grey;
  z-index: 100;
  margin: 15% auto;
}
.blocklyModalHeader {
  display: flex;
  justify-content: space-between;
  align-items: center;
}
.blocklyModalHeaderTitle {
  margin-top: 0;
  margin-bottom: 0;
  font-size: 1.2em;
  line-height: 1.25;
}
.blocklyModalBtn {
  margin-left: auto;
  height: fit-content;
}
.blocklyModalBtnClose:before {
  content: "\2715";
}
.blocklyModalBtn {
  margin-right: 0.5em;
  border: 1px solid gray;
  font-weight: 500;
  color: gray;
  border-radius: 25px;
}
.blocklyModalBtnPrimary {
  background-color: gray;
  color: #fff;
}


.typedModalTitle {
  font-weight: bold;
  font-size: 1em;
}
.typedModalVariableInputContainer {
  margin: 1em 0 1em 0;
}
.typedModalVariableLabel{
  margin-right: 0.5em;
}
.typedModalTypes ul{
  display: flex;
  flex-wrap: wrap;
  list-style-type: none;
  padding: 0;
}
.typedModalTypes li {
  margin-right: 1em;
  display: flex;
}


 /** Setup grid layout of DropDown */
 .fieldGridDropDownContainer.blocklyMenu {
   display: grid;
   grid-gap: 7px;
   }
 /* Change look of cells (add border, sizing, padding, and text color) */
 .blocklyMenuItem {
   border: 1px solid rgba(1, 1, 1, 0.5);
   border-radius: 4px;
   color: white;
   min-width: auto;
   padding-left: 15px; /* override padding-left now that checkmark is hidden */
 }
 /* Change look of selected cell */
 .blocklyMenuItemCheckbox {
   display: none; /* Hide checkmark */
 }
 .blocklyMenuItem.blocklyMenuItemSelected {
   background-color: rgba(1, 1, 1, 0.25);
 }
 /* Change look of focus/highlighted cell */
 .blocklyMenuItem.blocklyMenuItemHighlight {
   box-shadow: 0 0 0 4px hsla(0, 0%, 100%, .2);
 }
 .blocklyMenuItemHighlight {
   /* Uses less selectors so as to not affect blocklyMenuItemSelected */
   background-color: inherit;
 }
 .fieldGridDropDownContainer {
   margin: 7px; /* needed for highlight */
 }
 

.fieldSliderContainer {
  align-items: center;
  display: flex;
  height: 32px;
  justify-content: center;
  width: 150px;
}
.fieldSlider {
  -webkit-appearance: none;
  background: transparent; /* override white in chrome */
  margin: 4px;
  padding: 0;
  width: 100%;
}
.fieldSlider:focus {
  outline: none;
}
/* Webkit */
.fieldSlider::-webkit-slider-runnable-track {
  background: #ddd;
  border-radius: 5px;
  height: 10px;
}
.fieldSlider::-webkit-slider-thumb {
  -webkit-appearance: none;
  background: #fff;
  border-radius: 50%;
  box-shadow: 0 0 0 4px rgba(255,255,255,.15);
  cursor: pointer;
  height: 24px;
  margin-top: -7px;
  width: 24px;
}
/* Firefox */
.fieldSlider::-moz-range-track {
  background: #ddd;
  border-radius: 5px;
  height: 10px;
}
.fieldSlider::-moz-range-thumb {
  background: #fff;
  border: none;
  border-radius: 50%;
  box-shadow: 0 0 0 4px rgba(255,255,255,.15);
  cursor: pointer;
  height: 24px;
  width: 24px;
}
.fieldSlider::-moz-focus-outer {
  /* override the focus border style */
  border: 0;
}
/* IE */
.fieldSlider::-ms-track {
  /* IE wont let the thumb overflow the track, so fake it */
  background: transparent;
  border-color: transparent;
  border-width: 15px 0;
  /* remove default tick marks */
  color: transparent;
  height: 10px;
  width: 100%;
  margin: -4px 0;
}
.fieldSlider::-ms-fill-lower  {
  background: #ddd;
  border-radius: 5px;
}
.fieldSlider::-ms-fill-upper  {
  background: #ddd;
  border-radius: 5px;
}
.fieldSlider::-ms-thumb {
  background: #fff;
  border: none;
  border-radius: 50%;
  box-shadow: 0 0 0 4px rgba(255,255,255,.15);
  cursor: pointer;
  height: 24px;
  width: 24px;
}


.zoomToFit {
  opacity: 0.4;
}
.zoomToFit:hover {
  opacity: 0.6;
}
.zoomToFit:active {
  opacity: 0.8;
}


.blocklyBackpack {
  opacity: 0.4;
}
.blocklyBackpackDarken {
  opacity: 0.6;
}
.blocklyBackpack:active {
  opacity: 0.8;
}
.blocklyPath {
        fill-opacity: 1;
      }
      .blocklyPathDark {
        display: flex;
      }
      .blocklyPathLight {
        display: flex;
      }  ]]></style></defs>"><g xmlns="http://www.w3.org/2000/svg" class="blocklyBlockCanvas"><g class="blocklyCursor"><g width="100" height="5"><rect width="100" height="5" style="display: none"><animate attributeType="XML" attributeName="fill" dur="1s" values="#cc0a0a;transparent;transparent;" repeatCount="indefinite"/></rect><rect class="blocklyVerticalMarker" rx="10" ry="10" style="display: none"/><path transform="" style="display: none"><animate attributeType="XML" attributeName="fill" dur="1s" values="#cc0a0a;transparent;transparent;" repeatCount="indefinite"/></path><path transform="" style="display: none" fill="none" stroke-width="4"><animate attributeType="XML" attributeName="stroke" dur="1s" values="#cc0a0a;transparent;transparent;" repeatCount="indefinite"/></path></g></g><g data-id="QWW|$jB8+*EL;}|#uA" class="blocklyDraggable" transform="translate(161, 146)"><path class="blocklyPathDark" transform="translate(1,1)" fill="#7a4984" d=" m 0,0  m 0,8 a 8 8 0 0,1 8,-8  h 145  v 5  H 153  V 5  H 153  V 22  H 153  V 26  H 50  l -6,4  -3,0  -6,-4  h -7 a 8 8 0 0,0 -8,8  v 540 a 8 8 0 0,0 8,8  H 153  H 153  V 587  H 153  V 604  H 153  V 608  H 50  l -6,4  -3,0  -6,-4  h -7 a 8 8 0 0,0 -8,8  v 159 a 8 8 0 0,0 8,8  H 153  H 153  V 783  V 793  h -145 a 8 8 0 0,1 -8,-8 z&#xA;"/><path class="blocklyPath" stroke="none" fill="#995ba5" d=" m 0,0  m 0,8 a 8 8 0 0,1 8,-8  h 145  v 5  H 153  V 5  H 153  V 22  H 153  V 26  H 50  l -6,4  -3,0  -6,-4  h -7 a 8 8 0 0,0 -8,8  v 540 a 8 8 0 0,0 8,8  H 153  H 153  V 587  H 153  V 604  H 153  V 608  H 50  l -6,4  -3,0  -6,-4  h -7 a 8 8 0 0,0 -8,8  v 159 a 8 8 0 0,0 8,8  H 153  H 153  V 783  V 793  h -145 a 8 8 0 0,1 -8,-8 z&#xA;"/><path class="blocklyPathLight" stroke="#b88cc0" d=" m 0,0  m 0.5,8 a 7.5 7.5 0 0,1 8,-7.5  H 152.5  H 152.5  M 20,582  m 1.9895923599143455,-1.9895923599143455 a 8.5 8.5 0 0,0 6.0104076400856545,2.4895923599143455  l 124.5,0  H 152.5  M 20,783  m 1.9895923599143455,-1.9895923599143455 a 8.5 8.5 0 0,0 6.0104076400856545,2.4895923599143455  l 124.5,0  H 152.5  M 0,793  m 2.6966991411008934,-2.6966991411008934 a 7.5 7.5 0 0,1 -2.1966991411008934,-5.303300858899107  V 8 &#xA;"/><g transform="translate(10,5)"><text class="blocklyText" x="0" y="14">Arduino run first:</text></g><g transform="translate(10,587)"><text class="blocklyText" x="0" y="14">Arduino loop forever:</text></g><g data-id="G4M{eZXBpE[mUm8ITR%M" class="blocklyDraggable" transform="translate(21, 609)" style="display: block;"><path class="blocklyPathDark" transform="translate(1,1)" fill="#49845d" d=" m 0,0  m 0,8 a 8 8 0 0,1 8,-8  h 7  l 6,4  3,0  6,-4  h 183  v 5  H 213  V 5  H 213  V 22  H 213  V 26  H 50  l -6,4  -3,0  -6,-4  h -7 a 8 8 0 0,0 -8,8  v 119 a 8 8 0 0,0 8,8  H 50  H 50  V 161  V 171  h -20.5  l -6,4  -3,0  -6,-4  h -6.5 a 8 8 0 0,1 -8,-8 z&#xA;"/><path class="blocklyPath" stroke="none" fill="#5ba574" d=" m 0,0  m 0,8 a 8 8 0 0,1 8,-8  h 7  l 6,4  3,0  6,-4  h 183  v 5  H 213  V 5  H 213  V 22  H 213  V 26  H 50  l -6,4  -3,0  -6,-4  h -7 a 8 8 0 0,0 -8,8  v 119 a 8 8 0 0,0 8,8  H 50  H 50  V 161  V 171  h -20.5  l -6,4  -3,0  -6,-4  h -6.5 a 8 8 0 0,1 -8,-8 z&#xA;"/><path class="blocklyPathLight" stroke="#8cc09e" d=" m 0,0  m 0.5,8 a 7.5 7.5 0 0,1 8,-7.5  H 14.5  h 0.5  l 6,4  3,0  6,-4  H 212.5  H 212.5  M 20,161  m 1.9895923599143455,-1.9895923599143455 a 8.5 8.5 0 0,0 6.0104076400856545,2.4895923599143455  l 21.5,0  H 49.5  M 0,171  m 2.6966991411008934,-2.6966991411008934 a 7.5 7.5 0 0,1 -2.1966991411008934,-5.303300858899107  V 8 &#xA;"/><g transform="translate(10,5)"><text class="blocklyText" x="0" y="14">Interval: </text></g><g class="blocklyEditableText" style="cursor: text;" transform="translate(69,5)"><rect rx="4" ry="4" x="0" y="0" height="17" width="56" class="blocklyFieldRect"/><text class="blocklyText" x="5" y="14">Interval</text></g><g class="blocklyEditableText" style="cursor: text;" transform="translate(135,5)"><rect rx="4" ry="4" x="0" y="0" height="17" width="42" class="blocklyFieldRect"/><text class="blocklyText" x="5" y="14">2000</text></g><g transform="translate(182,5)"><text class="blocklyText" x="0" y="14">ms</text></g><g data-id="I__=1Z@:#|.xPSv?fgtM" class="blocklyDraggable" transform="translate(21, 27)" style="display: block;"><path class="blocklyPathDark" transform="translate(1,1)" fill="#846249" d=" m 0,0  m 0,8 a 8 8 0 0,1 8,-8  h 7  l 6,4  3,0  6,-4  h 100  v 10  H 130  V 10  H 130  l -6,4  -3,0  -6,-4  h -7 a 8 8 0 0,0 -8,8  v 95 a 8 8 0 0,0 8,8  H 130  H 130  V 121  V 131  h -100.5  l -6,4  -3,0  -6,-4  h -6.5 a 8 8 0 0,1 -8,-8 z&#xA;"/><path class="blocklyPath" stroke="none" fill="#a57a5b" d=" m 0,0  m 0,8 a 8 8 0 0,1 8,-8  h 7  l 6,4  3,0  6,-4  h 100  v 10  H 130  V 10  H 130  l -6,4  -3,0  -6,-4  h -7 a 8 8 0 0,0 -8,8  v 95 a 8 8 0 0,0 8,8  H 130  H 130  V 121  V 131  h -100.5  l -6,4  -3,0  -6,-4  h -6.5 a 8 8 0 0,1 -8,-8 z&#xA;"/><path class="blocklyPathLight" stroke="#c0a28c" d=" m 0,0  m 0.5,8 a 7.5 7.5 0 0,1 8,-7.5  H 14.5  h 0.5  l 6,4  3,0  6,-4  H 129.5  H 129.5  M 100,121  m 1.9895923599143455,-1.9895923599143455 a 8.5 8.5 0 0,0 6.0104076400856545,2.4895923599143455  l 21.5,0  H 129.5  M 0,131  m 2.6966991411008934,-2.6966991411008934 a 7.5 7.5 0 0,1 -2.1966991411008934,-5.303300858899107  V 8 &#xA;"/><g transform="translate(10,15)"><text class="blocklyText" x="0" y="14">Send values</text></g><g data-id="KQyeb%9rFacr86.{=Ga?" transform="translate(101, 11)" style="display: block;" class="blocklyDraggable"><path class="blocklyPathDark" transform="translate(1,1)" fill="#846249" d=" m 0,0  m 0,8 a 8 8 0 0,1 8,-8  h 7  l 6,4  3,0  6,-4  h 139.60000038146973  v 5  H 169.60000038146973  V 5  H 169.60000038146973  c 0,10  -8,-8  -8,7.5  s 8,-2.5  8,7.5  v 29  H 169.60000038146973  V 49  V 53  h -140.10000038146973  l -6,4  -3,0  -6,-4  h -14.5  H 0 z&#xA;"/><path class="blocklyPath" stroke="none" fill="#a57a5b" d=" m 0,0  m 0,8 a 8 8 0 0,1 8,-8  h 7  l 6,4  3,0  6,-4  h 139.60000038146973  v 5  H 169.60000038146973  V 5  H 169.60000038146973  c 0,10  -8,-8  -8,7.5  s 8,-2.5  8,7.5  v 29  H 169.60000038146973  V 49  V 53  h -140.10000038146973  l -6,4  -3,0  -6,-4  h -14.5  H 0 z&#xA;"/><path class="blocklyPathLight" stroke="#c0a28c" d=" m 0,0  m 0.5,8 a 7.5 7.5 0 0,1 8,-7.5  H 14.5  h 0.5  l 6,4  3,0  6,-4  H 169.10000038146973  H 169.10000038146973  M 169.60000038146973,5  m -5,14.3  l 3.68,-2.1  M 0.5,52.5  V 8 &#xA;"/><g transform="translate(10,5)"><text class="blocklyText" x="0" y="14">send to channel:</text></g><g class="blocklyEditableText" style="cursor: default;" transform="translate(122,5)"><rect rx="4" ry="4" x="0" y="0" height="17" width="34.60000038146973" class="blocklyFieldRect blocklyDropdownRect" stroke="#c0a28c" fill="transparent"/><text class="blocklyText blocklyDropdownText" text-anchor="start" x="5" y="14">1<tspan style="fill: rgb(165, 122, 91);"> ▾</tspan></text><image style="display: none;"/></g><g data-id="GT~k%2X%;F2)Kl)@[h??" class="blocklyDraggable" transform="translate(162.60000038146973, 0)" style="display: block;"><path class="blocklyPathDark" transform="translate(1,1)" fill="#498449" d=" m 8,0  h 229  v 5  H 237  V 5  H 237  V 22  H 237  V 32  H 237  V 49  H 237  V 49  V 53  h -229  H 8  V 20  c 0,-10  -8,8  -8,-7.5  s 8,2.5  8,-7.5 z&#xA;"/><path class="blocklyPath" stroke="none" fill="#5ba55b" d=" m 8,0  h 229  v 5  H 237  V 5  H 237  V 22  H 237  V 32  H 237  V 49  H 237  V 49  V 53  h -229  H 8  V 20  c 0,-10  -8,8  -8,-7.5  s 8,2.5  8,-7.5 z&#xA;"/><path class="blocklyPathLight" stroke="#8cc08c" d=" m 8,0  m 0.5,0.5  H 236.5  H 236.5  M 8.5,52.5  M 8.5,52.5  V 20  v -1.5  m -7.36,-0.5  q -1.52,-5.5  0,-11  m 7.36,1  V 0.5 &#xA;"/><g transform="translate(18,5)"><text class="blocklyText" x="0" y="14">CO2 Sensor (Sensirion SCD30)</text></g><g transform="translate(82.4000015258789,32)"><text class="blocklyText" x="0" y="14">Value:</text></g><g class="blocklyEditableText" style="cursor: default;" transform="translate(126.4000015258789,32)"><rect rx="4" ry="4" x="0" y="0" height="17" width="105.5999984741211" class="blocklyFieldRect blocklyDropdownRect" stroke="#8cc08c" fill="transparent"/><text class="blocklyText blocklyDropdownText" text-anchor="start" x="5" y="14">CO2 in ppm<tspan style="fill: rgb(91, 165, 91);"> ▾</tspan></text><image style="display: none;"/></g></g><g data-id="R(igsHW3tAGAYQvi`}8G" class="blocklyDraggable" transform="translate(0, 54)"><path class="blocklyPathDark" transform="translate(1,1)" fill="#846249" d=" m 0,0  h 15  l 6,4  3,0  6,-4  h 139.60000038146973  v 5  H 169.60000038146973  V 5  H 169.60000038146973  c 0,10  -8,-8  -8,7.5  s 8,-2.5  8,7.5  v 29  H 169.60000038146973  V 49  V 53  h -140.10000038146973  l -6,4  -3,0  -6,-4  h -6.5 a 8 8 0 0,1 -8,-8 z&#xA;"/><path class="blocklyPath" stroke="none" fill="#a57a5b" d=" m 0,0  h 15  l 6,4  3,0  6,-4  h 139.60000038146973  v 5  H 169.60000038146973  V 5  H 169.60000038146973  c 0,10  -8,-8  -8,7.5  s 8,-2.5  8,7.5  v 29  H 169.60000038146973  V 49  V 53  h -140.10000038146973  l -6,4  -3,0  -6,-4  h -6.5 a 8 8 0 0,1 -8,-8 z&#xA;"/><path class="blocklyPathLight" stroke="#c0a28c" d=" m 0,0  m 0.5,0.5  H 14.5  h 0.5  l 6,4  3,0  6,-4  H 169.10000038146973  H 169.10000038146973  M 169.60000038146973,5  m -5,14.3  l 3.68,-2.1  M 0,53  m 2.6966991411008934,-2.6966991411008934 a 7.5 7.5 0 0,1 -2.1966991411008934,-5.303300858899107  V 0.5 &#xA;"/><g transform="translate(10,5)"><text class="blocklyText" x="0" y="14">send to channel:</text></g><g class="blocklyEditableText" style="cursor: default;" transform="translate(122,5)"><rect rx="4" ry="4" x="0" y="0" height="17" width="34.60000038146973" class="blocklyFieldRect blocklyDropdownRect" stroke="#c0a28c" fill="transparent"/><text class="blocklyText blocklyDropdownText" text-anchor="start" x="5" y="14">2<tspan style="fill: rgb(165, 122, 91);"> ▾</tspan></text><image style="display: none;"/></g><g data-id="Fx4|D45sQO8^#{/9]aWP" class="blocklyDraggable" transform="translate(162.60000038146973, 0)" style="display: block;"><path class="blocklyPathDark" transform="translate(1,1)" fill="#498449" d=" m 8,0  h 229  v 5  H 237  V 5  H 237  V 22  H 237  V 32  H 237  V 49  H 237  V 49  V 53  h -229  H 8  V 20  c 0,-10  -8,8  -8,-7.5  s 8,2.5  8,-7.5 z&#xA;"/><path class="blocklyPath" stroke="none" fill="#5ba55b" d=" m 8,0  h 229  v 5  H 237  V 5  H 237  V 22  H 237  V 32  H 237  V 49  H 237  V 49  V 53  h -229  H 8  V 20  c 0,-10  -8,8  -8,-7.5  s 8,2.5  8,-7.5 z&#xA;"/><path class="blocklyPathLight" stroke="#8cc08c" d=" m 8,0  m 0.5,0.5  H 236.5  H 236.5  M 8.5,52.5  M 8.5,52.5  V 20  v -1.5  m -7.36,-0.5  q -1.52,-5.5  0,-11  m 7.36,1  V 0.5 &#xA;"/><g transform="translate(18,5)"><text class="blocklyText" x="0" y="14">CO2 Sensor (Sensirion SCD30)</text></g><g transform="translate(43.399993896484375,32)"><text class="blocklyText" x="0" y="14">Value:</text></g><g class="blocklyEditableText" style="cursor: default;" transform="translate(87.39999389648438,32)"><rect rx="4" ry="4" x="0" y="0" height="17" width="144.60000610351562" class="blocklyFieldRect blocklyDropdownRect" stroke="#8cc08c" fill="transparent"/><text class="blocklyText blocklyDropdownText" text-anchor="start" x="5" y="14">Temperature in °C<tspan style="fill: rgb(91, 165, 91);"> ▾</tspan></text><image style="display: none;"/></g></g></g></g></g></g><g data-id="!)`lY$,NbRviM|C7wt|;" class="blocklyDraggable" transform="translate(21, 27)" style="display: block;"><path class="blocklyPathDark" transform="translate(1,1)" fill="#846249" d=" m 0,0  m 0,8 a 8 8 0 0,1 8,-8  h 7  l 6,4  3,0  6,-4  h 342  v 5  H 372  V 5  H 372  V 22  H 372  V 22  V 26  h -342.5  l -6,4  -3,0  -6,-4  h -14.5  H 0 z&#xA;"/><path class="blocklyPath" stroke="none" fill="#a57a5b" d=" m 0,0  m 0,8 a 8 8 0 0,1 8,-8  h 7  l 6,4  3,0  6,-4  h 342  v 5  H 372  V 5  H 372  V 22  H 372  V 22  V 26  h -342.5  l -6,4  -3,0  -6,-4  h -14.5  H 0 z&#xA;"/><path class="blocklyPathLight" stroke="#c0a28c" d=" m 0,0  m 0.5,8 a 7.5 7.5 0 0,1 8,-7.5  H 14.5  h 0.5  l 6,4  3,0  6,-4  H 371.5  H 371.5  M 0.5,25.5  V 8 &#xA;"/><g transform="translate(10,5)"><text class="blocklyText" x="0" y="14">Initialise Phyphox device with name:</text></g><g class="blocklyEditableText" style="cursor: text;" transform="translate(247,5)"><rect rx="4" ry="4" x="0" y="0" height="17" width="120" class="blocklyFieldRect"/><text class="blocklyText" x="5" y="14">CO2 Traffic Light</text></g><g data-id="vkzH^(bS@b|f@)=_M_r1" class="blocklyDraggable" transform="translate(0, 27)"><path class="blocklyPathDark" transform="translate(1,1)" fill="#846249" d=" m 0,0  h 15  l 6,4  3,0  6,-4  h 393  v 5  H 423  V 5  H 423  V 22  H 423  V 32  H 423  V 49  H 423  V 59  H 423  V 76  H 423  V 80  H 133  l -6,4  -3,0  -6,-4  h -7 a 8 8 0 0,0 -8,8  v 419 a 8 8 0 0,0 8,8  H 423  H 423  V 515  V 525  h -393.5  l -6,4  -3,0  -6,-4  h -6.5 a 8 8 0 0,1 -8,-8 z&#xA;"/><path class="blocklyPath" stroke="none" fill="#a57a5b" d=" m 0,0  h 15  l 6,4  3,0  6,-4  h 393  v 5  H 423  V 5  H 423  V 22  H 423  V 32  H 423  V 49  H 423  V 59  H 423  V 76  H 423  V 80  H 133  l -6,4  -3,0  -6,-4  h -7 a 8 8 0 0,0 -8,8  v 419 a 8 8 0 0,0 8,8  H 423  H 423  V 515  V 525  h -393.5  l -6,4  -3,0  -6,-4  h -6.5 a 8 8 0 0,1 -8,-8 z&#xA;"/><path class="blocklyPathLight" stroke="#c0a28c" d=" m 0,0  m 0.5,0.5  H 14.5  h 0.5  l 6,4  3,0  6,-4  H 422.5  H 422.5  M 103,515  m 1.9895923599143455,-1.9895923599143455 a 8.5 8.5 0 0,0 6.0104076400856545,2.4895923599143455  l 311.5,0  H 422.5  M 0,525  m 2.6966991411008934,-2.6966991411008934 a 7.5 7.5 0 0,1 -2.1966991411008934,-5.303300858899107  V 0.5 &#xA;"/><g transform="translate(10,5)"><text class="blocklyText" x="0" y="14">Create experiment</text></g><g transform="translate(10,32)"><text class="blocklyText" x="0" y="14">Title</text></g><g class="blocklyEditableText" style="cursor: text;" transform="translate(41,32)"><rect rx="4" ry="4" x="0" y="0" height="17" width="120" class="blocklyFieldRect"/><text class="blocklyText" x="5" y="14">CO2 Traffic Light</text></g><g transform="translate(10,59)"><text class="blocklyText" x="0" y="14">Description</text></g><g class="blocklyEditableText" style="cursor: text;" transform="translate(89,59)"><rect rx="4" ry="4" x="0" y="0" height="17" width="329" class="blocklyFieldRect"/><text class="blocklyText" x="5" y="14">Forwards measurements of the CO2 Traffic Light</text></g><g transform="translate(10,85)"><text class="blocklyText" x="0" y="14">With graphs:</text></g><g data-id="xd[NehrRgW:?N5sUWKIO" transform="translate(104, 81)" style="display: block;" class="blocklyDraggable"><path class="blocklyPathDark" transform="translate(1,1)" fill="#846249" d=" m 0,0  m 0,8 a 8 8 0 0,1 8,-8  h 7  l 6,4  3,0  6,-4  h 219  v 5  H 249  V 5  H 249  V 22  H 249  V 32  H 249  V 49  H 249  V 59  H 249  V 76  H 249  V 86  H 249  V 103  H 249  V 113  H 249  V 130  H 249  V 140  H 249  V 157  H 249  V 167  H 249  c 0,10  -8,-8  -8,7.5  s 8,-2.5  8,7.5  v 2  H 249  V 194  H 249  c 0,10  -8,-8  -8,7.5  s 8,-2.5  8,7.5  v 2  H 249  V 211  V 215  h -219.5  l -6,4  -3,0  -6,-4  h -14.5  H 0 z&#xA;"/><path class="blocklyPath" stroke="none" fill="#a57a5b" d=" m 0,0  m 0,8 a 8 8 0 0,1 8,-8  h 7  l 6,4  3,0  6,-4  h 219  v 5  H 249  V 5  H 249  V 22  H 249  V 32  H 249  V 49  H 249  V 59  H 249  V 76  H 249  V 86  H 249  V 103  H 249  V 113  H 249  V 130  H 249  V 140  H 249  V 157  H 249  V 167  H 249  c 0,10  -8,-8  -8,7.5  s 8,-2.5  8,7.5  v 2  H 249  V 194  H 249  c 0,10  -8,-8  -8,7.5  s 8,-2.5  8,7.5  v 2  H 249  V 211  V 215  h -219.5  l -6,4  -3,0  -6,-4  h -14.5  H 0 z&#xA;"/><path class="blocklyPathLight" stroke="#c0a28c" d=" m 0,0  m 0.5,8 a 7.5 7.5 0 0,1 8,-7.5  H 14.5  h 0.5  l 6,4  3,0  6,-4  H 248.5  H 248.5  M 249,167  m -5,14.3  l 3.68,-2.1  M 249,194  m -5,14.3  l 3.68,-2.1  M 0.5,214.5  V 8 &#xA;"/><g data-id="l1`zDJ7G(GO?#pL;#@Hf" transform="translate(242, 162)" style="display: block;" class="blocklyDraggable"><path class="blocklyPathDark" transform="translate(1,1)" fill="#846249" d=" m 8,0  h 93  v 5  H 101  V 5  H 101  V 22  H 101  V 22  V 26  h -93  H 8  V 20  c 0,-10  -8,8  -8,-7.5  s 8,2.5  8,-7.5 z&#xA;"/><path class="blocklyPath" stroke="none" fill="#a57a5b" d=" m 8,0  h 93  v 5  H 101  V 5  H 101  V 22  H 101  V 22  V 26  h -93  H 8  V 20  c 0,-10  -8,8  -8,-7.5  s 8,2.5  8,-7.5 z&#xA;"/><path class="blocklyPathLight" stroke="#c0a28c" d=" m 8,0  m 0.5,0.5  H 100.5  H 100.5  M 8.5,25.5  M 8.5,25.5  V 20  v -1.5  m -7.36,-0.5  q -1.52,-5.5  0,-11  m 7.36,1  V 0.5 &#xA;"/><g transform="translate(18,5)"><text class="blocklyText" x="0" y="14">Timestamp</text></g></g><g data-id="e2QFByCkgxiZL1ny=~qT" transform="translate(242, 189)" style="display: block;" class="blocklyDraggable"><path class="blocklyPathDark" transform="translate(1,1)" fill="#846249" d=" m 8,0  h 108.60000038146973  v 5  H 116.60000038146973  V 5  H 116.60000038146973  V 22  H 116.60000038146973  V 22  V 26  h -108.60000038146973  H 8  V 20  c 0,-10  -8,8  -8,-7.5  s 8,2.5  8,-7.5 z&#xA;"/><path class="blocklyPath" stroke="none" fill="#a57a5b" d=" m 8,0  h 108.60000038146973  v 5  H 116.60000038146973  V 5  H 116.60000038146973  V 22  H 116.60000038146973  V 22  V 26  h -108.60000038146973  H 8  V 20  c 0,-10  -8,8  -8,-7.5  s 8,2.5  8,-7.5 z&#xA;"/><path class="blocklyPathLight" stroke="#c0a28c" d=" m 8,0  m 0.5,0.5  H 116.10000038146973  H 116.10000038146973  M 8.5,25.5  M 8.5,25.5  V 20  v -1.5  m -7.36,-0.5  q -1.52,-5.5  0,-11  m 7.36,1  V 0.5 &#xA;"/><g transform="translate(18,5)"><text class="blocklyText" x="0" y="14">Channel</text></g><g class="blocklyEditableText" style="cursor: default;" transform="translate(77,5)"><rect rx="4" ry="4" x="0" y="0" height="17" width="34.60000038146973" class="blocklyFieldRect blocklyDropdownRect" stroke="#c0a28c" fill="transparent"/><text class="blocklyText blocklyDropdownText" text-anchor="start" x="5" y="14">1<tspan style="fill: rgb(165, 122, 91);"> ▾</tspan></text><image style="display: none;"/></g></g><g transform="translate(10,5)"><text class="blocklyText" x="0" y="14">Create Graph</text></g><g class="blocklyEditableText" style="cursor: text;" transform="translate(103,5)"><rect rx="4" ry="4" x="0" y="0" height="17" width="133" class="blocklyFieldRect"/><text class="blocklyText" x="5" y="14">CO2 concentration</text></g><g transform="translate(10,32)"><text class="blocklyText" x="0" y="14">Unit x-axis</text></g><g class="blocklyEditableText" style="cursor: text;" transform="translate(82,32)"><rect rx="4" ry="4" x="0" y="0" height="17" width="14" class="blocklyFieldRect"/><text class="blocklyText" x="5" y="14">t</text></g><g transform="translate(10,59)"><text class="blocklyText" x="0" y="14">Unit y-axis</text></g><g class="blocklyEditableText" style="cursor: text;" transform="translate(82,59)"><rect rx="4" ry="4" x="0" y="0" height="17" width="39" class="blocklyFieldRect"/><text class="blocklyText" x="5" y="14">ppm</text></g><g transform="translate(10,86)"><text class="blocklyText" x="0" y="14">Label x-axis</text></g><g class="blocklyEditableText" style="cursor: text;" transform="translate(92,86)"><rect rx="4" ry="4" x="0" y="0" height="17" width="42" class="blocklyFieldRect"/><text class="blocklyText" x="5" y="14">Time</text></g><g transform="translate(10,113)"><text class="blocklyText" x="0" y="14">Label y-axis</text></g><g class="blocklyEditableText" style="cursor: text;" transform="translate(92,113)"><rect rx="4" ry="4" x="0" y="0" height="17" width="101" class="blocklyFieldRect"/><text class="blocklyText" x="5" y="14">Concentration</text></g><g transform="translate(10,140)"><text class="blocklyText" x="0" y="14">style</text></g><g class="blocklyEditableText" style="cursor: default;" transform="translate(45,140)"><rect rx="4" ry="4" x="0" y="0" height="17" width="53.599998474121094" class="blocklyFieldRect blocklyDropdownRect" stroke="#c0a28c" fill="transparent"/><text class="blocklyText blocklyDropdownText" text-anchor="start" x="5" y="14">Line<tspan style="fill: rgb(165, 122, 91);"> ▾</tspan></text><image style="display: none;"/></g><g transform="translate(10,167)"><text class="blocklyText" x="0" y="14">x-axis value</text></g><g transform="translate(10,194)"><text class="blocklyText" x="0" y="14">y-axis value</text></g><g data-id="T4=kgDvZra^IeAz2UjaE" class="blocklyDraggable" transform="translate(0, 216)"><path class="blocklyPathDark" transform="translate(1,1)" fill="#846249" d=" m 0,0  h 15  l 6,4  3,0  6,-4  h 178  v 5  H 208  V 5  H 208  V 22  H 208  V 32  H 208  V 49  H 208  V 59  H 208  V 76  H 208  V 86  H 208  V 103  H 208  V 113  H 208  V 130  H 208  V 140  H 208  V 157  H 208  V 167  H 208  c 0,10  -8,-8  -8,7.5  s 8,-2.5  8,7.5  v 2  H 208  V 194  H 208  c 0,10  -8,-8  -8,7.5  s 8,-2.5  8,7.5  v 2  H 208  V 211  V 215  h -178.5  l -6,4  -3,0  -6,-4  h -6.5 a 8 8 0 0,1 -8,-8 z&#xA;"/><path class="blocklyPath" stroke="none" fill="#a57a5b" d=" m 0,0  h 15  l 6,4  3,0  6,-4  h 178  v 5  H 208  V 5  H 208  V 22  H 208  V 32  H 208  V 49  H 208  V 59  H 208  V 76  H 208  V 86  H 208  V 103  H 208  V 113  H 208  V 130  H 208  V 140  H 208  V 157  H 208  V 167  H 208  c 0,10  -8,-8  -8,7.5  s 8,-2.5  8,7.5  v 2  H 208  V 194  H 208  c 0,10  -8,-8  -8,7.5  s 8,-2.5  8,7.5  v 2  H 208  V 211  V 215  h -178.5  l -6,4  -3,0  -6,-4  h -6.5 a 8 8 0 0,1 -8,-8 z&#xA;"/><path class="blocklyPathLight" stroke="#c0a28c" d=" m 0,0  m 0.5,0.5  H 14.5  h 0.5  l 6,4  3,0  6,-4  H 207.5  H 207.5  M 208,167  m -5,14.3  l 3.68,-2.1  M 208,194  m -5,14.3  l 3.68,-2.1  M 0,215  m 2.6966991411008934,-2.6966991411008934 a 7.5 7.5 0 0,1 -2.1966991411008934,-5.303300858899107  V 0.5 &#xA;"/><g data-id="6reBFpdd$UPA*6VA{Xg$" transform="translate(201, 162)" style="display: block;" class="blocklyDraggable"><path class="blocklyPathDark" transform="translate(1,1)" fill="#846249" d=" m 8,0  h 93  v 5  H 101  V 5  H 101  V 22  H 101  V 22  V 26  h -93  H 8  V 20  c 0,-10  -8,8  -8,-7.5  s 8,2.5  8,-7.5 z&#xA;"/><path class="blocklyPath" stroke="none" fill="#a57a5b" d=" m 8,0  h 93  v 5  H 101  V 5  H 101  V 22  H 101  V 22  V 26  h -93  H 8  V 20  c 0,-10  -8,8  -8,-7.5  s 8,2.5  8,-7.5 z&#xA;"/><path class="blocklyPathLight" stroke="#c0a28c" d=" m 8,0  m 0.5,0.5  H 100.5  H 100.5  M 8.5,25.5  M 8.5,25.5  V 20  v -1.5  m -7.36,-0.5  q -1.52,-5.5  0,-11  m 7.36,1  V 0.5 &#xA;"/><g transform="translate(18,5)"><text class="blocklyText" x="0" y="14">Timestamp</text></g></g><g transform="translate(10,5)"><text class="blocklyText" x="0" y="14">Create Graph</text></g><g class="blocklyEditableText" style="cursor: text;" transform="translate(103,5)"><rect rx="4" ry="4" x="0" y="0" height="17" width="92" class="blocklyFieldRect"/><text class="blocklyText" x="5" y="14">Temperature</text></g><g transform="translate(10,32)"><text class="blocklyText" x="0" y="14">Unit x-axis</text></g><g class="blocklyEditableText" style="cursor: text;" transform="translate(82,32)"><rect rx="4" ry="4" x="0" y="0" height="17" width="14" class="blocklyFieldRect"/><text class="blocklyText" x="5" y="14">t</text></g><g transform="translate(10,59)"><text class="blocklyText" x="0" y="14">Unit y-axis</text></g><g class="blocklyEditableText" style="cursor: text;" transform="translate(82,59)"><rect rx="4" ry="4" x="0" y="0" height="17" width="27" class="blocklyFieldRect"/><text class="blocklyText" x="5" y="14">°C</text></g><g transform="translate(10,86)"><text class="blocklyText" x="0" y="14">Label x-axis</text></g><g class="blocklyEditableText" style="cursor: text;" transform="translate(92,86)"><rect rx="4" ry="4" x="0" y="0" height="17" width="42" class="blocklyFieldRect"/><text class="blocklyText" x="5" y="14">Time</text></g><g transform="translate(10,113)"><text class="blocklyText" x="0" y="14">Label y-axis</text></g><g class="blocklyEditableText" style="cursor: text;" transform="translate(92,113)"><rect rx="4" ry="4" x="0" y="0" height="17" width="92" class="blocklyFieldRect"/><text class="blocklyText" x="5" y="14">Temperature</text></g><g transform="translate(10,140)"><text class="blocklyText" x="0" y="14">style</text></g><g class="blocklyEditableText" style="cursor: default;" transform="translate(45,140)"><rect rx="4" ry="4" x="0" y="0" height="17" width="53.599998474121094" class="blocklyFieldRect blocklyDropdownRect" stroke="#c0a28c" fill="transparent"/><text class="blocklyText blocklyDropdownText" text-anchor="start" x="5" y="14">Line<tspan style="fill: rgb(165, 122, 91);"> ▾</tspan></text><image style="display: none;"/></g><g transform="translate(10,167)"><text class="blocklyText" x="0" y="14">x-axis value</text></g><g transform="translate(10,194)"><text class="blocklyText" x="0" y="14">y-axis value</text></g><g data-id="QKk:3szDrM0967%:l7x{" transform="translate(201, 189)" style="display: block;" class="blocklyDraggable"><path class="blocklyPathDark" transform="translate(1,1)" fill="#846249" d=" m 8,0  h 108.60000038146973  v 5  H 116.60000038146973  V 5  H 116.60000038146973  V 22  H 116.60000038146973  V 22  V 26  h -108.60000038146973  H 8  V 20  c 0,-10  -8,8  -8,-7.5  s 8,2.5  8,-7.5 z&#xA;"/><path class="blocklyPath" stroke="none" fill="#a57a5b" d=" m 8,0  h 108.60000038146973  v 5  H 116.60000038146973  V 5  H 116.60000038146973  V 22  H 116.60000038146973  V 22  V 26  h -108.60000038146973  H 8  V 20  c 0,-10  -8,8  -8,-7.5  s 8,2.5  8,-7.5 z&#xA;"/><path class="blocklyPathLight" stroke="#c0a28c" d=" m 8,0  m 0.5,0.5  H 116.10000038146973  H 116.10000038146973  M 8.5,25.5  M 8.5,25.5  V 20  v -1.5  m -7.36,-0.5  q -1.52,-5.5  0,-11  m 7.36,1  V 0.5 &#xA;"/><g transform="translate(18,5)"><text class="blocklyText" x="0" y="14">Channel</text></g><g class="blocklyEditableText" style="cursor: default;" transform="translate(77,5)"><rect rx="4" ry="4" x="0" y="0" height="17" width="34.60000038146973" class="blocklyFieldRect blocklyDropdownRect" stroke="#c0a28c" fill="transparent"/><text class="blocklyText blocklyDropdownText" text-anchor="start" x="5" y="14">2<tspan style="fill: rgb(165, 122, 91);"> ▾</tspan></text><image style="display: none;"/></g></g></g></g></g></g></g></g></svg>