<svg viewBox="0 0 491 177" xmlns="http://www.w3.org/2000/svg" style="max-height: 500px" width="491" height="177">
  <g transform="matrix(1, 0, 0, 1, -328.410004, 261.509003)" class="blocklyBlockCanvas" xmlns="http://www.w3.org/2000/svg">
    <g class="blocklyCursor">
      <g height="5" width="100">
        <rect style="display: none;" height="5" width="100">
          
        </rect>
        <rect style="display: none; fill: rgba(255, 255, 255, 0.5); pointer-events: none; stroke-width: 3px;" ry="10" rx="10" class="blocklyVerticalMarker"/>
        <path style="display: none;" transform="">
          
        </path>
        <path style="display: none;" stroke-width="4" fill="none" transform="">
          
        </path>
      </g>
    </g>
    <g transform="matrix(1, 0, 0, 1, 127.621002, -16.685301)" class="blocklyBlockCanvas" xmlns="http://www.w3.org/2000/svg">
      <g class="blocklyCursor">
        <g height="5" width="100">
          <rect style="display: none;" height="5" width="100">
            
          </rect>
          <rect style="display: none; fill: rgba(255, 255, 255, 0.5); pointer-events: none; stroke-width: 3px;" ry="10" rx="10" class="blocklyVerticalMarker"/>
          <path style="display: none;" transform="">
            
          </path>
          <path style="display: none;" stroke-width="4" fill="none" transform="">
            
          </path>
        </g>
      </g>
    </g>
  </g>
  <g transform="matrix(1, 0, 0, 1, 9.68773, 101.989998)" class="blocklyBlockCanvas" xmlns="http://www.w3.org/2000/svg">
    <g class="blocklyCursor">
      <g height="5" width="100">
        <rect style="display: none;" height="5" width="100">
          
        </rect>
        <rect style="display: none; fill: rgba(255, 255, 255, 0.5); pointer-events: none; stroke-width: 3px;" ry="10" rx="10" class="blocklyVerticalMarker"/>
        <path style="display: none;" transform="">
          
        </path>
        <path style="display: none;" stroke-width="4" fill="none" transform="">
          
        </path>
      </g>
    </g>
    <g transform="matrix(1, 0, 0, 1, -16.1166, 15.2728)" class="blocklyBlockCanvas" xmlns="http://www.w3.org/2000/svg">
      <g class="blocklyCursor">
        <g height="5" width="100">
          <rect style="display: none;" height="5" width="100">
            
          </rect>
          <rect style="display: none; fill: rgba(255, 255, 255, 0.5); pointer-events: none; stroke-width: 3px;" ry="10" rx="10" class="blocklyVerticalMarker"/>
          <path style="display: none;" transform="">
            
          </path>
          <path style="display: none;" stroke-width="4" fill="none" transform="">
            
          </path>
        </g>
      </g>
      <g transform="matrix(1, 0, 0, 1, -264.356995, 182.401001)" class="blocklyBlockCanvas" xmlns="http://www.w3.org/2000/svg">
        <g class="blocklyCursor">
          <g height="5" width="100">
            <rect style="display: none;" height="5" width="100">
              
            </rect>
            <rect style="display: none; fill: rgba(255, 255, 255, 0.5); pointer-events: none; stroke-width: 3px;" ry="10" rx="10" class="blocklyVerticalMarker"/>
            <path style="display: none;" transform="">
              
            </path>
            <path style="display: none;" stroke-width="4" fill="none" transform="">
              
            </path>
          </g>
        </g>
        <g transform="matrix(1, 0, 0, 1, 292.515015, -195.059006)" class="blocklyBlockCanvas" xmlns="http://www.w3.org/2000/svg">
          <g class="blocklyCursor">
            <g height="5" width="100">
              <rect style="display: none;" height="5" width="100">
                
              </rect>
              <rect style="display: none; fill: rgba(255, 255, 255, 0.5); pointer-events: none; stroke-width: 3px;" ry="10" rx="10" class="blocklyVerticalMarker"/>
              <path style="display: none;" transform="">
                
              </path>
              <path style="display: none;" stroke-width="4" fill="none" transform="">
                
              </path>
            </g>
          </g>
          <g style="display: block; cursor: grab;" class="blocklyDraggable" transform="matrix(0.806959, 0, 0, 0.806959, -20.037901, -104.222)" data-id="+ms*`|?0JPUz~q~MLnY8">
            <path style="width: 187.4px; block-size: 212px; cursor: grab; display: flex; height: 212px; inline-size: 187.4px;" d="m 0,0 m 0,8 a 8 8 0 0,1 8,-8 h 7 l 6,4 3,0 6,-4 h 157.37500190734863 v 5 H 187.37500190734863 V 5 H 187.37500190734863 V 23 H 187.37500190734863 V 33 H 187.37500190734863 c 0,10 -8,-8 -8,7.5 s 8,-2.5 8,7.5 v 156 H 187.37500190734863 V 204 V 208 h -157.87500190734863 l -6,4 -3,0 -6,-4 h -6.5 a 8 8 0 0,1 -8,-8 z" fill="#498449" transform="translate(1,1)" class="blocklyPathDark"/>
            <path style="cursor: grab;" d="m 0,0 m 0,8 a 8 8 0 0,1 8,-8 h 7 l 6,4 3,0 6,-4 h 157.37500190734863 v 5 H 187.37500190734863 V 5 H 187.37500190734863 V 23 H 187.37500190734863 V 33 H 187.37500190734863 c 0,10 -8,-8 -8,7.5 s 8,-2.5 8,7.5 v 156 H 187.37500190734863 V 204 V 208 h -157.87500190734863 l -6,4 -3,0 -6,-4 h -6.5 a 8 8 0 0,1 -8,-8 z" fill="#5ba55b" stroke="none" class="blocklyPath"/>
            <path style="width: 191.383px; block-size: 212px; cursor: grab; display: flex; fill: none; height: 212px; inline-size: 191.383px; stroke-linecap: round;" d="m 0,0 m 0.5,8 a 7.5 7.5 0 0,1 8,-7.5 H 14.5 h 0.5 l 6,4 3,0 6,-4 H 186.87500190734863 H 186.87500190734863 M 187.37500190734863,33 m -5,14.3 l 3.68,-2.1 M 0,208 m 2.6966991411008934,-2.6966991411008934 a 7.5 7.5 0 0,1 -2.1966991411008934,-5.303300858899107 V 8" stroke="#8cc08c" class="blocklyPathLight"/>
            <g transform="translate(10,5)">
              <text style="white-space: pre; cursor: grab; fill: rgb(255, 255, 255); font-family: sans-serif; font-size: 14.6667px; line-height: normal;" y="14" x="0" class="blocklyText">Draw bitmap</text>
            </g>
            <g transform="translate(102.05000305175781,5)">
              <text style="white-space: pre; cursor: grab; fill: rgb(255, 255, 255); font-family: sans-serif; font-size: 14.6667px; line-height: normal;" y="14" x="0" class="blocklyText">Port:</text>
            </g>
            <g transform="translate(137.9500026702881,5)" style="cursor: default;" class="blocklyEditableText">
              <rect style="fill: rgb(255, 255, 255); fill-opacity: 0.6; stroke: none;" fill="transparent" stroke="#8cc08c" class="blocklyFieldRect blocklyDropdownRect" width="36.42499923706055" height="18" y="0" x="0" ry="4" rx="4"/>
              <text style="white-space: pre; font-family: sans-serif; font-size: 14.6667px; line-height: normal;" y="14" x="5" text-anchor="start" class="blocklyText blocklyDropdownText">A<tspan style="fill: rgb(91, 165, 91);"> ▾</tspan></text>
              <image style="display: none;"/>
            </g>
            <g transform="translate(10,33)">
              <text style="white-space: pre; cursor: grab; fill: rgb(255, 255, 255); font-family: sans-serif; font-size: 14.6667px; line-height: normal;" y="14" x="0" class="blocklyText">Motive</text>
            </g>
            <g style="display: block;" class="blocklyDraggable" transform="translate(180.37500190734863, 28)" data-id="[2VLTCJS4r9G.pWVWoIu">
              <path style="width: 418.783px; block-size: 180px; cursor: grab; display: flex; height: 180px; inline-size: 418.783px;" d="m 8,0 h 410.7749938964844 v 5 H 418.7749938964844 V 5 H 418.7749938964844 V 176 H 418.7749938964844 V 176 V 180 h -410.7749938964844 H 8 V 20 c 0,-10 -8,8 -8,-7.5 s 8,2.5 8,-7.5 z" fill="#498449" transform="translate(1,1)" class="blocklyPathDark"/>
              <path style="cursor: grab;" d="m 8,0 h 410.7749938964844 v 5 H 418.7749938964844 V 5 H 418.7749938964844 V 176 H 418.7749938964844 V 176 V 180 h -410.7749938964844 H 8 V 20 c 0,-10 -8,8 -8,-7.5 s 8,2.5 8,-7.5 z" fill="#5ba55b" stroke="none" class="blocklyPath"/>
              <path style="width: 421.917px; block-size: 183.5px; cursor: grab; display: flex; fill: none; height: 183.5px; inline-size: 421.917px; stroke-linecap: round;" d="m 8,0 m 0.5,0.5 H 418.2749938964844 H 418.2749938964844 M 8.5,179.5 M 8.5,179.5 V 20 v -1.5 m -7.36,-0.5 q -1.52,-5.5 0,-11 m 7.36,1 V 0.5" stroke="#8cc08c" class="blocklyPathLight"/>
              <g transform="translate(18,5)">
                <text style="white-space: pre; cursor: grab; fill: rgb(255, 255, 255); font-family: sans-serif; font-size: 14.6667px; line-height: normal;" y="14" x="0" class="blocklyText">{</text>
              </g>
              <g transform="translate(27.875,5)" style="cursor: text;" class="blocklyEditableText">
                <rect style="fill: rgb(255, 255, 255); fill-opacity: 0.6;" class="blocklyFieldRect" width="371.0249938964844" height="171" y="0" x="0" ry="4" rx="4"/>
                <g class="blocklyEditableText">
                  <text style="white-space: pre; font-family: sans-serif; font-size: 14.6667px; line-height: normal;" dy="14" y="3" x="5" class="blocklyText blocklyMultilineText">0x0000, 0x0000, 0x0000, 0x0000, 0x0000, 0x0000...</text>
                  <text style="white-space: pre; font-family: sans-serif; font-size: 14.6667px; line-height: normal;" dy="14" y="24" x="5" class="blocklyText blocklyMultilineText">0x0000, 0x0000, 0x0000, 0x0000, 0x0000, 0x0000...</text>
                  <text style="white-space: pre; font-family: sans-serif; font-size: 14.6667px; line-height: normal;" dy="14" y="45" x="5" class="blocklyText blocklyMultilineText">0x0000, 0x0000, 0x0000, 0x0000, 0x0000, 0x0000...</text>
                  <text style="white-space: pre; font-family: sans-serif; font-size: 14.6667px; line-height: normal;" dy="14" y="66" x="5" class="blocklyText blocklyMultilineText">0xF800, 0xF800, 0xF800, 0xF800, 0xF800, 0xF800...</text>
                  <text style="white-space: pre; font-family: sans-serif; font-size: 14.6667px; line-height: normal;" dy="14" y="87" x="5" class="blocklyText blocklyMultilineText">0xF800, 0xF800, 0xF800, 0xF800, 0xF800, 0xF800...</text>
                  <text style="white-space: pre; font-family: sans-serif; font-size: 14.6667px; line-height: normal;" dy="14" y="108" x="5" class="blocklyText blocklyMultilineText">0xF800, 0xF800, 0xF800, 0xF800, 0xF800, 0xF800...</text>
                  <text style="white-space: pre; font-family: sans-serif; font-size: 14.6667px; line-height: normal;" dy="14" y="129" x="5" class="blocklyText blocklyMultilineText">0xFFE0, 0xFFE0, 0xFFE0, 0xFFE0, 0xFFE0, 0xFFE0...</text>
                  <text style="white-space: pre; font-family: sans-serif; font-size: 14.6667px; line-height: normal;" dy="14" y="150" x="5" class="blocklyText blocklyMultilineText">0xFFE0, 0xFFE0, 0xFFE0, 0xFFE0, 0xFFE0, 0xFFE0...</text>
                </g>
              </g>
              <g transform="translate(403.8999938964844,5)">
                <text style="white-space: pre; cursor: grab; fill: rgb(255, 255, 255); font-family: sans-serif; font-size: 14.6667px; line-height: normal;" y="14" x="0" class="blocklyText">}</text>
              </g>
            </g>
          </g>
        </g>
      </g>
    </g>
  </g>
</svg>