<svg version="1.1" xmlns="http://www.w3.org/2000/svg" xmlns:xlink="http://www.w3.org/1999/xlink" width="939.0326538085938" height="302" viewBox=" 30 34 939.0326538085938 302"><defs><style type="text/css" xmlns="http://www.w3.org/1999/xhtml"><![CDATA[.blocklySvg {background-color: #fff;outline: none;overflow: hidden;}.blocklyWidgetDiv {display: none;position: absolute;z-index: 999;}.blocklyTooltipDiv {background-color: #ffffc7;border: 1px solid #ddc;box-shadow: 4px 4px 20px 1px rgba(0,0,0,.15);color: #000;display: none;font-family: sans-serif;font-size: 9pt;opacity: 0.9;padding: 2px;position: absolute;z-index: 1000;}.blocklyResizeSE {cursor: se-resize;fill: #aaa;}.blocklyResizeSW {cursor: sw-resize;fill: #aaa;}.blocklyResizeLine {stroke: #888;stroke-width: 1;}.blocklyHighlightedConnectionPath {fill: none;stroke: #fc3;stroke-width: 4px;}.blocklyPathLight {fill: none;stroke-linecap: round;stroke-width: 1;}.blocklySelected>.blocklyPath {stroke: #fc3;stroke-width: 3px;}.blocklySelected>.blocklyPathLight {display: none;}.blocklyDragging>.blocklyPath,.blocklyDragging>.blocklyPathLight {fill-opacity: .8;stroke-opacity: .8;}.blocklyDragging>.blocklyPathDark {display: none;}.blocklyDisabled>.blocklyPath {fill-opacity: .5;stroke-opacity: .5;}.blocklyDisabled>.blocklyPathLight,.blocklyDisabled>.blocklyPathDark {display: none;}.blocklyText {cursor: default;fill: #fff;font-family: sans-serif;font-size: 11pt;}.blocklyNonEditableText>text {pointer-events: none;}.blocklyNonEditableText>rect,.blocklyEditableText>rect {fill: #fff;fill-opacity: .6;}.blocklyNonEditableText>text,.blocklyEditableText>text {fill: #000;}.blocklyEditableText:hover>rect {stroke: #fff;stroke-width: 2;}.blocklyBubbleText {fill: #000;}.blocklySvg text {user-select: none;-moz-user-select: none;-webkit-user-select: none;cursor: inherit;}.blocklyHidden {display: none;}.blocklyFieldDropdown:not(.blocklyHidden) {display: block;}.blocklyIconGroup {cursor: default;}.blocklyIconGroup:not(:hover),.blocklyIconGroupReadonly {opacity: .6;}.blocklyIconShape {fill: #00f;stroke: #fff;stroke-width: 1px;}.blocklyIconSymbol {fill: #fff;}.blocklyMinimalBody {margin: 0;padding: 0;}.blocklyCommentTextarea {background-color: #ffc;border: 0;margin: 0;padding: 2px;resize: none;}.blocklyHtmlInput {border: none;border-radius: 4px;font-family: sans-serif;height: 100%;margin: 0;outline: none;padding: 0 1px;width: 100%}.blocklyMainBackground {stroke-width: 1;stroke: #c6c6c6;}.blocklyMutatorBackground {fill: #fff;stroke: #ddd;stroke-width: 1;}.blocklyFlyoutBackground {fill: #ddd;fill-opacity: .8;}.blocklyScrollbarBackground {opacity: 0;}.blocklyScrollbarKnob {fill: #ccc;}.blocklyScrollbarBackground:hover+.blocklyScrollbarKnob,.blocklyScrollbarKnob:hover {fill: #bbb;}.blocklyZoom>image {opacity: .4;}.blocklyZoom>image:hover {opacity: .6;}.blocklyZoom>image:active {opacity: .8;}.blocklyFlyout .blocklyScrollbarKnob {fill: #bbb;}.blocklyFlyout .blocklyScrollbarBackground:hover+.blocklyScrollbarKnob,.blocklyFlyout .blocklyScrollbarKnob:hover {fill: #aaa;}.blocklyInvalidInput {background: #faa;}.blocklyAngleCircle {stroke: #444;stroke-width: 1;fill: #ddd;fill-opacity: .8;}.blocklyAngleMarks {stroke: #444;stroke-width: 1;}.blocklyAngleGauge {fill: #f88;fill-opacity: .8;}.blocklyAngleLine {stroke: #f00;stroke-width: 2;stroke-linecap: round;}.blocklyContextMenu {border-radius: 4px;}.blocklyDropdownMenu {padding: 0 !important;}.blocklyWidgetDiv .goog-option-selected .goog-menuitem-checkbox,.blocklyWidgetDiv .goog-option-selected .goog-menuitem-icon {background: url(<<<PATH>>>/sprites.png) no-repeat -48px -16px !important;}.blocklyToolboxDiv {background-color: #ddd;overflow-x: visible;overflow-y: auto;position: absolute;}.blocklyTreeRoot {padding: 4px 0;}.blocklyTreeRoot:focus {outline: none;}.blocklyTreeRow {height: 22px;line-height: 22px;margin-bottom: 3px;padding-right: 8px;white-space: nowrap;}.blocklyHorizontalTree {float: left;margin: 1px 5px 8px 0;}.blocklyHorizontalTreeRtl {float: right;margin: 1px 0 8px 5px;}.blocklyToolboxDiv[dir="RTL"] .blocklyTreeRow {margin-left: 8px;}.blocklyTreeRow:not(.blocklyTreeSelected):hover {background-color: #e4e4e4;}.blocklyTreeSeparator {border-bottom: solid #e5e5e5 1px;height: 0;margin: 5px 0;}.blocklyTreeSeparatorHorizontal {border-right: solid #e5e5e5 1px;width: 0;padding: 5px 0;margin: 0 5px;}.blocklyTreeIcon {background-image: url(<<<PATH>>>/sprites.png);height: 16px;vertical-align: middle;width: 16px;}.blocklyTreeIconClosedLtr {background-position: -32px -1px;}.blocklyTreeIconClosedRtl {background-position: 0px -1px;}.blocklyTreeIconOpen {background-position: -16px -1px;}.blocklyTreeSelected>.blocklyTreeIconClosedLtr {background-position: -32px -17px;}.blocklyTreeSelected>.blocklyTreeIconClosedRtl {background-position: 0px -17px;}.blocklyTreeSelected>.blocklyTreeIconOpen {background-position: -16px -17px;}.blocklyTreeIconNone,.blocklyTreeSelected>.blocklyTreeIconNone {background-position: -48px -1px;}.blocklyTreeLabel {cursor: default;font-family: sans-serif;font-size: 16px;padding: 0 3px;vertical-align: middle;}.blocklyTreeSelected .blocklyTreeLabel {color: #fff;}.blocklyWidgetDiv .goog-palette {outline: none;cursor: default;}.blocklyWidgetDiv .goog-palette-table {border: 1px solid #666;border-collapse: collapse;}.blocklyWidgetDiv .goog-palette-cell {height: 13px;width: 15px;margin: 0;border: 0;text-align: center;vertical-align: middle;border-right: 1px solid #666;font-size: 1px;}.blocklyWidgetDiv .goog-palette-colorswatch {position: relative;height: 13px;width: 15px;border: 1px solid #666;}.blocklyWidgetDiv .goog-palette-cell-hover .goog-palette-colorswatch {border: 1px solid #FFF;}.blocklyWidgetDiv .goog-palette-cell-selected .goog-palette-colorswatch {border: 1px solid #000;color: #fff;}.blocklyWidgetDiv .goog-menu {background: #fff;border-color: #ccc #666 #666 #ccc;border-style: solid;border-width: 1px;cursor: default;font: normal 13px Arial, sans-serif;margin: 0;outline: none;padding: 4px 0;position: absolute;overflow-y: auto;overflow-x: hidden;max-height: 100%;z-index: 20000;}.blocklyWidgetDiv .goog-menuitem {color: #000;font: normal 13px Arial, sans-serif;list-style: none;margin: 0;padding: 4px 7em 4px 28px;white-space: nowrap;}.blocklyWidgetDiv .goog-menuitem.goog-menuitem-rtl {padding-left: 7em;padding-right: 28px;}.blocklyWidgetDiv .goog-menu-nocheckbox .goog-menuitem,.blocklyWidgetDiv .goog-menu-noicon .goog-menuitem {padding-left: 12px;}.blocklyWidgetDiv .goog-menu-noaccel .goog-menuitem {padding-right: 20px;}.blocklyWidgetDiv .goog-menuitem-content {color: #000;font: normal 13px Arial, sans-serif;}.blocklyWidgetDiv .goog-menuitem-disabled .goog-menuitem-accel,.blocklyWidgetDiv .goog-menuitem-disabled .goog-menuitem-content {color: #ccc !important;}.blocklyWidgetDiv .goog-menuitem-disabled .goog-menuitem-icon {opacity: 0.3;-moz-opacity: 0.3;filter: alpha(opacity=30);}.blocklyWidgetDiv .goog-menuitem-highlight,.blocklyWidgetDiv .goog-menuitem-hover {background-color: #d6e9f8;border-color: #d6e9f8;border-style: dotted;border-width: 1px 0;padding-bottom: 3px;padding-top: 3px;}.blocklyWidgetDiv .goog-menuitem-checkbox,.blocklyWidgetDiv .goog-menuitem-icon {background-repeat: no-repeat;height: 16px;left: 6px;position: absolute;right: auto;vertical-align: middle;width: 16px;}.blocklyWidgetDiv .goog-menuitem-rtl .goog-menuitem-checkbox,.blocklyWidgetDiv .goog-menuitem-rtl .goog-menuitem-icon {left: auto;right: 6px;}.blocklyWidgetDiv .goog-option-selected .goog-menuitem-checkbox,.blocklyWidgetDiv .goog-option-selected .goog-menuitem-icon {background: url(//ssl.gstatic.com/editor/editortoolbar.png) no-repeat -512px 0;}.blocklyWidgetDiv .goog-menuitem-accel {color: #999;direction: ltr;left: auto;padding: 0 6px;position: absolute;right: 0;text-align: right;}.blocklyWidgetDiv .goog-menuitem-rtl .goog-menuitem-accel {left: 0;right: auto;text-align: left;}.blocklyWidgetDiv .goog-menuitem-mnemonic-hint {text-decoration: underline;}.blocklyWidgetDiv .goog-menuitem-mnemonic-separator {color: #999;font-size: 12px;padding-left: 4px;}.blocklyWidgetDiv .goog-menuseparator {border-top: 1px solid #ccc;margin: 4px 0;padding: 0;}]]></style></defs>"><g xmlns="http://www.w3.org/2000/svg" class="blocklyBlockCanvas"><g class="blocklyDraggable" transform="translate(30,34)"><path class="blocklyPathDark" transform="translate(1,1)" fill="#793c85" d="m 0,8 A 8,8 0 0,1 8,0 H 125.18264770507812 v 25 H 50 l -6,4 -3,0 -6,-4 h -7 a 8,8 0 0,0 -8,8 v 114 a 8,8 0 0,0 8,8 H 125.18264770507812 v 25 H 50 l -6,4 -3,0 -6,-4 h -7 a 8,8 0 0,0 -8,8 v 95 a 8,8 0 0,0 8,8 H 125.18264770507812 v 10 H 8 a 8,8 0 0,1 -8,-8 z&#10;"/><path class="blocklyPath" fill="#974ba6" d="m 0,8 A 8,8 0 0,1 8,0 H 125.18264770507812 v 25 H 50 l -6,4 -3,0 -6,-4 h -7 a 8,8 0 0,0 -8,8 v 114 a 8,8 0 0,0 8,8 H 125.18264770507812 v 25 H 50 l -6,4 -3,0 -6,-4 h -7 a 8,8 0 0,0 -8,8 v 95 a 8,8 0 0,0 8,8 H 125.18264770507812 v 10 H 8 a 8,8 0 0,1 -8,-8 z&#10;"/><path class="blocklyPathLight" stroke="#b681c1" d="m 0.5,7.5 A 7.5,7.5 0 0,1 8,0.5 H 124.68264770507812 M 124.68264770507812,0.5 M 124.68264770507812,25.5 M 21.989592359914347,153.01040764008565 a 8.5,8.5 0 0,0 6.0104076400856545,2.4895923599143455 H 124.68264770507812 M 124.68264770507812,155.5 M 124.68264770507812,180.5 M 21.989592359914347,289.01040764008565 a 8.5,8.5 0 0,0 6.0104076400856545,2.4895923599143455 H 124.68264770507812 M 2.6966991411008934,298.3033008588991 A 7.5,7.5 0 0,1 0.5,293 V 8&#10;"/><text class="blocklyText" y="12.5" transform="translate(10,5)">Setup()</text><text class="blocklyText" y="12.5" transform="translate(10,160)">Endlosschleife()</text><g class="blocklyDraggable" transform="translate(21,26)"><path class="blocklyPathDark" transform="translate(1,1)" fill="#3c853c" d="m 0,8 A 8,8 0 0,1 8,0 H 15 l 6,4 3,0 6,-4 H 207.45498657226562 v 25 v 25 v 25 v 25 v 25 H 29.5 l -6,4 -3,0 -6,-4 H 8 a 8,8 0 0,1 -8,-8 z&#10;"/><path class="blocklyPath" fill="#4ba64b" d="m 0,8 A 8,8 0 0,1 8,0 H 15 l 6,4 3,0 6,-4 H 207.45498657226562 v 25 v 25 v 25 v 25 v 25 H 29.5 l -6,4 -3,0 -6,-4 H 8 a 8,8 0 0,1 -8,-8 z&#10;"/><path class="blocklyPathLight" stroke="#81c181" d="m 0.5,7.5 A 7.5,7.5 0 0,1 8,0.5 H 15 l 6,4 3,0 6,-4 H 206.95498657226562 M 206.95498657226562,0.5 M 206.95498657226562,25.5 M 206.95498657226562,50.5 M 206.95498657226562,75.5 M 206.95498657226562,100.5 M 2.6966991411008934,122.3033008588991 A 7.5,7.5 0 0,1 0.5,117 V 8&#10;"/><text class="blocklyText" y="12.5" transform="translate(10,5)">Initialize LoRa (OTAA)</text><text class="blocklyText" y="12.5" transform="translate(10,30)">Device EUI (lsb)</text><g class="blocklyEditableText" transform="translate(121.95318603515625,30)" style="cursor: text;"><rect rx="4" ry="4" x="-5" y="0" height="16" width="76.38629150390625"/><text class="blocklyText" y="12.5">DEVICE ID</text></g><text class="blocklyText" y="12.5" transform="translate(10,55)">Application EUI (lsb)</text><g class="blocklyEditableText" transform="translate(152.1496124267578,55)" style="cursor: text;"><rect rx="4" ry="4" x="-5" y="0" height="16" width="55.30537414550781"/><text class="blocklyText" y="12.5">APP ID</text></g><text class="blocklyText" y="12.5" transform="translate(10,80)">App Key (msb)</text><g class="blocklyEditableText" transform="translate(115.65899658203125,80)" style="cursor: text;"><rect rx="4" ry="4" x="-5" y="0" height="16" width="68.03699493408203"/><text class="blocklyText" y="12.5">APP KEY</text></g><text class="blocklyText" y="12.5" transform="translate(10,105)">Intervall in Minuten</text><g class="blocklyEditableText" transform="translate(143.9220199584961,105)" style="cursor: text;"><rect rx="4" ry="4" x="-5" y="0" height="16" width="18.2347412109375"/><text class="blocklyText" y="12.5">5</text></g></g><g class="blocklyDraggable" transform="translate(21,181)"><path class="blocklyPathDark" transform="translate(1,1)" fill="#3c853c" d="m 0,8 A 8,8 0 0,1 8,0 H 15 l 6,4 3,0 6,-4 H 212.74700927734375 v 10 H 212.74700927734375 l -6,4 -3,0 -6,-4 h -7 a 8,8 0 0,0 -8,8 v 71 a 8,8 0 0,0 8,8 H 212.74700927734375 v 10 H 29.5 l -6,4 -3,0 -6,-4 H 8 a 8,8 0 0,1 -8,-8 z&#10;"/><path class="blocklyPath" fill="#4ba64b" d="m 0,8 A 8,8 0 0,1 8,0 H 15 l 6,4 3,0 6,-4 H 212.74700927734375 v 10 H 212.74700927734375 l -6,4 -3,0 -6,-4 h -7 a 8,8 0 0,0 -8,8 v 71 a 8,8 0 0,0 8,8 H 212.74700927734375 v 10 H 29.5 l -6,4 -3,0 -6,-4 H 8 a 8,8 0 0,1 -8,-8 z&#10;"/><path class="blocklyPathLight" stroke="#81c181" d="m 0.5,7.5 A 7.5,7.5 0 0,1 8,0.5 H 15 l 6,4 3,0 6,-4 H 212.24700927734375 M 212.24700927734375,0.5 M 184.7366016372581,95.01040764008566 a 8.5,8.5 0 0,0 6.0104076400856545,2.4895923599143455 H 212.24700927734375 M 2.6966991411008934,104.3033008588991 A 7.5,7.5 0 0,1 0.5,99 V 8&#10;"/><text class="blocklyText" y="12.5" transform="translate(10,15)">Sende als Lora Nachricht</text><g class="blocklyDraggable" transform="translate(183.74700927734375,11)"><path class="blocklyPathDark" transform="translate(1,1)" fill="#3c853c" d="m 0,8 A 8,8 0 0,1 8,0 H 15 l 6,4 3,0 6,-4 H 40 H 733.2856750488281 v 83 H 29.5 l -6,4 -3,0 -6,-4 H 8 a 8,8 0 0,1 -8,-8 z&#10;M 658.8610534667969,5 h -572.7617874145508 v 5 c 0,10 -8,-8 -8,7.5 s 8,-2.5 8,7.5 v 54 h 572.7617874145508 z"/><path class="blocklyPath" fill="#4ba64b" d="m 0,8 A 8,8 0 0,1 8,0 H 15 l 6,4 3,0 6,-4 H 40 H 733.2856750488281 v 83 H 29.5 l -6,4 -3,0 -6,-4 H 8 a 8,8 0 0,1 -8,-8 z&#10;M 658.8610534667969,5 h -572.7617874145508 v 5 c 0,10 -8,-8 -8,7.5 s 8,-2.5 8,7.5 v 54 h 572.7617874145508 z"/><path class="blocklyPathLight" stroke="#81c181" d="m 0.5,7.5 A 7.5,7.5 0 0,1 8,0.5 H 15 l 6,4 3,0 6,-4 H 39.5 M 39.5,0.5 H 732.7856750488281 M 2.6966991411008934,80.3033008588991 A 7.5,7.5 0 0,1 0.5,75 V 8&#10;M 659.3610534667969,5.5 v 74 h -572.7617874145508 M 80.9992660522461,24.3 l 3.68,-2.1"/><text class="blocklyText" y="12.5" transform="translate(10,10)">Messung</text><text class="blocklyText" y="12.5" transform="translate(668.8610534667969,10)">Bytes</text><g class="blocklyEditableText" transform="translate(715.0509338378906,10)" style="cursor: text;"><rect rx="4" ry="4" x="-5" y="0" height="16" width="18.2347412109375"/><text class="blocklyText" y="12.5">2</text></g><g class="blocklyDraggable" transform="translate(87.0992660522461,6)"><path class="blocklyPathDark" transform="translate(1,1)" fill="#3c4885" d="m 0,0 H 20 H 570.7617874145508 v 72 H 0 V 20 c 0,-10 -8,8 -8,-7.5 s 8,2.5 8,-7.5 z&#10;M 467.24158477783203,5 h -451.24158477783203 v 5 c 0,10 -8,-8 -8,7.5 s 8,-2.5 8,7.5 v 43 h 451.24158477783203 z M 560.7617874145508,5 h -46.7042236328125 v 5 c 0,10 -8,-8 -8,7.5 s 8,-2.5 8,7.5 v 7 h 46.7042236328125 z"/><path class="blocklyPath" fill="#4b5aa6" d="m 0,0 H 20 H 570.7617874145508 v 72 H 0 V 20 c 0,-10 -8,8 -8,-7.5 s 8,2.5 8,-7.5 z&#10;M 467.24158477783203,5 h -451.24158477783203 v 5 c 0,10 -8,-8 -8,7.5 s 8,-2.5 8,7.5 v 43 h 451.24158477783203 z M 560.7617874145508,5 h -46.7042236328125 v 5 c 0,10 -8,-8 -8,7.5 s 8,-2.5 8,7.5 v 7 h 46.7042236328125 z"/><path class="blocklyPathLight" stroke="#818cc1" d="m 0.5,0.5 H 19.5 M 19.5,0.5 H 570.2617874145508 M 0.5,71.5 V 18.5 m -7.36,-0.5 q -1.52,-5.5 0,-11 m 7.36,1 V 0.5 H 1&#10;M 467.74158477783203,5.5 v 63 h -451.24158477783203 M 10.9,24.3 l 3.68,-2.1 M 561.2617874145508,5.5 v 27 h -46.7042236328125 M 508.95756378173826,24.3 l 3.68,-2.1"/><g class="blocklyEditableText" transform="translate(477.24158477783203,10)" style="cursor: default;"><rect rx="4" ry="4" x="-5" y="0" height="16" width="30.81597900390625"/><text class="blocklyText" y="12.5">×<tspan style="fill: rgb(75, 90, 166);"> ▾</tspan></text></g><g class="blocklyDraggable" transform="translate(17,6)"><path class="blocklyPathDark" transform="translate(1,1)" fill="#3c4885" d="m 0,0 H 20 H 449.24158477783203 v 61 H 0 V 20 c 0,-10 -8,8 -8,-7.5 s 8,2.5 8,-7.5 z&#10;M 353.4620361328125,5 h -337.4620361328125 v 5 c 0,10 -8,-8 -8,7.5 s 8,-2.5 8,7.5 v 32 h 337.4620361328125 z M 439.24158477783203,5 h -38.469482421875 v 5 c 0,10 -8,-8 -8,7.5 s 8,-2.5 8,7.5 v 7 h 38.469482421875 z"/><path class="blocklyPath" fill="#4b5aa6" d="m 0,0 H 20 H 449.24158477783203 v 61 H 0 V 20 c 0,-10 -8,8 -8,-7.5 s 8,2.5 8,-7.5 z&#10;M 353.4620361328125,5 h -337.4620361328125 v 5 c 0,10 -8,-8 -8,7.5 s 8,-2.5 8,7.5 v 32 h 337.4620361328125 z M 439.24158477783203,5 h -38.469482421875 v 5 c 0,10 -8,-8 -8,7.5 s 8,-2.5 8,7.5 v 7 h 38.469482421875 z"/><path class="blocklyPathLight" stroke="#818cc1" d="m 0.5,0.5 H 19.5 M 19.5,0.5 H 448.74158477783203 M 0.5,60.5 V 18.5 m -7.36,-0.5 q -1.52,-5.5 0,-11 m 7.36,1 V 0.5 H 1&#10;M 353.9620361328125,5.5 v 52 h -337.4620361328125 M 10.9,24.3 l 3.68,-2.1 M 439.74158477783203,5.5 v 27 h -38.469482421875 M 395.672102355957,24.3 l 3.68,-2.1"/><g class="blocklyEditableText" transform="translate(363.4620361328125,10)" style="cursor: default;"><rect rx="4" ry="4" x="-5" y="0" height="16" width="31.31006622314453"/><text class="blocklyText" y="12.5">+<tspan style="fill: rgb(75, 90, 166);"> ▾</tspan></text></g><g class="blocklyDraggable" transform="translate(17,6)"><path class="blocklyPathDark" transform="translate(1,1)" fill="#3c853c" d="m 0,0 H 335.4620361328125 v 25 v 25 H 0 V 20 c 0,-10 -8,8 -8,-7.5 s 8,2.5 8,-7.5 z&#10;"/><path class="blocklyPath" fill="#4ba64b" d="m 0,0 H 335.4620361328125 v 25 v 25 H 0 V 20 c 0,-10 -8,8 -8,-7.5 s 8,2.5 8,-7.5 z&#10;"/><path class="blocklyPathLight" stroke="#81c181" d="m 0.5,0.5 H 334.9620361328125 M 334.9620361328125,0.5 M 334.9620361328125,25.5 M 0.5,49.5 V 18.5 m -7.36,-0.5 q -1.52,-5.5 0,-11 m 7.36,1 V 0.5 H 1&#10;"/><text class="blocklyText" y="12.5" transform="translate(10,5)">Temperatur-/Luftfeuchtigkeitssensor (HDC1080)</text><text class="blocklyText" y="12.5" transform="translate(125.23247528076172,30)">Messwert:</text><g class="blocklyEditableText" transform="translate(203.38028717041016,30)" style="cursor: default;"><rect rx="4" ry="4" x="-5" y="0" height="16" width="132.08174896240234"/><text class="blocklyText" y="12.5">Temperatur in °C<tspan style="fill: rgb(75, 166, 75);"> ▾</tspan></text></g></g><g class="blocklyDraggable" transform="translate(401.77210235595703,6)"><path class="blocklyPathDark" transform="translate(1,1)" fill="#3c4885" d="m 0,0 H 36.469482421875 v 25 H 0 V 20 c 0,-10 -8,8 -8,-7.5 s 8,2.5 8,-7.5 z&#10;"/><path class="blocklyPath" fill="#4b5aa6" d="m 0,0 H 36.469482421875 v 25 H 0 V 20 c 0,-10 -8,8 -8,-7.5 s 8,2.5 8,-7.5 z&#10;"/><path class="blocklyPathLight" stroke="#818cc1" d="m 0.5,0.5 H 35.969482421875 M 35.969482421875,0.5 M 0.5,24.5 V 18.5 m -7.36,-0.5 q -1.52,-5.5 0,-11 m 7.36,1 V 0.5 H 1&#10;"/><g class="blocklyEditableText" transform="translate(10,5)" style="cursor: text;"><rect rx="4" ry="4" x="-5" y="0" height="16" width="26.469482421875"/><text class="blocklyText" y="12.5">18</text></g></g></g><g class="blocklyDraggable" transform="translate(515.0575637817383,6)"><path class="blocklyPathDark" transform="translate(1,1)" fill="#3c4885" d="m 0,0 H 44.7042236328125 v 25 H 0 V 20 c 0,-10 -8,8 -8,-7.5 s 8,2.5 8,-7.5 z&#10;"/><path class="blocklyPath" fill="#4b5aa6" d="m 0,0 H 44.7042236328125 v 25 H 0 V 20 c 0,-10 -8,8 -8,-7.5 s 8,2.5 8,-7.5 z&#10;"/><path class="blocklyPathLight" stroke="#818cc1" d="m 0.5,0.5 H 44.2042236328125 M 44.2042236328125,0.5 M 0.5,24.5 V 18.5 m -7.36,-0.5 q -1.52,-5.5 0,-11 m 7.36,1 V 0.5 H 1&#10;"/><g class="blocklyEditableText" transform="translate(10,5)" style="cursor: text;"><rect rx="4" ry="4" x="-5" y="0" height="16" width="34.7042236328125"/><text class="blocklyText" y="12.5">771</text></g></g></g></g></g></g></g></svg>