<?xml version="1.0" encoding="utf-8"?>
<svg viewBox="0 0 277.385 79.369" xmlns="http://www.w3.org/2000/svg">
  <g xmlns="http://www.w3.org/2000/svg" class="blocklyBlockCanvas" transform="matrix(0.9999999999999999, 0, 0, 0.9999999999999999, -174.8532257080078, -52.33085250854492)">
    <g class="blocklyCursor">
      <g width="100" height="5">
        <rect width="100" height="5" style="display: none"/>
        <rect class="blocklyVerticalMarker" rx="10" ry="10" style="display: none; fill: rgba(255, 255, 255, 0.5); pointer-events: none; stroke-width: 3px;"/>
        <path transform="" style="display: none"/>
        <path transform="" style="display: none" fill="none" stroke-width="4"/>
      </g>
    </g>
    <g data-id="QWW|$jB8+*EL;}|#uA" class="blocklyDraggable" transform="translate(49, 65)" style="cursor: grabbing;">
      <g transform="translate(10,5)">
        <text class="blocklyText" x="0" y="14" style="white-space: pre; cursor: grabbing; fill: rgb(255, 255, 255); font-family: sans-serif; font-size: 14.6667px; font-weight: 400; line-height: normal; perspective-origin: 24.0312px 8.5px;">Setup()</text>
      </g>
      <g transform="translate(10,55)"/>
    </g>
    <g data-id="khp:4QF(($bY6UhfFT3|" class="blocklyDraggable" transform="matrix(1, 0, 0, 1, 186.917099, 63.834206)" style="cursor: grabbing;">
      <path class="blocklyPathDark" transform="translate(1,1)" fill="#498449" d=" m 8,0 h 244 v 5 H 252 V 5 H 252 V 22 H 252 V 32 H 252 V 49 H 252 V 49 V 53 h -244 H 8 V 20 c 0,-10 -8,8 -8,-7.5 s 8,2.5 8,-7.5 z " style="cursor: grabbing; display: flex;"/>
      <path class="blocklyPath" stroke="none" fill="#5ba55b" d=" m 8,0 h 244 v 5 H 252 V 5 H 252 V 22 H 252 V 32 H 252 V 49 H 252 V 49 V 53 h -244 H 8 V 20 c 0,-10 -8,8 -8,-7.5 s 8,2.5 8,-7.5 z " style="cursor: grabbing;"/>
      <path class="blocklyPathLight" stroke="#8cc08c" d=" m 8,0 m 0.5,0.5 H 251.5 H 251.5 M 8.5,52.5 M 8.5,52.5 V 20 v -1.5 m -7.36,-0.5 q -1.52,-5.5 0,-11 m 7.36,1 V 0.5 " style="cursor: grabbing; display: flex; fill: none; stroke-linecap: round;"/>
      <g transform="translate(18,5)">
        <text class="blocklyText" x="0" y="14" style="white-space: pre; cursor: grabbing; fill: rgb(255, 255, 255); font-family: sans-serif; font-size: 14.6667px; font-weight: 400; line-height: normal; perspective-origin: 111.641px 8.5px;">Feinstaubsensor Sensirion SPS30</text>
      </g>
      <g transform="translate(18,32)">
        <text class="blocklyText" x="0" y="14" style="white-space: pre; cursor: grabbing; fill: rgb(255, 255, 255); font-family: sans-serif; font-size: 14.6667px; font-weight: 400; line-height: normal; perspective-origin: 33.3906px 8.5px;">Messwert:</text>
      </g>
      <g class="blocklyEditableText" style="cursor: default;" transform="translate(90,32)">
        <rect rx="4" ry="4" x="0" y="0" height="17" width="67.5999984741211" class="blocklyFieldRect blocklyDropdownRect" stroke="#8cc08c" fill="transparent" style="fill: rgb(255, 255, 255); fill-opacity: 0.6; stroke: none;"/>
        <text class="blocklyText blocklyDropdownText" text-anchor="start" x="5" y="14" style="white-space: pre; font-family: sans-serif; font-size: 14.6667px; font-weight: 400; line-height: normal; perspective-origin: 31.8438px 8.5px;">PM1.0<tspan style="fill: rgb(91, 165, 91);"> ▾</tspan></text>
        <image style="display: none;"/>
      </g>
      <g transform="translate(162.5999984741211,32)">
        <text class="blocklyText" x="0" y="14" style="white-space: pre; cursor: grabbing; fill: rgb(255, 255, 255); font-family: sans-serif; font-size: 14.6667px; font-weight: 400; line-height: normal; perspective-origin: 26.625px 8.5px;">in µg/m³</text>
      </g>
    </g>
  </g>
</svg>