<?xml version="1.0" encoding="utf-8"?>
<svg viewBox="0 0 188.312 168.831" xmlns="http://www.w3.org/2000/svg">
  <g xmlns="http://www.w3.org/2000/svg" class="blocklyBlockCanvas" transform="matrix(1, 0, 0, 1, -54.58991241455078, -83.58441925048828)">
    <g transform="translate(57, 85)">
      <path class="blocklyPathDark" transform="translate(1,1)" fill="#498449" d=" m 0,0 m 0,8 a 8 8 0 0,1 8,-8 h 7 l 6,4 3,0 6,-4 h 144 v 5 H 174 V 5 H 174 V 22 H 174 V 32 H 174 V 49 H 174 V 59 H 174 V 76 H 174 V 86 H 174 V 103 H 174 V 113 H 174 V 130 H 174 V 140 H 174 c 0,10 -8,-8 -8,7.5 s 8,-2.5 8,7.5 v 2 H 174 V 157 V 161 h -144.5 l -6,4 -3,0 -6,-4 h -6.5 a 8 8 0 0,1 -8,-8 z " style="display: flex;"/>
      <path class="blocklyPath" stroke="none" fill="#5ba55b" d=" m 0,0 m 0,8 a 8 8 0 0,1 8,-8 h 7 l 6,4 3,0 6,-4 h 144 v 5 H 174 V 5 H 174 V 22 H 174 V 32 H 174 V 49 H 174 V 59 H 174 V 76 H 174 V 86 H 174 V 103 H 174 V 113 H 174 V 130 H 174 V 140 H 174 c 0,10 -8,-8 -8,7.5 s 8,-2.5 8,7.5 v 2 H 174 V 157 V 161 h -144.5 l -6,4 -3,0 -6,-4 h -6.5 a 8 8 0 0,1 -8,-8 z "/>
      <path class="blocklyPathLight" stroke="#8cc08c" d=" m 0,0 m 0.5,8 a 7.5 7.5 0 0,1 8,-7.5 H 14.5 h 0.5 l 6,4 3,0 6,-4 H 173.5 H 173.5 M 174,140 m -5,14.3 l 3.68,-2.1 M 0,161 m 2.6966991411008934,-2.6966991411008934 a 7.5 7.5 0 0,1 -2.1966991411008934,-5.303300858899107 V 8 " style="display: flex; fill: none; stroke-linecap: round;"/>
      <g transform="translate(37,5)">
        <text class="blocklyText" x="0" y="14" style="white-space: pre; fill: rgb(255, 255, 255); font-family: sans-serif; font-size: 14.6667px; font-weight: 400; line-height: normal; perspective-origin: 60.5781px 8.5px;">Schreibe Text/Zahl</text>
      </g>
      <g transform="translate(10,32)">
        <text class="blocklyText" x="0" y="14" style="white-space: pre; fill: rgb(255, 255, 255); font-family: sans-serif; font-size: 14.6667px; font-weight: 400; line-height: normal; perspective-origin: 37.4844px 8.5px;">Schriftfarbe</text>
      </g>
      <g class="blocklyEditableText" style="cursor: default;" transform="translate(90,32)">
        <rect rx="4" ry="4" x="0" y="0" height="17" width="61.599998474121094" class="blocklyFieldRect blocklyDropdownRect" stroke="#8cc08c" fill="transparent" style="fill: rgb(255, 255, 255); fill-opacity: 0.6; stroke: none;"/>
        <text class="blocklyText blocklyDropdownText" text-anchor="start" x="5" y="14" style="white-space: pre; font-family: sans-serif; font-size: 14.6667px; font-weight: 400; line-height: normal; perspective-origin: 27.625px 8.5px;">Weiß<tspan style="fill: rgb(91, 165, 91);"> ▾</tspan></text>
        <image style="display: none;"/>
      </g>
      <g transform="translate(10,59)">
        <text class="blocklyText" x="0" y="14" style="white-space: pre; fill: rgb(255, 255, 255); font-family: sans-serif; font-size: 14.6667px; font-weight: 400; line-height: normal; perspective-origin: 39.9219px 8.5px;">Schriftgröße</text>
      </g>
      <g class="blocklyEditableText" style="cursor: text;" transform="translate(95,59)">
        <rect rx="4" ry="4" x="0" y="0" height="17" width="18" class="blocklyFieldRect" style="fill: rgb(255, 255, 255); fill-opacity: 0.6;"/>
        <text class="blocklyText" x="5" y="14" style="white-space: pre; font-family: sans-serif; font-size: 14.6667px; font-weight: 400; line-height: normal; perspective-origin: 6.57812px 8.5px;">1</text>
      </g>
      <g transform="translate(10,86)">
        <text class="blocklyText" x="0" y="14" style="white-space: pre; fill: rgb(255, 255, 255); font-family: sans-serif; font-size: 14.6667px; font-weight: 400; line-height: normal; perspective-origin: 41.5625px 8.5px;">x-Koordinate</text>
      </g>
      <g class="blocklyEditableText" style="cursor: text;" transform="translate(97,86)">
        <rect rx="4" ry="4" x="0" y="0" height="17" width="18" class="blocklyFieldRect" style="fill: rgb(255, 255, 255); fill-opacity: 0.6;"/>
        <text class="blocklyText" x="5" y="14" style="white-space: pre; font-family: sans-serif; font-size: 14.6667px; font-weight: 400; line-height: normal; perspective-origin: 6.57812px 8.5px;">0</text>
      </g>
      <g transform="translate(10,113)">
        <text class="blocklyText" x="0" y="14" style="white-space: pre; fill: rgb(255, 255, 255); font-family: sans-serif; font-size: 14.6667px; font-weight: 400; line-height: normal; perspective-origin: 41.5625px 8.5px;">y-Koordinate</text>
      </g>
      <g class="blocklyEditableText" style="cursor: text;" transform="translate(97,113)">
        <rect rx="4" ry="4" x="0" y="0" height="17" width="18" class="blocklyFieldRect" style="fill: rgb(255, 255, 255); fill-opacity: 0.6;"/>
        <text class="blocklyText" x="5" y="14" style="white-space: pre; font-family: sans-serif; font-size: 14.6667px; font-weight: 400; line-height: normal; perspective-origin: 6.57812px 8.5px;">0</text>
      </g>
      <g transform="translate(10,140)">
        <text class="blocklyText" x="0" y="14" style="white-space: pre; fill: rgb(255, 255, 255); font-family: sans-serif; font-size: 14.6667px; font-weight: 400; line-height: normal; perspective-origin: 15.3438px 8.5px;">Wert</text>
      </g>
      <g class="blocklyIconGroup" display="block" transform="translate(10,5)" style="opacity: 0.6;">
        <path class="blocklyIconShape" d="M2,15Q-1,15 0.5,12L6.5,1.7Q8,-1 9.5,1.7L15.5,12Q17,15 14,15z" style="fill: rgb(0, 0, 255); stroke: rgb(255, 255, 255);"/>
        <path class="blocklyIconSymbol" d="m7,4.8v3.16l0.27,2.27h1.46l0.27,-2.27v-3.16z" style="fill: rgb(255, 255, 255);"/>
        <rect class="blocklyIconSymbol" x="7" y="11" height="2" width="2" style="fill: rgb(255, 255, 255);"/>
      </g>
    </g>
  </g>
</svg>