<svg viewBox="0 0 232 366" xmlns="http://www.w3.org/2000/svg" style="max-height: 500px" width="232" height="366">
  <g transform="matrix(1, 0, 0, 1, -328.410004, 261.509003)" class="blocklyBlockCanvas" xmlns="http://www.w3.org/2000/svg">
    <g class="blocklyCursor">
      <g height="5" width="100">
        <rect style="display: none;" height="5" width="100">
          
        </rect>
        <rect style="display: none; fill: rgba(255, 255, 255, 0.5); pointer-events: none; stroke-width: 3px;" ry="10" rx="10" class="blocklyVerticalMarker"/>
        <path style="display: none;" transform="">
          
        </path>
        <path style="display: none;" stroke-width="4" fill="none" transform="">
          
        </path>
      </g>
    </g>
    <g transform="matrix(1, 0, 0, 1, 127.621002, -16.685301)" class="blocklyBlockCanvas" xmlns="http://www.w3.org/2000/svg">
      <g class="blocklyCursor">
        <g height="5" width="100">
          <rect style="display: none;" height="5" width="100">
            
          </rect>
          <rect style="display: none; fill: rgba(255, 255, 255, 0.5); pointer-events: none; stroke-width: 3px;" ry="10" rx="10" class="blocklyVerticalMarker"/>
          <path style="display: none;" transform="">
            
          </path>
          <path style="display: none;" stroke-width="4" fill="none" transform="">
            
          </path>
        </g>
      </g>
    </g>
  </g>
  <g transform="matrix(1, 0, 0, 1, 9.68773, 101.989998)" class="blocklyBlockCanvas" xmlns="http://www.w3.org/2000/svg">
    <g class="blocklyCursor">
      <g height="5" width="100">
        <rect style="display: none;" height="5" width="100">
          
        </rect>
        <rect style="display: none; fill: rgba(255, 255, 255, 0.5); pointer-events: none; stroke-width: 3px;" ry="10" rx="10" class="blocklyVerticalMarker"/>
        <path style="display: none;" transform="">
          
        </path>
        <path style="display: none;" stroke-width="4" fill="none" transform="">
          
        </path>
      </g>
    </g>
    <g transform="matrix(1, 0, 0, 1, -16.1166, 15.2728)" class="blocklyBlockCanvas" xmlns="http://www.w3.org/2000/svg">
      <g class="blocklyCursor">
        <g height="5" width="100">
          <rect style="display: none;" height="5" width="100">
            
          </rect>
          <rect style="display: none; fill: rgba(255, 255, 255, 0.5); pointer-events: none; stroke-width: 3px;" ry="10" rx="10" class="blocklyVerticalMarker"/>
          <path style="display: none;" transform="">
            
          </path>
          <path style="display: none;" stroke-width="4" fill="none" transform="">
            
          </path>
        </g>
      </g>
      <g transform="matrix(1, 0, 0, 1, -264.356995, 182.401001)" class="blocklyBlockCanvas" xmlns="http://www.w3.org/2000/svg">
        <g class="blocklyCursor">
          <g height="5" width="100">
            <rect style="display: none;" height="5" width="100">
              
            </rect>
            <rect style="display: none; fill: rgba(255, 255, 255, 0.5); pointer-events: none; stroke-width: 3px;" ry="10" rx="10" class="blocklyVerticalMarker"/>
            <path style="display: none;" transform="">
              
            </path>
            <path style="display: none;" stroke-width="4" fill="none" transform="">
              
            </path>
          </g>
        </g>
        <g transform="matrix(1, 0, 0, 1, 292.515015, -195.059006)" class="blocklyBlockCanvas" xmlns="http://www.w3.org/2000/svg">
          <g class="blocklyCursor">
            <g height="5" width="100">
              <rect style="display: none;" height="5" width="100">
                
              </rect>
              <rect style="display: none; fill: rgba(255, 255, 255, 0.5); pointer-events: none; stroke-width: 3px;" ry="10" rx="10" class="blocklyVerticalMarker"/>
              <path style="display: none;" transform="">
                
              </path>
              <path style="display: none;" stroke-width="4" fill="none" transform="">
                
              </path>
            </g>
          </g>
          <g transform="matrix(1, 0, 0, 1, 2.4944, 23.2854)" class="blocklyBlockCanvas" xmlns="http://www.w3.org/2000/svg">
            <g class="blocklyCursor">
              <g height="5" width="100">
                <rect style="display: none;" height="5" width="100">
                  
                </rect>
                <rect style="display: none; fill: rgba(255, 255, 255, 0.5); pointer-events: none; stroke-width: 3px;" ry="10" rx="10" class="blocklyVerticalMarker"/>
                <path style="display: none;" transform="">
                  
                </path>
                <path style="display: none;" stroke-width="4" fill="none" transform="">
                  
                </path>
              </g>
            </g>
            <g transform="matrix(1, 0, 0, 1, -101.088997, -231.171005)" class="blocklyBlockCanvas" xmlns="http://www.w3.org/2000/svg">
              <g class="blocklyCursor">
                <g height="5" width="100">
                  <rect style="display: none;" height="5" width="100">
                    
                  </rect>
                  <rect style="display: none; fill: rgba(255, 255, 255, 0.5); pointer-events: none; stroke-width: 3px;" ry="10" rx="10" class="blocklyVerticalMarker"/>
                  <path style="display: none;" transform="">
                    
                  </path>
                  <path style="display: none;" stroke-width="4" fill="none" transform="">
                    
                  </path>
                </g>
              </g>
              <g style="cursor: grab;" transform="translate(59, -79)" class="blocklyDraggable" data-id="QWW|$jB8+*EL;}|#uA">
                <path style="width: 155.767px; block-size: 112px; cursor: grab; display: flex; height: 112px; inline-size: 155.767px;" d="m 0,0 m 0,8 a 8 8 0 0,1 8,-8 h 147.75 v 5 H 155.75 V 5 H 155.75 V 23 H 155.75 V 27 H 50 l -6,4 -3,0 -6,-4 h -7 a 8 8 0 0,0 -8,8 v 8 a 8 8 0 0,0 8,8 H 155.75 H 155.75 V 56 H 155.75 V 74 H 155.75 V 78 H 50 l -6,4 -3,0 -6,-4 h -7 a 8 8 0 0,0 -8,8 v 8 a 8 8 0 0,0 8,8 H 155.75 H 155.75 V 102 V 112 h -147.75 a 8 8 0 0,1 -8,-8 z" fill="#7a4984" transform="translate(1,1)" class="blocklyPathDark"/>
                <path style="cursor: grab;" d="m 0,0 m 0,8 a 8 8 0 0,1 8,-8 h 147.75 v 5 H 155.75 V 5 H 155.75 V 23 H 155.75 V 27 H 50 l -6,4 -3,0 -6,-4 h -7 a 8 8 0 0,0 -8,8 v 8 a 8 8 0 0,0 8,8 H 155.75 H 155.75 V 56 H 155.75 V 74 H 155.75 V 78 H 50 l -6,4 -3,0 -6,-4 h -7 a 8 8 0 0,0 -8,8 v 8 a 8 8 0 0,0 8,8 H 155.75 H 155.75 V 102 V 112 h -147.75 a 8 8 0 0,1 -8,-8 z" fill="#995ba5" stroke="none" class="blocklyPath"/>
                <path style="width: 159.25px; block-size: 116px; cursor: grab; display: flex; fill: none; height: 116px; inline-size: 159.25px; stroke-linecap: round;" d="m 0,0 m 0.5,8 a 7.5 7.5 0 0,1 8,-7.5 H 155.25 H 155.25 M 20,51 m 1.9895923599143455,-1.9895923599143455 a 8.5 8.5 0 0,0 6.0104076400856545,2.4895923599143455 l 127.25,0 H 155.25 M 20,102 m 1.9895923599143455,-1.9895923599143455 a 8.5 8.5 0 0,0 6.0104076400856545,2.4895923599143455 l 127.25,0 H 155.25 M 0,112 m 2.6966991411008934,-2.6966991411008934 a 7.5 7.5 0 0,1 -2.1966991411008934,-5.303300858899107 V 8" stroke="#b88cc0" class="blocklyPathLight"/>
                <g transform="translate(10,5)">
                  <text style="white-space: pre; cursor: grab; fill: rgb(255, 255, 255); font-family: sans-serif; font-size: 14.6667px; line-height: normal;" y="14" x="0" class="blocklyText">Arduino run first:</text>
                </g>
                <g transform="translate(10,56)">
                  <text style="white-space: pre; cursor: grab; fill: rgb(255, 255, 255); font-family: sans-serif; font-size: 14.6667px; line-height: normal;" y="14" x="0" class="blocklyText">Arduino loop forever:</text>
                </g>
              </g>
              <g style="cursor: grab;" transform="translate(78, 104)" class="blocklyDraggable" data-id="OqzRje=FPAq]-KkAv-0u">
                <path style="width: 168.767px; block-size: 143px; cursor: grab; display: flex; height: 143px; inline-size: 168.767px;" d="m 0,0 m 0,8 a 8 8 0 0,1 8,-8 h 7 l 6,4 3,0 6,-4 h 138.74999809265137 v 5 H 168.74999809265137 V 5 H 168.74999809265137 V 23 H 168.74999809265137 V 33 H 168.74999809265137 V 51 H 168.74999809265137 V 61 H 168.74999809265137 c 0,10 -8,-8 -8,7.5 s 8,-2.5 8,7.5 v 3 H 168.74999809265137 V 89 H 168.74999809265137 c 0,10 -8,-8 -8,7.5 s 8,-2.5 8,7.5 v 3 H 168.74999809265137 V 117 H 168.74999809265137 c 0,10 -8,-8 -8,7.5 s 8,-2.5 8,7.5 v 3 H 168.74999809265137 V 135 V 139 h -139.24999809265137 l -6,4 -3,0 -6,-4 h -14.5 H 0 z" fill="#498449" transform="translate(1,1)" class="blocklyPathDark"/>
                <path style="cursor: grab;" d="m 0,0 m 0,8 a 8 8 0 0,1 8,-8 h 7 l 6,4 3,0 6,-4 h 138.74999809265137 v 5 H 168.74999809265137 V 5 H 168.74999809265137 V 23 H 168.74999809265137 V 33 H 168.74999809265137 V 51 H 168.74999809265137 V 61 H 168.74999809265137 c 0,10 -8,-8 -8,7.5 s 8,-2.5 8,7.5 v 3 H 168.74999809265137 V 89 H 168.74999809265137 c 0,10 -8,-8 -8,7.5 s 8,-2.5 8,7.5 v 3 H 168.74999809265137 V 117 H 168.74999809265137 c 0,10 -8,-8 -8,7.5 s 8,-2.5 8,7.5 v 3 H 168.74999809265137 V 135 V 139 h -139.24999809265137 l -6,4 -3,0 -6,-4 h -14.5 H 0 z" fill="#5ba55b" stroke="none" class="blocklyPath"/>
                <path style="width: 172.75px; block-size: 142.5px; cursor: grab; display: flex; fill: none; height: 142.5px; inline-size: 172.75px; stroke-linecap: round;" d="m 0,0 m 0.5,8 a 7.5 7.5 0 0,1 8,-7.5 H 14.5 h 0.5 l 6,4 3,0 6,-4 H 168.24999809265137 H 168.24999809265137 M 168.74999809265137,61 m -5,14.3 l 3.68,-2.1 M 168.74999809265137,89 m -5,14.3 l 3.68,-2.1 M 168.74999809265137,117 m -5,14.3 l 3.68,-2.1 M 0.5,138.5 V 8" stroke="#8cc08c" class="blocklyPathLight"/>
                <g transform="translate(161.74999809265137, 56)" class="blocklyDraggable" style="display: block;" data-id="y-`;9c%nAgfnAo65z`6H">
                  <path style="width: 43.1833px; block-size: 27px; cursor: grab; display: flex; height: 27px; inline-size: 43.1833px;" d="m 8,0 h 35.17500019073486 v 5 H 43.17500019073486 V 5 H 43.17500019073486 V 23 H 43.17500019073486 V 23 V 27 h -35.17500019073486 H 8 V 20 c 0,-10 -8,8 -8,-7.5 s 8,2.5 8,-7.5 z" fill="#495284" transform="translate(1,1)" class="blocklyPathDark"/>
                  <path style="cursor: grab;" d="m 8,0 h 35.17500019073486 v 5 H 43.17500019073486 V 5 H 43.17500019073486 V 23 H 43.17500019073486 V 23 V 27 h -35.17500019073486 H 8 V 20 c 0,-10 -8,8 -8,-7.5 s 8,2.5 8,-7.5 z" fill="#5b67a5" stroke="none" class="blocklyPath"/>
                  <path style="width: 46.3167px; block-size: 30.5px; cursor: grab; display: flex; fill: none; height: 30.5px; inline-size: 46.3167px; stroke-linecap: round;" d="m 8,0 m 0.5,0.5 H 42.67500019073486 H 42.67500019073486 M 8.5,26.5 M 8.5,26.5 V 20 v -1.5 m -7.36,-0.5 q -1.52,-5.5 0,-11 m 7.36,1 V 0.5" stroke="#8c95c0" class="blocklyPathLight"/>
                  <g transform="translate(13,5)" style="cursor: text;" class="blocklyEditableText">
                    <rect style="fill: rgb(255, 255, 255); fill-opacity: 0.6;" class="blocklyFieldRect" width="25.175000190734863" height="18" y="0" x="0" ry="4" rx="4"/>
                    <text style="white-space: pre; font-family: sans-serif; font-size: 14.6667px; line-height: normal;" y="14" x="5" class="blocklyText">11</text>
                  </g>
                </g>
                <g transform="translate(161.74999809265137, 84)" class="blocklyDraggable" style="display: block;" data-id="O_DE}QO2Pp[627c9hD=*">
                  <path style="width: 36.1333px; block-size: 27px; cursor: grab; display: flex; height: 27px; inline-size: 36.1333px;" d="m 8,0 h 28.125 v 5 H 36.125 V 5 H 36.125 V 23 H 36.125 V 23 V 27 h -28.125 H 8 V 20 c 0,-10 -8,8 -8,-7.5 s 8,2.5 8,-7.5 z" fill="#495284" transform="translate(1,1)" class="blocklyPathDark"/>
                  <path style="cursor: grab;" d="m 8,0 h 28.125 v 5 H 36.125 V 5 H 36.125 V 23 H 36.125 V 23 V 27 h -28.125 H 8 V 20 c 0,-10 -8,8 -8,-7.5 s 8,2.5 8,-7.5 z" fill="#5b67a5" stroke="none" class="blocklyPath"/>
                  <path style="width: 39.2667px; block-size: 30.5px; cursor: grab; display: flex; fill: none; height: 30.5px; inline-size: 39.2667px; stroke-linecap: round;" d="m 8,0 m 0.5,0.5 H 35.625 H 35.625 M 8.5,26.5 M 8.5,26.5 V 20 v -1.5 m -7.36,-0.5 q -1.52,-5.5 0,-11 m 7.36,1 V 0.5" stroke="#8c95c0" class="blocklyPathLight"/>
                  <g transform="translate(13,5)" style="cursor: text;" class="blocklyEditableText">
                    <rect style="fill: rgb(255, 255, 255); fill-opacity: 0.6;" class="blocklyFieldRect" width="18.125" height="18" y="0" x="0" ry="4" rx="4"/>
                    <text style="white-space: pre; font-family: sans-serif; font-size: 14.6667px; line-height: normal;" y="14" x="5" class="blocklyText">7</text>
                  </g>
                </g>
                <g transform="translate(161.74999809265137, 112)" class="blocklyDraggable" style="display: block;" data-id="yI#=R^$]ogJs/h:*1|g$">
                  <path style="width: 44px; block-size: 25px; cursor: grab; display: flex; height: 25px; inline-size: 44px;" d="m 8,0 h 36 v 5 H 44 V 5 H 44 V 21 H 44 V 21 V 25 h -36 H 8 V 20 c 0,-10 -8,8 -8,-7.5 s 8,2.5 8,-7.5 z" fill="#498449" transform="translate(1,1)" class="blocklyPathDark"/>
                  <path style="cursor: grab;" d="m 8,0 h 36 v 5 H 44 V 5 H 44 V 21 H 44 V 21 V 25 h -36 H 8 V 20 c 0,-10 -8,8 -8,-7.5 s 8,2.5 8,-7.5 z" fill="#5ba55b" stroke="none" class="blocklyPath"/>
                  <path style="width: 47.1333px; block-size: 28.5px; cursor: grab; display: flex; fill: none; height: 28.5px; inline-size: 47.1333px; stroke-linecap: round;" d="m 8,0 m 0.5,0.5 H 43.5 H 43.5 M 8.5,24.5 M 8.5,24.5 V 20 v -1.5 m -7.36,-0.5 q -1.52,-5.5 0,-11 m 7.36,1 V 0.5" stroke="#8cc08c" class="blocklyPathLight"/>
                  <g transform="translate(13,5)" style="cursor: default;" class="blocklyEditableText">
                    <rect stroke="#fff" style="fill-opacity: 1; display: block; fill: rgb(255, 0, 0); width: 26px; block-size: 16px; height: 16px; inline-size: 26px; stroke: none;" class="blocklyFieldRect" width="26" height="16" y="0" x="0" ry="4" rx="4"/>
                  </g>
                </g>
                <g transform="translate(0, 140)" class="blocklyDraggable" data-id="Vliz5lgoD/o](BS)Ug^G">
                  <path style="width: 206.15px; block-size: 42px; cursor: grab; display: flex; height: 42px; inline-size: 206.15px;" d="m 0,0 h 15 l 6,4 3,0 6,-4 h 176.1500015258789 v 5 H 206.1500015258789 V 5 H 206.1500015258789 V 34 H 206.1500015258789 V 34 V 38 h -176.6500015258789 l -6,4 -3,0 -6,-4 h -14.5 H 0 z M 52,5 v 5 c 0,10 -8,-8 -8,7.5 s 8,-2.5 8,7.5 v 9 h 54.5 v -29 z" fill="#49845d" transform="translate(1,1)" class="blocklyPathDark"/>
                  <path style="cursor: grab;" d="m 0,0 h 15 l 6,4 3,0 6,-4 h 176.1500015258789 v 5 H 206.1500015258789 V 5 H 206.1500015258789 V 34 H 206.1500015258789 V 34 V 38 h -176.6500015258789 l -6,4 -3,0 -6,-4 h -14.5 H 0 z M 52,5 v 5 c 0,10 -8,-8 -8,7.5 s 8,-2.5 8,7.5 v 9 h 54.5 v -29 z" fill="#5ba574" stroke="none" class="blocklyPath"/>
                  <path style="width: 209.65px; block-size: 41.5px; cursor: grab; display: flex; fill: none; height: 41.5px; inline-size: 209.65px; stroke-linecap: round;" d="m 0,0 m 0.5,0.5 H 14.5 h 0.5 l 6,4 3,0 6,-4 H 205.6500015258789 H 205.6500015258789 M 0.5,37.5 V 0.5 M 107,5.5 v 29 h -54.5 M 52,10 m -5,14.3 l 3.68,-2.1" stroke="#8cc09e" class="blocklyPathLight"/>
                  <g transform="translate(45, 6)" class="blocklyDraggable" style="display: block;" data-id="tq^Y}k~xR7Uq=Xck8Zr:">
                    <path style="width: 60.5px; block-size: 27px; cursor: grab; display: flex; height: 27px; inline-size: 60.5px;" d="m 8,0 h 52.5 v 5 H 60.5 V 5 H 60.5 V 23 H 60.5 V 23 V 27 h -52.5 H 8 V 20 c 0,-10 -8,8 -8,-7.5 s 8,2.5 8,-7.5 z" fill="#495284" transform="translate(1,1)" class="blocklyPathDark"/>
                    <path style="cursor: grab;" d="m 8,0 h 52.5 v 5 H 60.5 V 5 H 60.5 V 23 H 60.5 V 23 V 27 h -52.5 H 8 V 20 c 0,-10 -8,8 -8,-7.5 s 8,2.5 8,-7.5 z" fill="#5b67a5" stroke="none" class="blocklyPath"/>
                    <path style="width: 63.6333px; block-size: 30.5px; cursor: grab; display: flex; fill: none; height: 30.5px; inline-size: 63.6333px; stroke-linecap: round;" d="m 8,0 m 0.5,0.5 H 60 H 60 M 8.5,26.5 M 8.5,26.5 V 20 v -1.5 m -7.36,-0.5 q -1.52,-5.5 0,-11 m 7.36,1 V 0.5" stroke="#8c95c0" class="blocklyPathLight"/>
                    <g transform="translate(13,5)" style="cursor: text;" class="blocklyEditableText">
                      <rect style="fill: rgb(255, 255, 255); fill-opacity: 0.6;" class="blocklyFieldRect" width="42.5" height="18" y="0" x="0" ry="4" rx="4"/>
                      <text style="white-space: pre; font-family: sans-serif; font-size: 14.6667px; line-height: normal;" y="14" x="5" class="blocklyText">1000</text>
                    </g>
                  </g>
                  <g transform="translate(0, 39)" class="blocklyDraggable" data-id="5%BMKtH|t#s+x?yu+DRw">
                    <path style="width: 168.75px; block-size: 143px; cursor: grab; display: flex; height: 143px; inline-size: 168.75px;" d="m 0,0 h 15 l 6,4 3,0 6,-4 h 138.74999809265137 v 5 H 168.74999809265137 V 5 H 168.74999809265137 V 23 H 168.74999809265137 V 33 H 168.74999809265137 V 51 H 168.74999809265137 V 61 H 168.74999809265137 c 0,10 -8,-8 -8,7.5 s 8,-2.5 8,7.5 v 3 H 168.74999809265137 V 89 H 168.74999809265137 c 0,10 -8,-8 -8,7.5 s 8,-2.5 8,7.5 v 3 H 168.74999809265137 V 117 H 168.74999809265137 c 0,10 -8,-8 -8,7.5 s 8,-2.5 8,7.5 v 3 H 168.74999809265137 V 135 V 139 h -139.24999809265137 l -6,4 -3,0 -6,-4 h -14.5 H 0 z" fill="#498449" transform="translate(1,1)" class="blocklyPathDark"/>
                    <path style="cursor: grab;" d="m 0,0 h 15 l 6,4 3,0 6,-4 h 138.74999809265137 v 5 H 168.74999809265137 V 5 H 168.74999809265137 V 23 H 168.74999809265137 V 33 H 168.74999809265137 V 51 H 168.74999809265137 V 61 H 168.74999809265137 c 0,10 -8,-8 -8,7.5 s 8,-2.5 8,7.5 v 3 H 168.74999809265137 V 89 H 168.74999809265137 c 0,10 -8,-8 -8,7.5 s 8,-2.5 8,7.5 v 3 H 168.74999809265137 V 117 H 168.74999809265137 c 0,10 -8,-8 -8,7.5 s 8,-2.5 8,7.5 v 3 H 168.74999809265137 V 135 V 139 h -139.24999809265137 l -6,4 -3,0 -6,-4 h -14.5 H 0 z" fill="#5ba55b" stroke="none" class="blocklyPath"/>
                    <path style="width: 172.75px; block-size: 142.5px; cursor: grab; display: flex; fill: none; height: 142.5px; inline-size: 172.75px; stroke-linecap: round;" d="m 0,0 m 0.5,0.5 H 14.5 h 0.5 l 6,4 3,0 6,-4 H 168.24999809265137 H 168.24999809265137 M 168.74999809265137,61 m -5,14.3 l 3.68,-2.1 M 168.74999809265137,89 m -5,14.3 l 3.68,-2.1 M 168.74999809265137,117 m -5,14.3 l 3.68,-2.1 M 0.5,138.5 V 0.5" stroke="#8cc08c" class="blocklyPathLight"/>
                    <g transform="translate(161.74999809265137, 56)" class="blocklyDraggable" style="display: block;" data-id="7cmc$8^G_f5sny^cKL^?">
                      <path style="width: 43.1833px; block-size: 27px; cursor: grab; display: flex; height: 27px; inline-size: 43.1833px;" d="m 8,0 h 35.17500019073486 v 5 H 43.17500019073486 V 5 H 43.17500019073486 V 23 H 43.17500019073486 V 23 V 27 h -35.17500019073486 H 8 V 20 c 0,-10 -8,8 -8,-7.5 s 8,2.5 8,-7.5 z" fill="#495284" transform="translate(1,1)" class="blocklyPathDark"/>
                      <path style="cursor: grab;" d="m 8,0 h 35.17500019073486 v 5 H 43.17500019073486 V 5 H 43.17500019073486 V 23 H 43.17500019073486 V 23 V 27 h -35.17500019073486 H 8 V 20 c 0,-10 -8,8 -8,-7.5 s 8,2.5 8,-7.5 z" fill="#5b67a5" stroke="none" class="blocklyPath"/>
                      <path style="width: 46.3167px; block-size: 30.5px; cursor: grab; display: flex; fill: none; height: 30.5px; inline-size: 46.3167px; stroke-linecap: round;" d="m 8,0 m 0.5,0.5 H 42.67500019073486 H 42.67500019073486 M 8.5,26.5 M 8.5,26.5 V 20 v -1.5 m -7.36,-0.5 q -1.52,-5.5 0,-11 m 7.36,1 V 0.5" stroke="#8c95c0" class="blocklyPathLight"/>
                      <g transform="translate(13,5)" style="cursor: text;" class="blocklyEditableText">
                        <rect style="fill: rgb(255, 255, 255); fill-opacity: 0.6;" class="blocklyFieldRect" width="25.175000190734863" height="18" y="0" x="0" ry="4" rx="4"/>
                        <text style="white-space: pre; font-family: sans-serif; font-size: 14.6667px; line-height: normal;" y="14" x="5" class="blocklyText">11</text>
                      </g>
                    </g>
                    <g transform="translate(161.74999809265137, 84)" class="blocklyDraggable" style="display: block;" data-id="@5Y-7K{Q)iS_S,x}PZ?l">
                      <path style="width: 36.1333px; block-size: 27px; cursor: grab; display: flex; height: 27px; inline-size: 36.1333px;" d="m 8,0 h 28.125 v 5 H 36.125 V 5 H 36.125 V 23 H 36.125 V 23 V 27 h -28.125 H 8 V 20 c 0,-10 -8,8 -8,-7.5 s 8,2.5 8,-7.5 z" fill="#495284" transform="translate(1,1)" class="blocklyPathDark"/>
                      <path style="cursor: grab;" d="m 8,0 h 28.125 v 5 H 36.125 V 5 H 36.125 V 23 H 36.125 V 23 V 27 h -28.125 H 8 V 20 c 0,-10 -8,8 -8,-7.5 s 8,2.5 8,-7.5 z" fill="#5b67a5" stroke="none" class="blocklyPath"/>
                      <path style="width: 39.2667px; block-size: 30.5px; cursor: grab; display: flex; fill: none; height: 30.5px; inline-size: 39.2667px; stroke-linecap: round;" d="m 8,0 m 0.5,0.5 H 35.625 H 35.625 M 8.5,26.5 M 8.5,26.5 V 20 v -1.5 m -7.36,-0.5 q -1.52,-5.5 0,-11 m 7.36,1 V 0.5" stroke="#8c95c0" class="blocklyPathLight"/>
                      <g transform="translate(13,5)" style="cursor: text;" class="blocklyEditableText">
                        <rect style="fill: rgb(255, 255, 255); fill-opacity: 0.6;" class="blocklyFieldRect" width="18.125" height="18" y="0" x="0" ry="4" rx="4"/>
                        <text style="white-space: pre; font-family: sans-serif; font-size: 14.6667px; line-height: normal;" y="14" x="5" class="blocklyText">7</text>
                      </g>
                    </g>
                    <g transform="translate(161.74999809265137, 112)" class="blocklyDraggable" style="display: block;" data-id="YogN4f1Ege~(V7B1@P:R">
                      <path style="width: 44px; block-size: 25px; cursor: grab; display: flex; height: 25px; inline-size: 44px;" d="m 8,0 h 36 v 5 H 44 V 5 H 44 V 21 H 44 V 21 V 25 h -36 H 8 V 20 c 0,-10 -8,8 -8,-7.5 s 8,2.5 8,-7.5 z" fill="#498449" transform="translate(1,1)" class="blocklyPathDark"/>
                      <path style="cursor: grab;" d="m 8,0 h 36 v 5 H 44 V 5 H 44 V 21 H 44 V 21 V 25 h -36 H 8 V 20 c 0,-10 -8,8 -8,-7.5 s 8,2.5 8,-7.5 z" fill="#5ba55b" stroke="none" class="blocklyPath"/>
                      <path style="width: 47.1333px; block-size: 28.5px; cursor: grab; display: flex; fill: none; height: 28.5px; inline-size: 47.1333px; stroke-linecap: round;" d="m 8,0 m 0.5,0.5 H 43.5 H 43.5 M 8.5,24.5 M 8.5,24.5 V 20 v -1.5 m -7.36,-0.5 q -1.52,-5.5 0,-11 m 7.36,1 V 0.5" stroke="#8cc08c" class="blocklyPathLight"/>
                      <g transform="translate(13,5)" style="cursor: default;" class="blocklyEditableText">
                        <rect stroke="#fff" style="fill-opacity: 1; display: block; fill: rgb(51, 204, 0); width: 26px; block-size: 16px; height: 16px; inline-size: 26px; stroke: none;" class="blocklyFieldRect" width="26" height="16" y="0" x="0" ry="4" rx="4"/>
                      </g>
                    </g>
                    <g transform="translate(0, 140)" class="blocklyDraggable" data-id=".S/J%6aIeJNVyllJID6j">
                      <path style="width: 206.15px; block-size: 42px; cursor: grab; display: flex; height: 42px; inline-size: 206.15px;" d="m 0,0 h 15 l 6,4 3,0 6,-4 h 176.1500015258789 v 5 H 206.1500015258789 V 5 H 206.1500015258789 V 34 H 206.1500015258789 V 34 V 38 h -176.6500015258789 l -6,4 -3,0 -6,-4 h -6.5 a 8 8 0 0,1 -8,-8 z M 52,5 v 5 c 0,10 -8,-8 -8,7.5 s 8,-2.5 8,7.5 v 9 h 54.5 v -29 z" fill="#49845d" transform="translate(1,1)" class="blocklyPathDark"/>
                      <path style="cursor: grab;" d="m 0,0 h 15 l 6,4 3,0 6,-4 h 176.1500015258789 v 5 H 206.1500015258789 V 5 H 206.1500015258789 V 34 H 206.1500015258789 V 34 V 38 h -176.6500015258789 l -6,4 -3,0 -6,-4 h -6.5 a 8 8 0 0,1 -8,-8 z M 52,5 v 5 c 0,10 -8,-8 -8,7.5 s 8,-2.5 8,7.5 v 9 h 54.5 v -29 z" fill="#5ba574" stroke="none" class="blocklyPath"/>
                      <path style="width: 209.65px; block-size: 42px; cursor: grab; display: flex; fill: none; height: 42px; inline-size: 209.65px; stroke-linecap: round;" d="m 0,0 m 0.5,0.5 H 14.5 h 0.5 l 6,4 3,0 6,-4 H 205.6500015258789 H 205.6500015258789 M 0,38 m 2.6966991411008934,-2.6966991411008934 a 7.5 7.5 0 0,1 -2.1966991411008934,-5.303300858899107 V 0.5 M 107,5.5 v 29 h -54.5 M 52,10 m -5,14.3 l 3.68,-2.1" stroke="#8cc09e" class="blocklyPathLight"/>
                      <g transform="translate(45, 6)" class="blocklyDraggable" style="display: block;" data-id="Vu6rmgVB/-UP.s?O5ZCx">
                        <path style="width: 60.5px; block-size: 27px; cursor: grab; display: flex; height: 27px; inline-size: 60.5px;" d="m 8,0 h 52.5 v 5 H 60.5 V 5 H 60.5 V 23 H 60.5 V 23 V 27 h -52.5 H 8 V 20 c 0,-10 -8,8 -8,-7.5 s 8,2.5 8,-7.5 z" fill="#495284" transform="translate(1,1)" class="blocklyPathDark"/>
                        <path style="cursor: grab;" d="m 8,0 h 52.5 v 5 H 60.5 V 5 H 60.5 V 23 H 60.5 V 23 V 27 h -52.5 H 8 V 20 c 0,-10 -8,8 -8,-7.5 s 8,2.5 8,-7.5 z" fill="#5b67a5" stroke="none" class="blocklyPath"/>
                        <path style="width: 63.6333px; block-size: 30.5px; cursor: grab; display: flex; fill: none; height: 30.5px; inline-size: 63.6333px; stroke-linecap: round;" d="m 8,0 m 0.5,0.5 H 60 H 60 M 8.5,26.5 M 8.5,26.5 V 20 v -1.5 m -7.36,-0.5 q -1.52,-5.5 0,-11 m 7.36,1 V 0.5" stroke="#8c95c0" class="blocklyPathLight"/>
                        <g transform="translate(13,5)" style="cursor: text;" class="blocklyEditableText">
                          <rect style="fill: rgb(255, 255, 255); fill-opacity: 0.6;" class="blocklyFieldRect" width="42.5" height="18" y="0" x="0" ry="4" rx="4"/>
                          <text style="white-space: pre; font-family: sans-serif; font-size: 14.6667px; line-height: normal;" y="14" x="5" class="blocklyText">1000</text>
                        </g>
                      </g>
                      <g transform="translate(10,10)">
                        <text style="white-space: pre; cursor: grab; fill: rgb(255, 255, 255); font-family: sans-serif; font-size: 14.6667px; line-height: normal;" y="14" x="0" class="blocklyText">wait</text>
                      </g>
                      <g transform="translate(116.5,10)">
                        <text style="white-space: pre; cursor: grab; fill: rgb(255, 255, 255); font-family: sans-serif; font-size: 14.6667px; line-height: normal;" y="14" x="0" class="blocklyText">milliseconds</text>
                      </g>
                    </g>
                    <g transform="translate(10,5)">
                      <text style="white-space: pre; cursor: grab; fill: rgb(255, 255, 255); font-family: sans-serif; font-size: 14.6667px; line-height: normal;" y="14" x="0" class="blocklyText">Set pixels</text>
                    </g>
                    <g transform="translate(83.42499923706055,5)">
                      <text style="white-space: pre; cursor: grab; fill: rgb(255, 255, 255); font-family: sans-serif; font-size: 14.6667px; line-height: normal;" y="14" x="0" class="blocklyText">Port:</text>
                    </g>
                    <g transform="translate(119.32499885559082,5)" style="cursor: default;" class="blocklyEditableText">
                      <rect style="fill: rgb(255, 255, 255); fill-opacity: 0.6; stroke: none;" fill="transparent" stroke="#8cc08c" class="blocklyFieldRect blocklyDropdownRect" width="36.42499923706055" height="18" y="0" x="0" ry="4" rx="4"/>
                      <text style="white-space: pre; font-family: sans-serif; font-size: 14.6667px; line-height: normal;" y="14" x="5" text-anchor="start" class="blocklyText blocklyDropdownText">A<tspan style="fill: rgb(91, 165, 91);"> ▾</tspan></text>
                      <image style="display: none;"/>
                    </g>
                    <g transform="translate(10,33)">
                      <text style="white-space: pre; cursor: grab; fill: rgb(255, 255, 255); font-family: sans-serif; font-size: 14.6667px; line-height: normal;" y="14" x="0" class="blocklyText">Draw immediatly</text>
                    </g>
                    <g transform="translate(123.05000305175781,33)" style="cursor: default;" class="blocklyEditableText">
                      <rect style="fill: rgb(255, 255, 255); fill-opacity: 0.6;" class="blocklyFieldRect" width="14.949999809265137" height="18" y="0" x="0" ry="4" rx="4"/>
                      <text y="14" x="2" style="display: block; white-space: pre; width: 12.3333px; block-size: 21.35px; font-family: sans-serif; font-size: 14.6667px; height: 21.35px; inline-size: 12.3333px; line-height: normal;" class="blocklyText blocklyCheckbox">✓</text>
                    </g>
                    <g transform="translate(10,61)">
                      <text style="white-space: pre; cursor: grab; fill: rgb(255, 255, 255); font-family: sans-serif; font-size: 14.6667px; line-height: normal;" y="14" x="0" class="blocklyText">X</text>
                    </g>
                    <g transform="translate(10,89)">
                      <text style="white-space: pre; cursor: grab; fill: rgb(255, 255, 255); font-family: sans-serif; font-size: 14.6667px; line-height: normal;" y="14" x="0" class="blocklyText">Y</text>
                    </g>
                    <g transform="translate(10,117)">
                      <text style="white-space: pre; cursor: grab; fill: rgb(255, 255, 255); font-family: sans-serif; font-size: 14.6667px; line-height: normal;" y="14" x="0" class="blocklyText">Color</text>
                    </g>
                  </g>
                  <g transform="translate(10,10)">
                    <text style="white-space: pre; cursor: grab; fill: rgb(255, 255, 255); font-family: sans-serif; font-size: 14.6667px; line-height: normal;" y="14" x="0" class="blocklyText">wait</text>
                  </g>
                  <g transform="translate(116.5,10)">
                    <text style="white-space: pre; cursor: grab; fill: rgb(255, 255, 255); font-family: sans-serif; font-size: 14.6667px; line-height: normal;" y="14" x="0" class="blocklyText">milliseconds</text>
                  </g>
                </g>
                <g transform="translate(10,5)">
                  <text style="white-space: pre; cursor: grab; fill: rgb(255, 255, 255); font-family: sans-serif; font-size: 14.6667px; line-height: normal;" y="14" x="0" class="blocklyText">Set pixels</text>
                </g>
                <g transform="translate(83.42499923706055,5)">
                  <text style="white-space: pre; cursor: grab; fill: rgb(255, 255, 255); font-family: sans-serif; font-size: 14.6667px; line-height: normal;" y="14" x="0" class="blocklyText">Port:</text>
                </g>
                <g transform="translate(119.32499885559082,5)" style="cursor: default;" class="blocklyEditableText">
                  <rect style="fill: rgb(255, 255, 255); fill-opacity: 0.6; stroke: none;" fill="transparent" stroke="#8cc08c" class="blocklyFieldRect blocklyDropdownRect" width="36.42499923706055" height="18" y="0" x="0" ry="4" rx="4"/>
                  <text style="white-space: pre; font-family: sans-serif; font-size: 14.6667px; line-height: normal;" y="14" x="5" text-anchor="start" class="blocklyText blocklyDropdownText">A<tspan style="fill: rgb(91, 165, 91);"> ▾</tspan></text>
                  <image style="display: none;"/>
                </g>
                <g transform="translate(10,33)">
                  <text style="white-space: pre; cursor: grab; fill: rgb(255, 255, 255); font-family: sans-serif; font-size: 14.6667px; line-height: normal;" y="14" x="0" class="blocklyText">Draw immediatly</text>
                </g>
                <g transform="translate(123.05000305175781,33)" style="cursor: default;" class="blocklyEditableText">
                  <rect style="fill: rgb(255, 255, 255); fill-opacity: 0.6;" class="blocklyFieldRect" width="14.949999809265137" height="18" y="0" x="0" ry="4" rx="4"/>
                  <text y="14" x="2" style="display: block; white-space: pre; width: 12.3333px; block-size: 21.35px; font-family: sans-serif; font-size: 14.6667px; height: 21.35px; inline-size: 12.3333px; line-height: normal;" class="blocklyText blocklyCheckbox">✓</text>
                </g>
                <g transform="translate(10,61)">
                  <text style="white-space: pre; cursor: grab; fill: rgb(255, 255, 255); font-family: sans-serif; font-size: 14.6667px; line-height: normal;" y="14" x="0" class="blocklyText">X</text>
                </g>
                <g transform="translate(10,89)">
                  <text style="white-space: pre; cursor: grab; fill: rgb(255, 255, 255); font-family: sans-serif; font-size: 14.6667px; line-height: normal;" y="14" x="0" class="blocklyText">Y</text>
                </g>
                <g transform="translate(10,117)">
                  <text style="white-space: pre; cursor: grab; fill: rgb(255, 255, 255); font-family: sans-serif; font-size: 14.6667px; line-height: normal;" y="14" x="0" class="blocklyText">Color</text>
                </g>
              </g>
            </g>
          </g>
        </g>
      </g>
    </g>
  </g>
</svg>