<svg version="1.1" xmlns="http://www.w3.org/2000/svg" xmlns:xlink="http://www.w3.org/1999/xlink" width="545.816650390625" height="443" viewBox=" -73.12001037597656 -192.1199951171875 545.816650390625 443"><defs><style type="text/css" xmlns="http://www.w3.org/1999/xhtml"><![CDATA[.blocklySvg {background-color: #fff;outline: none;overflow: hidden;}.blocklyWidgetDiv {display: none;position: absolute;z-index: 999;}.blocklyTooltipDiv {background-color: #ffffc7;border: 1px solid #ddc;box-shadow: 4px 4px 20px 1px rgba(0,0,0,.15);color: #000;display: none;font-family: sans-serif;font-size: 9pt;opacity: 0.9;padding: 2px;position: absolute;z-index: 1000;}.blocklyResizeSE {cursor: se-resize;fill: #aaa;}.blocklyResizeSW {cursor: sw-resize;fill: #aaa;}.blocklyResizeLine {stroke: #888;stroke-width: 1;}.blocklyHighlightedConnectionPath {fill: none;stroke: #fc3;stroke-width: 4px;}.blocklyPathLight {fill: none;stroke-linecap: round;stroke-width: 1;}.blocklySelected>.blocklyPath {stroke: #fc3;stroke-width: 3px;}.blocklySelected>.blocklyPathLight {display: none;}.blocklyDragging>.blocklyPath,.blocklyDragging>.blocklyPathLight {fill-opacity: .8;stroke-opacity: .8;}.blocklyDragging>.blocklyPathDark {display: none;}.blocklyDisabled>.blocklyPath {fill-opacity: .5;stroke-opacity: .5;}.blocklyDisabled>.blocklyPathLight,.blocklyDisabled>.blocklyPathDark {display: none;}.blocklyText {cursor: default;fill: #fff;font-family: sans-serif;font-size: 11pt;}.blocklyNonEditableText>text {pointer-events: none;}.blocklyNonEditableText>rect,.blocklyEditableText>rect {fill: #fff;fill-opacity: .6;}.blocklyNonEditableText>text,.blocklyEditableText>text {fill: #000;}.blocklyEditableText:hover>rect {stroke: #fff;stroke-width: 2;}.blocklyBubbleText {fill: #000;}.blocklySvg text {user-select: none;-moz-user-select: none;-webkit-user-select: none;cursor: inherit;}.blocklyHidden {display: none;}.blocklyFieldDropdown:not(.blocklyHidden) {display: block;}.blocklyIconGroup {cursor: default;}.blocklyIconGroup:not(:hover),.blocklyIconGroupReadonly {opacity: .6;}.blocklyIconShape {fill: #00f;stroke: #fff;stroke-width: 1px;}.blocklyIconSymbol {fill: #fff;}.blocklyMinimalBody {margin: 0;padding: 0;}.blocklyCommentTextarea {background-color: #ffc;border: 0;margin: 0;padding: 2px;resize: none;}.blocklyHtmlInput {border: none;border-radius: 4px;font-family: sans-serif;height: 100%;margin: 0;outline: none;padding: 0 1px;width: 100%}.blocklyMainBackground {stroke-width: 1;stroke: #c6c6c6;}.blocklyMutatorBackground {fill: #fff;stroke: #ddd;stroke-width: 1;}.blocklyFlyoutBackground {fill: #ddd;fill-opacity: .8;}.blocklyScrollbarBackground {opacity: 0;}.blocklyScrollbarKnob {fill: #ccc;}.blocklyScrollbarBackground:hover+.blocklyScrollbarKnob,.blocklyScrollbarKnob:hover {fill: #bbb;}.blocklyZoom>image {opacity: .4;}.blocklyZoom>image:hover {opacity: .6;}.blocklyZoom>image:active {opacity: .8;}.blocklyFlyout .blocklyScrollbarKnob {fill: #bbb;}.blocklyFlyout .blocklyScrollbarBackground:hover+.blocklyScrollbarKnob,.blocklyFlyout .blocklyScrollbarKnob:hover {fill: #aaa;}.blocklyInvalidInput {background: #faa;}.blocklyAngleCircle {stroke: #444;stroke-width: 1;fill: #ddd;fill-opacity: .8;}.blocklyAngleMarks {stroke: #444;stroke-width: 1;}.blocklyAngleGauge {fill: #f88;fill-opacity: .8;}.blocklyAngleLine {stroke: #f00;stroke-width: 2;stroke-linecap: round;}.blocklyContextMenu {border-radius: 4px;}.blocklyDropdownMenu {padding: 0 !important;}.blocklyWidgetDiv .goog-option-selected .goog-menuitem-checkbox,.blocklyWidgetDiv .goog-option-selected .goog-menuitem-icon {background: url(<<<PATH>>>/sprites.png) no-repeat -48px -16px !important;}.blocklyToolboxDiv {background-color: #ddd;overflow-x: visible;overflow-y: auto;position: absolute;}.blocklyTreeRoot {padding: 4px 0;}.blocklyTreeRoot:focus {outline: none;}.blocklyTreeRow {height: 22px;line-height: 22px;margin-bottom: 3px;padding-right: 8px;white-space: nowrap;}.blocklyHorizontalTree {float: left;margin: 1px 5px 8px 0;}.blocklyHorizontalTreeRtl {float: right;margin: 1px 0 8px 5px;}.blocklyToolboxDiv[dir="RTL"] .blocklyTreeRow {margin-left: 8px;}.blocklyTreeRow:not(.blocklyTreeSelected):hover {background-color: #e4e4e4;}.blocklyTreeSeparator {border-bottom: solid #e5e5e5 1px;height: 0;margin: 5px 0;}.blocklyTreeSeparatorHorizontal {border-right: solid #e5e5e5 1px;width: 0;padding: 5px 0;margin: 0 5px;}.blocklyTreeIcon {background-image: url(<<<PATH>>>/sprites.png);height: 16px;vertical-align: middle;width: 16px;}.blocklyTreeIconClosedLtr {background-position: -32px -1px;}.blocklyTreeIconClosedRtl {background-position: 0px -1px;}.blocklyTreeIconOpen {background-position: -16px -1px;}.blocklyTreeSelected>.blocklyTreeIconClosedLtr {background-position: -32px -17px;}.blocklyTreeSelected>.blocklyTreeIconClosedRtl {background-position: 0px -17px;}.blocklyTreeSelected>.blocklyTreeIconOpen {background-position: -16px -17px;}.blocklyTreeIconNone,.blocklyTreeSelected>.blocklyTreeIconNone {background-position: -48px -1px;}.blocklyTreeLabel {cursor: default;font-family: sans-serif;font-size: 16px;padding: 0 3px;vertical-align: middle;}.blocklyTreeSelected .blocklyTreeLabel {color: #fff;}.blocklyWidgetDiv .goog-palette {outline: none;cursor: default;}.blocklyWidgetDiv .goog-palette-table {border: 1px solid #666;border-collapse: collapse;}.blocklyWidgetDiv .goog-palette-cell {height: 13px;width: 15px;margin: 0;border: 0;text-align: center;vertical-align: middle;border-right: 1px solid #666;font-size: 1px;}.blocklyWidgetDiv .goog-palette-colorswatch {position: relative;height: 13px;width: 15px;border: 1px solid #666;}.blocklyWidgetDiv .goog-palette-cell-hover .goog-palette-colorswatch {border: 1px solid #FFF;}.blocklyWidgetDiv .goog-palette-cell-selected .goog-palette-colorswatch {border: 1px solid #000;color: #fff;}.blocklyWidgetDiv .goog-menu {background: #fff;border-color: #ccc #666 #666 #ccc;border-style: solid;border-width: 1px;cursor: default;font: normal 13px Arial, sans-serif;margin: 0;outline: none;padding: 4px 0;position: absolute;overflow-y: auto;overflow-x: hidden;max-height: 100%;z-index: 20000;}.blocklyWidgetDiv .goog-menuitem {color: #000;font: normal 13px Arial, sans-serif;list-style: none;margin: 0;padding: 4px 7em 4px 28px;white-space: nowrap;}.blocklyWidgetDiv .goog-menuitem.goog-menuitem-rtl {padding-left: 7em;padding-right: 28px;}.blocklyWidgetDiv .goog-menu-nocheckbox .goog-menuitem,.blocklyWidgetDiv .goog-menu-noicon .goog-menuitem {padding-left: 12px;}.blocklyWidgetDiv .goog-menu-noaccel .goog-menuitem {padding-right: 20px;}.blocklyWidgetDiv .goog-menuitem-content {color: #000;font: normal 13px Arial, sans-serif;}.blocklyWidgetDiv .goog-menuitem-disabled .goog-menuitem-accel,.blocklyWidgetDiv .goog-menuitem-disabled .goog-menuitem-content {color: #ccc !important;}.blocklyWidgetDiv .goog-menuitem-disabled .goog-menuitem-icon {opacity: 0.3;-moz-opacity: 0.3;filter: alpha(opacity=30);}.blocklyWidgetDiv .goog-menuitem-highlight,.blocklyWidgetDiv .goog-menuitem-hover {background-color: #d6e9f8;border-color: #d6e9f8;border-style: dotted;border-width: 1px 0;padding-bottom: 3px;padding-top: 3px;}.blocklyWidgetDiv .goog-menuitem-checkbox,.blocklyWidgetDiv .goog-menuitem-icon {background-repeat: no-repeat;height: 16px;left: 6px;position: absolute;right: auto;vertical-align: middle;width: 16px;}.blocklyWidgetDiv .goog-menuitem-rtl .goog-menuitem-checkbox,.blocklyWidgetDiv .goog-menuitem-rtl .goog-menuitem-icon {left: auto;right: 6px;}.blocklyWidgetDiv .goog-option-selected .goog-menuitem-checkbox,.blocklyWidgetDiv .goog-option-selected .goog-menuitem-icon {background: url(//ssl.gstatic.com/editor/editortoolbar.png) no-repeat -512px 0;}.blocklyWidgetDiv .goog-menuitem-accel {color: #999;direction: ltr;left: auto;padding: 0 6px;position: absolute;right: 0;text-align: right;}.blocklyWidgetDiv .goog-menuitem-rtl .goog-menuitem-accel {left: 0;right: auto;text-align: left;}.blocklyWidgetDiv .goog-menuitem-mnemonic-hint {text-decoration: underline;}.blocklyWidgetDiv .goog-menuitem-mnemonic-separator {color: #999;font-size: 12px;padding-left: 4px;}.blocklyWidgetDiv .goog-menuseparator {border-top: 1px solid #ccc;margin: 4px 0;padding: 0;}]]></style></defs>"><g xmlns="http://www.w3.org/2000/svg" class="blocklyBlockCanvas"><g class="blocklyDraggable" transform="translate(-73.1200122833261,-192.119995117187)"><path class="blocklyPathDark" transform="translate(1,1)" fill="#3c6085" d="m 0,8 A 8,8 0 0,1 8,0 H 15 l 6,4 3,0 6,-4 H 103 v 5 c 0,10 -8,-8 -8,7.5 s 8,-2.5 8,7.5 v 41 H 94.36666488647461 l -6,4 -3,0 -6,-4 h -7 a 8,8 0 0,0 -8,8 v 66 a 8,8 0 0,0 8,8 H 103 v 5 c 0,10 -8,-8 -8,7.5 s 8,-2.5 8,7.5 v 41 H 94.36666488647461 l -6,4 -3,0 -6,-4 h -7 a 8,8 0 0,0 -8,8 v 66 a 8,8 0 0,0 8,8 H 103 v 5 c 0,10 -8,-8 -8,7.5 s 8,-2.5 8,7.5 v 41 H 94.36666488647461 l -6,4 -3,0 -6,-4 h -7 a 8,8 0 0,0 -8,8 v 65 a 8,8 0 0,0 8,8 H 103 v 10 H 29.5 l -6,4 -3,0 -6,-4 H 8 a 8,8 0 0,1 -8,-8 z&#xA;"/><path class="blocklyPath" fill="#4b78a6" d="m 0,8 A 8,8 0 0,1 8,0 H 15 l 6,4 3,0 6,-4 H 103 v 5 c 0,10 -8,-8 -8,7.5 s 8,-2.5 8,7.5 v 41 H 94.36666488647461 l -6,4 -3,0 -6,-4 h -7 a 8,8 0 0,0 -8,8 v 66 a 8,8 0 0,0 8,8 H 103 v 5 c 0,10 -8,-8 -8,7.5 s 8,-2.5 8,7.5 v 41 H 94.36666488647461 l -6,4 -3,0 -6,-4 h -7 a 8,8 0 0,0 -8,8 v 66 a 8,8 0 0,0 8,8 H 103 v 5 c 0,10 -8,-8 -8,7.5 s 8,-2.5 8,7.5 v 41 H 94.36666488647461 l -6,4 -3,0 -6,-4 h -7 a 8,8 0 0,0 -8,8 v 65 a 8,8 0 0,0 8,8 H 103 v 10 H 29.5 l -6,4 -3,0 -6,-4 H 8 a 8,8 0 0,1 -8,-8 z&#xA;"/><path class="blocklyPathLight" stroke="#81a1c1" d="m 0.5,7.5 A 7.5,7.5 0 0,1 8,0.5 H 15 l 6,4 3,0 6,-4 H 102.5 M 102.5,0.5 M 98,19.3 l 3.68,-2.1 M 102.5,61.5 M 66.35625724638895,141.01040764008565 a 8.5,8.5 0 0,0 6.0104076400856545,2.4895923599143455 H 102.5 M 102.5,143.5 M 98,162.3 l 3.68,-2.1 M 102.5,204.5 M 66.35625724638895,284.01040764008565 a 8.5,8.5 0 0,0 6.0104076400856545,2.4895923599143455 H 102.5 M 102.5,286.5 M 98,305.3 l 3.68,-2.1 M 102.5,347.5 M 66.35625724638895,426.01040764008565 a 8.5,8.5 0 0,0 6.0104076400856545,2.4895923599143455 H 102.5 M 2.6966991411008934,435.3033008588991 A 7.5,7.5 0 0,1 0.5,430 V 8&#xA;"/><g class="blocklyIconGroup" display="block" transform="translate(10,5)"><rect class="blocklyIconShape" rx="4" ry="4" height="16" width="16"/><path class="blocklyIconSymbol" d="m4.203,7.296 0,1.368 -0.92,0.677 -0.11,0.41 0.9,1.559 0.41,0.11 1.043,-0.457 1.187,0.683 0.127,1.134 0.3,0.3 1.8,0 0.3,-0.299 0.127,-1.138 1.185,-0.682 1.046,0.458 0.409,-0.11 0.9,-1.559 -0.11,-0.41 -0.92,-0.677 0,-1.366 0.92,-0.677 0.11,-0.41 -0.9,-1.559 -0.409,-0.109 -1.046,0.458 -1.185,-0.682 -0.127,-1.138 -0.3,-0.299 -1.8,0 -0.3,0.3 -0.126,1.135 -1.187,0.682 -1.043,-0.457 -0.41,0.11 -0.899,1.559 0.108,0.409z"/><circle class="blocklyIconShape" r="2.7" cx="8" cy="8"/></g><text class="blocklyText" y="12.5" transform="translate(37,5)">wenn</text><text class="blocklyText" y="12.5" transform="translate(10,66)">mache</text><text class="blocklyText" y="12.5" transform="translate(10,148)">sonst wenn</text><text class="blocklyText" y="12.5" transform="translate(10,209)">mache</text><text class="blocklyText" y="12.5" transform="translate(10,291)">sonst wenn</text><text class="blocklyText" y="12.5" transform="translate(10,352)">mache</text><g class="blocklyDraggable" transform="translate(104,0)"><path class="blocklyPathDark" transform="translate(1,1)" fill="#3c6085" d="m 0,0 H 20 H 440.21665954589844 v 61 H 0 V 20 c 0,-10 -8,8 -8,-7.5 s 8,2.5 8,-7.5 z&#xA;M 353.5333251953125,5 h -337.5333251953125 v 5 c 0,10 -8,-8 -8,7.5 s 8,-2.5 8,7.5 v 32 h 337.5333251953125 z M 430.21665954589844,5 h -30.233333587646484 v 5 c 0,10 -8,-8 -8,7.5 s 8,-2.5 8,7.5 v 7 h 30.233333587646484 z"/><path class="blocklyPath" fill="#4b78a6" d="m 0,0 H 20 H 440.21665954589844 v 61 H 0 V 20 c 0,-10 -8,8 -8,-7.5 s 8,2.5 8,-7.5 z&#xA;M 353.5333251953125,5 h -337.5333251953125 v 5 c 0,10 -8,-8 -8,7.5 s 8,-2.5 8,7.5 v 32 h 337.5333251953125 z M 430.21665954589844,5 h -30.233333587646484 v 5 c 0,10 -8,-8 -8,7.5 s 8,-2.5 8,7.5 v 7 h 30.233333587646484 z"/><path class="blocklyPathLight" stroke="#81a1c1" d="m 0.5,0.5 H 19.5 M 19.5,0.5 H 439.71665954589844 M 0.5,60.5 V 18.5 m -7.36,-0.5 q -1.52,-5.5 0,-11 m 7.36,1 V 0.5 H 1&#xA;M 354.0333251953125,5.5 v 52 h -337.5333251953125 M 10.9,24.3 l 3.68,-2.1 M 430.71665954589844,5.5 v 27 h -30.233333587646484 M 394.88332595825193,24.3 l 3.68,-2.1"/><g class="blocklyEditableText" style="cursor: default;" transform="translate(363.5333251953125,10)"><rect rx="4" ry="4" x="-5" y="0" height="16" width="30.450000762939453"/><text class="blocklyText" y="12.5">&lt;<tspan style="fill: rgb(75, 120, 166);"> ▾</tspan></text></g><g class="blocklyDraggable" transform="translate(17,6)"><path class="blocklyPathDark" transform="translate(1,1)" fill="#3c853c" d="m 0,0 H 335.5333251953125 v 25 v 25 H 0 V 20 c 0,-10 -8,8 -8,-7.5 s 8,2.5 8,-7.5 z&#xA;"/><path class="blocklyPath" fill="#4ba64b" d="m 0,0 H 335.5333251953125 v 25 v 25 H 0 V 20 c 0,-10 -8,8 -8,-7.5 s 8,2.5 8,-7.5 z&#xA;"/><path class="blocklyPathLight" stroke="#81c181" d="m 0.5,0.5 H 335.0333251953125 M 335.0333251953125,0.5 M 335.0333251953125,25.5 M 0.5,49.5 V 18.5 m -7.36,-0.5 q -1.52,-5.5 0,-11 m 7.36,1 V 0.5 H 1&#xA;"/><text class="blocklyText" y="12.5" transform="translate(10,5)">Temperatur-/Luftfeuchtigkeitssensor (HDC1080)</text><text class="blocklyText" y="12.5" transform="translate(125.26666259765625,30)">Messwert:</text><g class="blocklyEditableText" style="cursor: default;" transform="translate(203.39999389648438,30)"><rect rx="4" ry="4" x="-5" y="0" height="16" width="132.13333129882812"/><text class="blocklyText" y="12.5">Temperatur in °C<tspan style="fill: rgb(75, 166, 75);"> ▾</tspan></text></g></g><g class="blocklyDraggable" transform="translate(400.983325958252,6)"><path class="blocklyPathDark" transform="translate(1,1)" fill="#3c4885" d="m 0,0 H 28.233333587646484 v 25 H 0 V 20 c 0,-10 -8,8 -8,-7.5 s 8,2.5 8,-7.5 z&#xA;"/><path class="blocklyPath" fill="#4b5aa6" d="m 0,0 H 28.233333587646484 v 25 H 0 V 20 c 0,-10 -8,8 -8,-7.5 s 8,2.5 8,-7.5 z&#xA;"/><path class="blocklyPathLight" stroke="#818cc1" d="m 0.5,0.5 H 27.733333587646484 M 27.733333587646484,0.5 M 0.5,24.5 V 18.5 m -7.36,-0.5 q -1.52,-5.5 0,-11 m 7.36,1 V 0.5 H 1&#xA;"/><g class="blocklyEditableText" style="cursor: text;" transform="translate(10,5)"><rect rx="4" ry="4" x="-5" y="0" height="16" width="18.233333587646484"/><text class="blocklyText" y="12.5">0</text></g></g></g><g class="blocklyDraggable" transform="translate(104,143)"><path class="blocklyPathDark" transform="translate(1,1)" d="m 0,0 H 20 H 440.81665802001953 v 61 H 0 V 20 c 0,-10 -8,8 -8,-7.5 s 8,2.5 8,-7.5 z&#xA;M 353.5333251953125,5 h -337.5333251953125 v 5 c 0,10 -8,-8 -8,7.5 s 8,-2.5 8,7.5 v 32 h 337.5333251953125 z M 430.81665802001953,5 h -30.233333587646484 v 5 c 0,10 -8,-8 -8,7.5 s 8,-2.5 8,7.5 v 7 h 30.233333587646484 z" fill="#3c6085"/><path class="blocklyPath" d="m 0,0 H 20 H 440.81665802001953 v 61 H 0 V 20 c 0,-10 -8,8 -8,-7.5 s 8,2.5 8,-7.5 z&#xA;M 353.5333251953125,5 h -337.5333251953125 v 5 c 0,10 -8,-8 -8,7.5 s 8,-2.5 8,7.5 v 32 h 337.5333251953125 z M 430.81665802001953,5 h -30.233333587646484 v 5 c 0,10 -8,-8 -8,7.5 s 8,-2.5 8,7.5 v 7 h 30.233333587646484 z" fill="#4b78a6"/><path class="blocklyPathLight" d="m 0.5,0.5 H 19.5 M 19.5,0.5 H 440.31665802001953 M 0.5,60.5 V 18.5 m -7.36,-0.5 q -1.52,-5.5 0,-11 m 7.36,1 V 0.5 H 1&#xA;M 354.0333251953125,5.5 v 52 h -337.5333251953125 M 10.9,24.3 l 3.68,-2.1 M 431.31665802001953,5.5 v 27 h -30.233333587646484 M 395.483324432373,24.3 l 3.68,-2.1" stroke="#81a1c1"/><g class="blocklyEditableText" style="cursor: default;" transform="translate(363.5333251953125,10)"><rect rx="4" ry="4" x="-5" y="0" height="16" width="31.049999237060547"/><text class="blocklyText" y="12.5">=<tspan style="fill: rgb(75, 120, 166);"> ▾</tspan></text></g><g class="blocklyDraggable" transform="translate(17,6)"><path class="blocklyPathDark" transform="translate(1,1)" d="m 0,0 H 335.5333251953125 v 25 v 25 H 0 V 20 c 0,-10 -8,8 -8,-7.5 s 8,2.5 8,-7.5 z&#xA;" fill="#3c853c"/><path class="blocklyPath" d="m 0,0 H 335.5333251953125 v 25 v 25 H 0 V 20 c 0,-10 -8,8 -8,-7.5 s 8,2.5 8,-7.5 z&#xA;" fill="#4ba64b"/><path class="blocklyPathLight" d="m 0.5,0.5 H 335.0333251953125 M 335.0333251953125,0.5 M 335.0333251953125,25.5 M 0.5,49.5 V 18.5 m -7.36,-0.5 q -1.52,-5.5 0,-11 m 7.36,1 V 0.5 H 1&#xA;" stroke="#81c181"/><text class="blocklyText" y="12.5" transform="translate(10,5)">Temperatur-/Luftfeuchtigkeitssensor (HDC1080)</text><text class="blocklyText" y="12.5" transform="translate(125.26666259765625,30)">Messwert:</text><g class="blocklyEditableText" style="cursor: default;" transform="translate(203.39999389648438,30)"><rect rx="4" ry="4" x="-5" y="0" height="16" width="132.13333129882812"/><text class="blocklyText" y="12.5">Temperatur in °C<tspan style="fill: rgb(75, 166, 75);"> ▾</tspan></text></g></g><g class="blocklyDraggable" transform="translate(401.58332443237305,6)"><path class="blocklyPathDark" transform="translate(1,1)" d="m 0,0 H 28.233333587646484 v 25 H 0 V 20 c 0,-10 -8,8 -8,-7.5 s 8,2.5 8,-7.5 z&#xA;" fill="#3c4885"/><path class="blocklyPath" d="m 0,0 H 28.233333587646484 v 25 H 0 V 20 c 0,-10 -8,8 -8,-7.5 s 8,2.5 8,-7.5 z&#xA;" fill="#4b5aa6"/><path class="blocklyPathLight" d="m 0.5,0.5 H 27.733333587646484 M 27.733333587646484,0.5 M 0.5,24.5 V 18.5 m -7.36,-0.5 q -1.52,-5.5 0,-11 m 7.36,1 V 0.5 H 1&#xA;" stroke="#818cc1"/><g class="blocklyEditableText" style="cursor: text;" transform="translate(10,5)"><rect rx="4" ry="4" x="-5" y="0" height="16" width="18.233333587646484"/><text class="blocklyText" y="12.5">0</text></g></g></g><g class="blocklyDraggable" transform="translate(65.36666488647461,62)"><path class="blocklyPathDark" transform="translate(1,1)" fill="#3c853c" d="m 0,8 A 8,8 0 0,1 8,0 H 15 l 6,4 3,0 6,-4 H 295.25000190734863 v 25 H 29.5 l -6,4 -3,0 -6,-4 H 0 z&#xA;"/><path class="blocklyPath" fill="#4ba64b" d="m 0,8 A 8,8 0 0,1 8,0 H 15 l 6,4 3,0 6,-4 H 295.25000190734863 v 25 H 29.5 l -6,4 -3,0 -6,-4 H 0 z&#xA;"/><path class="blocklyPathLight" stroke="#81c181" d="m 0.5,7.5 A 7.5,7.5 0 0,1 8,0.5 H 15 l 6,4 3,0 6,-4 H 294.75000190734863 M 294.75000190734863,0.5 M 0.5,24.5 V 8&#xA;"/><text class="blocklyText" y="12.5" transform="translate(10,5)">LED an digitalen</text><text class="blocklyText" y="12.5" transform="translate(125.03333282470703,5)">Pin:</text><g class="blocklyEditableText" style="cursor: default;" transform="translate(159.5,5)"><rect rx="4" ry="4" x="-5" y="0" height="16" width="40.85000038146973"/><text class="blocklyText" y="12.5">D1<tspan style="fill: rgb(75, 166, 75);"> ▾</tspan></text></g><text class="blocklyText" y="12.5" transform="translate(200.35000038146973,5)">Status</text><g class="blocklyEditableText" style="cursor: default;" transform="translate(252.25000190734863,5)"><rect rx="4" ry="4" x="-5" y="0" height="16" width="43"/><text class="blocklyText" y="12.5">Ein<tspan style="fill: rgb(75, 166, 75);"> ▾</tspan></text></g><g class="blocklyDraggable" transform="translate(0,26)"><path class="blocklyPathDark" transform="translate(1,1)" d="m 0,0 H 15 l 6,4 3,0 6,-4 H 300.383337020874 v 25 H 29.5 l -6,4 -3,0 -6,-4 H 0 z&#xA;" fill="#3c853c"/><path class="blocklyPath" d="m 0,0 H 15 l 6,4 3,0 6,-4 H 300.383337020874 v 25 H 29.5 l -6,4 -3,0 -6,-4 H 0 z&#xA;" fill="#4ba64b"/><path class="blocklyPathLight" d="m 0.5,0.5 H 15 l 6,4 3,0 6,-4 H 299.883337020874 M 299.883337020874,0.5 M 0.5,24.5 V 0.5&#xA;" stroke="#81c181"/><text class="blocklyText" y="12.5" transform="translate(10,5)">LED an digitalen</text><text class="blocklyText" y="12.5" transform="translate(125.03333282470703,5)">Pin:</text><g class="blocklyEditableText" style="cursor: default;" transform="translate(159.5,5)"><rect rx="4" ry="4" x="-5" y="0" height="16" width="40.85000038146973"/><text class="blocklyText" y="12.5">D2<tspan style="fill: rgb(75, 166, 75);"> ▾</tspan></text></g><text class="blocklyText" y="12.5" transform="translate(200.35000038146973,5)">Status</text><g class="blocklyEditableText" style="cursor: default;" transform="translate(252.25000190734863,5)"><rect rx="4" ry="4" x="-5" y="0" height="16" width="48.13333511352539"/><text class="blocklyText" y="12.5">Aus<tspan style="fill: rgb(75, 166, 75);"> ▾</tspan></text></g><g class="blocklyDraggable" transform="translate(0,26)"><path class="blocklyPathDark" transform="translate(1,1)" d="m 0,0 H 15 l 6,4 3,0 6,-4 H 300.383337020874 v 25 H 29.5 l -6,4 -3,0 -6,-4 H 8 a 8,8 0 0,1 -8,-8 z&#xA;" fill="#3c853c"/><path class="blocklyPath" d="m 0,0 H 15 l 6,4 3,0 6,-4 H 300.383337020874 v 25 H 29.5 l -6,4 -3,0 -6,-4 H 8 a 8,8 0 0,1 -8,-8 z&#xA;" fill="#4ba64b"/><path class="blocklyPathLight" d="m 0.5,0.5 H 15 l 6,4 3,0 6,-4 H 299.883337020874 M 299.883337020874,0.5 M 2.6966991411008934,22.303300858899107 A 7.5,7.5 0 0,1 0.5,17 V 0.5&#xA;" stroke="#81c181"/><text class="blocklyText" y="12.5" transform="translate(10,5)">LED an digitalen</text><text class="blocklyText" y="12.5" transform="translate(125.03333282470703,5)">Pin:</text><g class="blocklyEditableText" style="cursor: default;" transform="translate(159.5,5)"><rect rx="4" ry="4" x="-5" y="0" height="16" width="40.85000038146973"/><text class="blocklyText" y="12.5">D3<tspan style="fill: rgb(75, 166, 75);"> ▾</tspan></text></g><text class="blocklyText" y="12.5" transform="translate(200.35000038146973,5)">Status</text><g class="blocklyEditableText" style="cursor: default;" transform="translate(252.25000190734863,5)"><rect rx="4" ry="4" x="-5" y="0" height="16" width="48.13333511352539"/><text class="blocklyText" y="12.5">Aus<tspan style="fill: rgb(75, 166, 75);"> ▾</tspan></text></g></g></g></g><g class="blocklyDraggable" transform="translate(65.36666488647461,205)"><path class="blocklyPathDark" transform="translate(1,1)" d="m 0,8 A 8,8 0 0,1 8,0 H 15 l 6,4 3,0 6,-4 H 300.383337020874 v 25 H 29.5 l -6,4 -3,0 -6,-4 H 0 z&#xA;" fill="#3c853c"/><path class="blocklyPath" d="m 0,8 A 8,8 0 0,1 8,0 H 15 l 6,4 3,0 6,-4 H 300.383337020874 v 25 H 29.5 l -6,4 -3,0 -6,-4 H 0 z&#xA;" fill="#4ba64b"/><path class="blocklyPathLight" d="m 0.5,7.5 A 7.5,7.5 0 0,1 8,0.5 H 15 l 6,4 3,0 6,-4 H 299.883337020874 M 299.883337020874,0.5 M 0.5,24.5 V 8&#xA;" stroke="#81c181"/><text class="blocklyText" y="12.5" transform="translate(10,5)">LED an digitalen</text><text class="blocklyText" y="12.5" transform="translate(125.03333282470703,5)">Pin:</text><g class="blocklyEditableText" style="cursor: default;" transform="translate(159.5,5)"><rect rx="4" ry="4" x="-5" y="0" height="16" width="40.85000038146973"/><text class="blocklyText" y="12.5">D1<tspan style="fill: rgb(75, 166, 75);"> ▾</tspan></text></g><text class="blocklyText" y="12.5" transform="translate(200.35000038146973,5)">Status</text><g class="blocklyEditableText" style="cursor: default;" transform="translate(252.25000190734863,5)"><rect rx="4" ry="4" x="-5" y="0" height="16" width="48.13333511352539"/><text class="blocklyText" y="12.5">Aus<tspan style="fill: rgb(75, 166, 75);"> ▾</tspan></text></g><g class="blocklyDraggable" transform="translate(0,26)"><path class="blocklyPathDark" transform="translate(1,1)" d="m 0,0 H 15 l 6,4 3,0 6,-4 H 295.25000190734863 v 25 H 29.5 l -6,4 -3,0 -6,-4 H 0 z&#xA;" fill="#3c853c"/><path class="blocklyPath" d="m 0,0 H 15 l 6,4 3,0 6,-4 H 295.25000190734863 v 25 H 29.5 l -6,4 -3,0 -6,-4 H 0 z&#xA;" fill="#4ba64b"/><path class="blocklyPathLight" d="m 0.5,0.5 H 15 l 6,4 3,0 6,-4 H 294.75000190734863 M 294.75000190734863,0.5 M 0.5,24.5 V 0.5&#xA;" stroke="#81c181"/><text class="blocklyText" y="12.5" transform="translate(10,5)">LED an digitalen</text><text class="blocklyText" y="12.5" transform="translate(125.03333282470703,5)">Pin:</text><g class="blocklyEditableText" style="cursor: default;" transform="translate(159.5,5)"><rect rx="4" ry="4" x="-5" y="0" height="16" width="40.85000038146973"/><text class="blocklyText" y="12.5">D2<tspan style="fill: rgb(75, 166, 75);"> ▾</tspan></text></g><text class="blocklyText" y="12.5" transform="translate(200.35000038146973,5)">Status</text><g class="blocklyEditableText" style="cursor: default;" transform="translate(252.25000190734863,5)"><rect rx="4" ry="4" x="-5" y="0" height="16" width="43"/><text class="blocklyText" y="12.5">Ein<tspan style="fill: rgb(75, 166, 75);"> ▾</tspan></text></g><g class="blocklyDraggable" transform="translate(0,26)"><path class="blocklyPathDark" transform="translate(1,1)" d="m 0,0 H 15 l 6,4 3,0 6,-4 H 300.383337020874 v 25 H 29.5 l -6,4 -3,0 -6,-4 H 8 a 8,8 0 0,1 -8,-8 z&#xA;" fill="#3c853c"/><path class="blocklyPath" d="m 0,0 H 15 l 6,4 3,0 6,-4 H 300.383337020874 v 25 H 29.5 l -6,4 -3,0 -6,-4 H 8 a 8,8 0 0,1 -8,-8 z&#xA;" fill="#4ba64b"/><path class="blocklyPathLight" d="m 0.5,0.5 H 15 l 6,4 3,0 6,-4 H 299.883337020874 M 299.883337020874,0.5 M 2.6966991411008934,22.303300858899107 A 7.5,7.5 0 0,1 0.5,17 V 0.5&#xA;" stroke="#81c181"/><text class="blocklyText" y="12.5" transform="translate(10,5)">LED an digitalen</text><text class="blocklyText" y="12.5" transform="translate(125.03333282470703,5)">Pin:</text><g class="blocklyEditableText" style="cursor: default;" transform="translate(159.5,5)"><rect rx="4" ry="4" x="-5" y="0" height="16" width="40.85000038146973"/><text class="blocklyText" y="12.5">D3<tspan style="fill: rgb(75, 166, 75);"> ▾</tspan></text></g><text class="blocklyText" y="12.5" transform="translate(200.35000038146973,5)">Status</text><g class="blocklyEditableText" style="cursor: default;" transform="translate(252.25000190734863,5)"><rect rx="4" ry="4" x="-5" y="0" height="16" width="48.13333511352539"/><text class="blocklyText" y="12.5">Aus<tspan style="fill: rgb(75, 166, 75);"> ▾</tspan></text></g></g></g></g><g class="blocklyDraggable" transform="translate(104,286)"><path class="blocklyPathDark" transform="translate(1,1)" d="m 0,0 H 20 H 440.4333248138428 v 61 H 0 V 20 c 0,-10 -8,8 -8,-7.5 s 8,2.5 8,-7.5 z&#xA;M 353.5333251953125,5 h -337.5333251953125 v 5 c 0,10 -8,-8 -8,7.5 s 8,-2.5 8,7.5 v 32 h 337.5333251953125 z M 430.4333248138428,5 h -30.233333587646484 v 5 c 0,10 -8,-8 -8,7.5 s 8,-2.5 8,7.5 v 7 h 30.233333587646484 z" fill="#3c6085"/><path class="blocklyPath" d="m 0,0 H 20 H 440.4333248138428 v 61 H 0 V 20 c 0,-10 -8,8 -8,-7.5 s 8,2.5 8,-7.5 z&#xA;M 353.5333251953125,5 h -337.5333251953125 v 5 c 0,10 -8,-8 -8,7.5 s 8,-2.5 8,7.5 v 32 h 337.5333251953125 z M 430.4333248138428,5 h -30.233333587646484 v 5 c 0,10 -8,-8 -8,7.5 s 8,-2.5 8,7.5 v 7 h 30.233333587646484 z" fill="#4b78a6"/><path class="blocklyPathLight" d="m 0.5,0.5 H 19.5 M 19.5,0.5 H 439.9333248138428 M 0.5,60.5 V 18.5 m -7.36,-0.5 q -1.52,-5.5 0,-11 m 7.36,1 V 0.5 H 1&#xA;M 354.0333251953125,5.5 v 52 h -337.5333251953125 M 10.9,24.3 l 3.68,-2.1 M 430.9333248138428,5.5 v 27 h -30.233333587646484 M 395.09999122619627,24.3 l 3.68,-2.1" stroke="#81a1c1"/><g class="blocklyEditableText" style="cursor: default;" transform="translate(363.5333251953125,10)"><rect rx="4" ry="4" x="-5" y="0" height="16" width="30.66666603088379"/><text class="blocklyText" y="12.5">&gt;<tspan style="fill: rgb(75, 120, 166);"> ▾</tspan></text></g><g class="blocklyDraggable" transform="translate(17,6)"><path class="blocklyPathDark" transform="translate(1,1)" d="m 0,0 H 335.5333251953125 v 25 v 25 H 0 V 20 c 0,-10 -8,8 -8,-7.5 s 8,2.5 8,-7.5 z&#xA;" fill="#3c853c"/><path class="blocklyPath" d="m 0,0 H 335.5333251953125 v 25 v 25 H 0 V 20 c 0,-10 -8,8 -8,-7.5 s 8,2.5 8,-7.5 z&#xA;" fill="#4ba64b"/><path class="blocklyPathLight" d="m 0.5,0.5 H 335.0333251953125 M 335.0333251953125,0.5 M 335.0333251953125,25.5 M 0.5,49.5 V 18.5 m -7.36,-0.5 q -1.52,-5.5 0,-11 m 7.36,1 V 0.5 H 1&#xA;" stroke="#81c181"/><text class="blocklyText" y="12.5" transform="translate(10,5)">Temperatur-/Luftfeuchtigkeitssensor (HDC1080)</text><text class="blocklyText" y="12.5" transform="translate(125.26666259765625,30)">Messwert:</text><g class="blocklyEditableText" style="cursor: default;" transform="translate(203.39999389648438,30)"><rect rx="4" ry="4" x="-5" y="0" height="16" width="132.13333129882812"/><text class="blocklyText" y="12.5">Temperatur in °C<tspan style="fill: rgb(75, 166, 75);"> ▾</tspan></text></g></g><g class="blocklyDraggable" transform="translate(401.1999912261963,6)"><path class="blocklyPathDark" transform="translate(1,1)" d="m 0,0 H 28.233333587646484 v 25 H 0 V 20 c 0,-10 -8,8 -8,-7.5 s 8,2.5 8,-7.5 z&#xA;" fill="#3c4885"/><path class="blocklyPath" d="m 0,0 H 28.233333587646484 v 25 H 0 V 20 c 0,-10 -8,8 -8,-7.5 s 8,2.5 8,-7.5 z&#xA;" fill="#4b5aa6"/><path class="blocklyPathLight" d="m 0.5,0.5 H 27.733333587646484 M 27.733333587646484,0.5 M 0.5,24.5 V 18.5 m -7.36,-0.5 q -1.52,-5.5 0,-11 m 7.36,1 V 0.5 H 1&#xA;" stroke="#818cc1"/><g class="blocklyEditableText" style="cursor: text;" transform="translate(10,5)"><rect rx="4" ry="4" x="-5" y="0" height="16" width="18.233333587646484"/><text class="blocklyText" y="12.5">0</text></g></g></g><g class="blocklyDraggable" transform="translate(65.36666488647461,348)"><path class="blocklyPathDark" transform="translate(1,1)" d="m 0,8 A 8,8 0 0,1 8,0 H 15 l 6,4 3,0 6,-4 H 300.383337020874 v 25 H 29.5 l -6,4 -3,0 -6,-4 H 0 z&#xA;" fill="#3c853c"/><path class="blocklyPath" d="m 0,8 A 8,8 0 0,1 8,0 H 15 l 6,4 3,0 6,-4 H 300.383337020874 v 25 H 29.5 l -6,4 -3,0 -6,-4 H 0 z&#xA;" fill="#4ba64b"/><path class="blocklyPathLight" d="m 0.5,7.5 A 7.5,7.5 0 0,1 8,0.5 H 15 l 6,4 3,0 6,-4 H 299.883337020874 M 299.883337020874,0.5 M 0.5,24.5 V 8&#xA;" stroke="#81c181"/><text class="blocklyText" y="12.5" transform="translate(10,5)">LED an digitalen</text><text class="blocklyText" y="12.5" transform="translate(125.03333282470703,5)">Pin:</text><g class="blocklyEditableText" style="cursor: default;" transform="translate(159.5,5)"><rect rx="4" ry="4" x="-5" y="0" height="16" width="40.85000038146973"/><text class="blocklyText" y="12.5">D1<tspan style="fill: rgb(75, 166, 75);"> ▾</tspan></text></g><text class="blocklyText" y="12.5" transform="translate(200.35000038146973,5)">Status</text><g class="blocklyEditableText" style="cursor: default;" transform="translate(252.25000190734863,5)"><rect rx="4" ry="4" x="-5" y="0" height="16" width="48.13333511352539"/><text class="blocklyText" y="12.5">Aus<tspan style="fill: rgb(75, 166, 75);"> ▾</tspan></text></g><g class="blocklyDraggable" transform="translate(0,26)"><path class="blocklyPathDark" transform="translate(1,1)" d="m 0,0 H 15 l 6,4 3,0 6,-4 H 300.383337020874 v 25 H 29.5 l -6,4 -3,0 -6,-4 H 0 z&#xA;" fill="#3c853c"/><path class="blocklyPath" d="m 0,0 H 15 l 6,4 3,0 6,-4 H 300.383337020874 v 25 H 29.5 l -6,4 -3,0 -6,-4 H 0 z&#xA;" fill="#4ba64b"/><path class="blocklyPathLight" d="m 0.5,0.5 H 15 l 6,4 3,0 6,-4 H 299.883337020874 M 299.883337020874,0.5 M 0.5,24.5 V 0.5&#xA;" stroke="#81c181"/><text class="blocklyText" y="12.5" transform="translate(10,5)">LED an digitalen</text><text class="blocklyText" y="12.5" transform="translate(125.03333282470703,5)">Pin:</text><g class="blocklyEditableText" style="cursor: default;" transform="translate(159.5,5)"><rect rx="4" ry="4" x="-5" y="0" height="16" width="40.85000038146973"/><text class="blocklyText" y="12.5">D2<tspan style="fill: rgb(75, 166, 75);"> ▾</tspan></text></g><text class="blocklyText" y="12.5" transform="translate(200.35000038146973,5)">Status</text><g class="blocklyEditableText" style="cursor: default;" transform="translate(252.25000190734863,5)"><rect rx="4" ry="4" x="-5" y="0" height="16" width="48.13333511352539"/><text class="blocklyText" y="12.5">Aus<tspan style="fill: rgb(75, 166, 75);"> ▾</tspan></text></g><g class="blocklyDraggable" transform="translate(0,26)"><path class="blocklyPathDark" transform="translate(1,1)" d="m 0,0 H 15 l 6,4 3,0 6,-4 H 295.25000190734863 v 25 H 29.5 l -6,4 -3,0 -6,-4 H 8 a 8,8 0 0,1 -8,-8 z&#xA;" fill="#3c853c"/><path class="blocklyPath" d="m 0,0 H 15 l 6,4 3,0 6,-4 H 295.25000190734863 v 25 H 29.5 l -6,4 -3,0 -6,-4 H 8 a 8,8 0 0,1 -8,-8 z&#xA;" fill="#4ba64b"/><path class="blocklyPathLight" d="m 0.5,0.5 H 15 l 6,4 3,0 6,-4 H 294.75000190734863 M 294.75000190734863,0.5 M 2.6966991411008934,22.303300858899107 A 7.5,7.5 0 0,1 0.5,17 V 0.5&#xA;" stroke="#81c181"/><text class="blocklyText" y="12.5" transform="translate(10,5)">LED an digitalen</text><text class="blocklyText" y="12.5" transform="translate(125.03333282470703,5)">Pin:</text><g class="blocklyEditableText" style="cursor: default;" transform="translate(159.5,5)"><rect rx="4" ry="4" x="-5" y="0" height="16" width="40.85000038146973"/><text class="blocklyText" y="12.5">D3<tspan style="fill: rgb(75, 166, 75);"> ▾</tspan></text></g><text class="blocklyText" y="12.5" transform="translate(200.35000038146973,5)">Status</text><g class="blocklyEditableText" style="cursor: default;" transform="translate(252.25000190734863,5)"><rect rx="4" ry="4" x="-5" y="0" height="16" width="43"/><text class="blocklyText" y="12.5">Ein<tspan style="fill: rgb(75, 166, 75);"> ▾</tspan></text></g></g></g></g></g></g></svg>