<svg version="1.1" xmlns="http://www.w3.org/2000/svg" xmlns:xlink="http://www.w3.org/1999/xlink"
     width="270" height="90" viewBox="0 0 270 90">
  <defs>
    <style type="text/css">
      <![CDATA[
        .blocklyText {
          font: normal 11pt sans-serif;
          fill: #fff;
        }
        .blocklyDropdownText {
          fill: #000;
        }
        .blocklyPath {
          fill-opacity: 1;
        }
        .blocklyPathDark {
          display: flex;
        }
        .blocklyPathLight {
          display: flex;
        }
      ]]>
    </style>
  </defs>
  <g transform="translate(10, 10)">
    <path class="blocklyPathDark" transform="translate(1,1)" fill="#498449" d="m 8,0 h 250.0416603088379 v 5 H 258.0416603088379 V 5 H 258.0416603088379 V 23 H 258.0416603088379 V 33 H 258.0416603088379 V 51 H 258.0416603088379 V 61 H 258.0416603088379 V 79 H 258.0416603088379 V 79 V 83 h -250.0416603088379 H 8 V 20 c 0,-10 -8,8 -8,-7.5 s 8,2.5 8,-7.5 z"/>
    <path class="blocklyPath" stroke="none" fill="#5ba55b" d="m 8,0 h 250.0416603088379 v 5 H 258.0416603088379 V 5 H 258.0416603088379 V 23 H 258.0416603088379 V 33 H 258.0416603088379 V 51 H 258.0416603088379 V 61 H 258.0416603088379 V 79 H 258.0416603088379 V 79 V 83 h -250.0416603088379 H 8 V 20 c 0,-10 -8,8 -8,-7.5 s 8,2.5 8,-7.5 z"/>
    <path class="blocklyPathLight" stroke="#8cc08c" d="m 8,0 m 0.5,0.5 H 257.5416603088379 H 257.5416603088379 M 8.5,82.5 M 8.5,82.5 V 20 v -1.5 m -7.36,-0.5 q -1.52,-5.5 0,-11 m 7.36,1 V 0.5"/>
    <g transform="translate(18,5)">
      <text class="blocklyText" x="0" y="14">Rainsensor (RG-15)</text>
    </g>
    <g transform="translate(18,33)">
      <text class="blocklyText" x="0" y="14">Serial Port:</text>
    </g>
    <g class="blocklyEditableText" style="cursor: default;" transform="translate(95.66666412353516,33)">
      <rect rx="4" ry="4" x="0" y="0" height="18" width="72.45833206176758" class="blocklyFieldRect blocklyDropdownRect" stroke="#8cc08c" fill="#f0f0f0"/>
      <text class="blocklyText blocklyDropdownText" text-anchor="start" x="5" y="14">Serial0</text>
    </g>
    <g transform="translate(18,61)">
      <text class="blocklyText" x="0" y="14">value:</text>
    </g>
    <g class="blocklyEditableText" style="cursor: default;" transform="translate(62.20833206176758,61)">
      <rect rx="4" ry="4" x="0" y="0" height="18" width="190.8333282470703" class="blocklyFieldRect blocklyDropdownRect" stroke="#8cc08c" fill="#f0f0f0"/>
      <text class="blocklyText blocklyDropdownText" text-anchor="start" x="5" y="14">total Accumulation in mm</text>
    </g>
  </g>
</svg>
