<?xml version="1.0" encoding="UTF-8" standalone="no"?>
<svg
   version="1.1"
   width="365.98333740234375"
   height="215"
   viewBox=" -45 92 365.98333740234375 215"
   id="svg130"
   sodipodi:docname="blockly-es-3.svg"
   inkscape:version="1.1 (c68e22c387, 2021-05-23)"
   xmlns:inkscape="http://www.inkscape.org/namespaces/inkscape"
   xmlns:sodipodi="http://sodipodi.sourceforge.net/DTD/sodipodi-0.dtd"
   xmlns="http://www.w3.org/2000/svg"
   xmlns:svg="http://www.w3.org/2000/svg"
   xmlns:xhtml="http://www.w3.org/1999/xhtml"><sodipodi:namedview
   id="namedview132"
   pagecolor="#ffffff"
   bordercolor="#666666"
   borderopacity="1.0"
   inkscape:pageshadow="2"
   inkscape:pageopacity="0.0"
   inkscape:pagecheckerboard="0"
   showgrid="false"
   inkscape:zoom="3.0848399"
   inkscape:cx="182.99167"
   inkscape:cy="107.46101"
   inkscape:window-width="1920"
   inkscape:window-height="1017"
   inkscape:window-x="-8"
   inkscape:window-y="-8"
   inkscape:window-maximized="1"
   inkscape:current-layer="g124" />
<defs
   id="defs2">
  <xhtml:style
     type="text/css"><![CDATA[.blocklySvg {background-color: #fff;outline: none;overflow: hidden;}.blocklyWidgetDiv {display: none;position: absolute;z-index: 999;}.blocklyTooltipDiv {background-color: #ffffc7;border: 1px solid #ddc;box-shadow: 4px 4px 20px 1px rgba(0,0,0,.15);color: #000;display: none;font-family: sans-serif;font-size: 9pt;opacity: 0.9;padding: 2px;position: absolute;z-index: 1000;}.blocklyResizeSE {cursor: se-resize;fill: #aaa;}.blocklyResizeSW {cursor: sw-resize;fill: #aaa;}.blocklyResizeLine {stroke: #888;stroke-width: 1;}.blocklyHighlightedConnectionPath {fill: none;stroke: #fc3;stroke-width: 4px;}.blocklyPathLight {fill: none;stroke-linecap: round;stroke-width: 1;}.blocklySelected>.blocklyPath {stroke: #fc3;stroke-width: 3px;}.blocklySelected>.blocklyPathLight {display: none;}.blocklyDragging>.blocklyPath,.blocklyDragging>.blocklyPathLight {fill-opacity: .8;stroke-opacity: .8;}.blocklyDragging>.blocklyPathDark {display: none;}.blocklyDisabled>.blocklyPath {fill-opacity: .5;stroke-opacity: .5;}.blocklyDisabled>.blocklyPathLight,.blocklyDisabled>.blocklyPathDark {display: none;}.blocklyText {cursor: default;fill: #fff;font-family: sans-serif;font-size: 11pt;}.blocklyNonEditableText>text {pointer-events: none;}.blocklyNonEditableText>rect,.blocklyEditableText>rect {fill: #fff;fill-opacity: .6;}.blocklyNonEditableText>text,.blocklyEditableText>text {fill: #000;}.blocklyEditableText:hover>rect {stroke: #fff;stroke-width: 2;}.blocklyBubbleText {fill: #000;}.blocklySvg text {user-select: none;-moz-user-select: none;-webkit-user-select: none;cursor: inherit;}.blocklyHidden {display: none;}.blocklyFieldDropdown:not(.blocklyHidden) {display: block;}.blocklyIconGroup {cursor: default;}.blocklyIconGroup:not(:hover),.blocklyIconGroupReadonly {opacity: .6;}.blocklyIconShape {fill: #00f;stroke: #fff;stroke-width: 1px;}.blocklyIconSymbol {fill: #fff;}.blocklyMinimalBody {margin: 0;padding: 0;}.blocklyCommentTextarea {background-color: #ffc;border: 0;margin: 0;padding: 2px;resize: none;}.blocklyHtmlInput {border: none;border-radius: 4px;font-family: sans-serif;height: 100%;margin: 0;outline: none;padding: 0 1px;width: 100%}.blocklyMainBackground {stroke-width: 1;stroke: #c6c6c6;}.blocklyMutatorBackground {fill: #fff;stroke: #ddd;stroke-width: 1;}.blocklyFlyoutBackground {fill: #ddd;fill-opacity: .8;}.blocklyScrollbarBackground {opacity: 0;}.blocklyScrollbarKnob {fill: #ccc;}.blocklyScrollbarBackground:hover+.blocklyScrollbarKnob,.blocklyScrollbarKnob:hover {fill: #bbb;}.blocklyZoom>image {opacity: .4;}.blocklyZoom>image:hover {opacity: .6;}.blocklyZoom>image:active {opacity: .8;}.blocklyFlyout .blocklyScrollbarKnob {fill: #bbb;}.blocklyFlyout .blocklyScrollbarBackground:hover+.blocklyScrollbarKnob,.blocklyFlyout .blocklyScrollbarKnob:hover {fill: #aaa;}.blocklyInvalidInput {background: #faa;}.blocklyAngleCircle {stroke: #444;stroke-width: 1;fill: #ddd;fill-opacity: .8;}.blocklyAngleMarks {stroke: #444;stroke-width: 1;}.blocklyAngleGauge {fill: #f88;fill-opacity: .8;}.blocklyAngleLine {stroke: #f00;stroke-width: 2;stroke-linecap: round;}.blocklyContextMenu {border-radius: 4px;}.blocklyDropdownMenu {padding: 0 !important;}.blocklyWidgetDiv .goog-option-selected .goog-menuitem-checkbox,.blocklyWidgetDiv .goog-option-selected .goog-menuitem-icon {background: url(<<<PATH>>>/sprites.png) no-repeat -48px -16px !important;}.blocklyToolboxDiv {background-color: #ddd;overflow-x: visible;overflow-y: auto;position: absolute;}.blocklyTreeRoot {padding: 4px 0;}.blocklyTreeRoot:focus {outline: none;}.blocklyTreeRow {height: 22px;line-height: 22px;margin-bottom: 3px;padding-right: 8px;white-space: nowrap;}.blocklyHorizontalTree {float: left;margin: 1px 5px 8px 0;}.blocklyHorizontalTreeRtl {float: right;margin: 1px 0 8px 5px;}.blocklyToolboxDiv[dir="RTL"] .blocklyTreeRow {margin-left: 8px;}.blocklyTreeRow:not(.blocklyTreeSelected):hover {background-color: #e4e4e4;}.blocklyTreeSeparator {border-bottom: solid #e5e5e5 1px;height: 0;margin: 5px 0;}.blocklyTreeSeparatorHorizontal {border-right: solid #e5e5e5 1px;width: 0;padding: 5px 0;margin: 0 5px;}.blocklyTreeIcon {background-image: url(<<<PATH>>>/sprites.png);height: 16px;vertical-align: middle;width: 16px;}.blocklyTreeIconClosedLtr {background-position: -32px -1px;}.blocklyTreeIconClosedRtl {background-position: 0px -1px;}.blocklyTreeIconOpen {background-position: -16px -1px;}.blocklyTreeSelected>.blocklyTreeIconClosedLtr {background-position: -32px -17px;}.blocklyTreeSelected>.blocklyTreeIconClosedRtl {background-position: 0px -17px;}.blocklyTreeSelected>.blocklyTreeIconOpen {background-position: -16px -17px;}.blocklyTreeIconNone,.blocklyTreeSelected>.blocklyTreeIconNone {background-position: -48px -1px;}.blocklyTreeLabel {cursor: default;font-family: sans-serif;font-size: 16px;padding: 0 3px;vertical-align: middle;}.blocklyTreeSelected .blocklyTreeLabel {color: #fff;}.blocklyWidgetDiv .goog-palette {outline: none;cursor: default;}.blocklyWidgetDiv .goog-palette-table {border: 1px solid #666;border-collapse: collapse;}.blocklyWidgetDiv .goog-palette-cell {height: 13px;width: 15px;margin: 0;border: 0;text-align: center;vertical-align: middle;border-right: 1px solid #666;font-size: 1px;}.blocklyWidgetDiv .goog-palette-colorswatch {position: relative;height: 13px;width: 15px;border: 1px solid #666;}.blocklyWidgetDiv .goog-palette-cell-hover .goog-palette-colorswatch {border: 1px solid #FFF;}.blocklyWidgetDiv .goog-palette-cell-selected .goog-palette-colorswatch {border: 1px solid #000;color: #fff;}.blocklyWidgetDiv .goog-menu {background: #fff;border-color: #ccc #666 #666 #ccc;border-style: solid;border-width: 1px;cursor: default;font: normal 13px Arial, sans-serif;margin: 0;outline: none;padding: 4px 0;position: absolute;overflow-y: auto;overflow-x: hidden;max-height: 100%;z-index: 20000;}.blocklyWidgetDiv .goog-menuitem {color: #000;font: normal 13px Arial, sans-serif;list-style: none;margin: 0;padding: 4px 7em 4px 28px;white-space: nowrap;}.blocklyWidgetDiv .goog-menuitem.goog-menuitem-rtl {padding-left: 7em;padding-right: 28px;}.blocklyWidgetDiv .goog-menu-nocheckbox .goog-menuitem,.blocklyWidgetDiv .goog-menu-noicon .goog-menuitem {padding-left: 12px;}.blocklyWidgetDiv .goog-menu-noaccel .goog-menuitem {padding-right: 20px;}.blocklyWidgetDiv .goog-menuitem-content {color: #000;font: normal 13px Arial, sans-serif;}.blocklyWidgetDiv .goog-menuitem-disabled .goog-menuitem-accel,.blocklyWidgetDiv .goog-menuitem-disabled .goog-menuitem-content {color: #ccc !important;}.blocklyWidgetDiv .goog-menuitem-disabled .goog-menuitem-icon {opacity: 0.3;-moz-opacity: 0.3;filter: alpha(opacity=30);}.blocklyWidgetDiv .goog-menuitem-highlight,.blocklyWidgetDiv .goog-menuitem-hover {background-color: #d6e9f8;border-color: #d6e9f8;border-style: dotted;border-width: 1px 0;padding-bottom: 3px;padding-top: 3px;}.blocklyWidgetDiv .goog-menuitem-checkbox,.blocklyWidgetDiv .goog-menuitem-icon {background-repeat: no-repeat;height: 16px;left: 6px;position: absolute;right: auto;vertical-align: middle;width: 16px;}.blocklyWidgetDiv .goog-menuitem-rtl .goog-menuitem-checkbox,.blocklyWidgetDiv .goog-menuitem-rtl .goog-menuitem-icon {left: auto;right: 6px;}.blocklyWidgetDiv .goog-option-selected .goog-menuitem-checkbox,.blocklyWidgetDiv .goog-option-selected .goog-menuitem-icon {background: url(//ssl.gstatic.com/editor/editortoolbar.png) no-repeat -512px 0;}.blocklyWidgetDiv .goog-menuitem-accel {color: #999;direction: ltr;left: auto;padding: 0 6px;position: absolute;right: 0;text-align: right;}.blocklyWidgetDiv .goog-menuitem-rtl .goog-menuitem-accel {left: 0;right: auto;text-align: left;}.blocklyWidgetDiv .goog-menuitem-mnemonic-hint {text-decoration: underline;}.blocklyWidgetDiv .goog-menuitem-mnemonic-separator {color: #999;font-size: 12px;padding-left: 4px;}.blocklyWidgetDiv .goog-menuseparator {border-top: 1px solid #ccc;margin: 4px 0;padding: 0;}]]></xhtml:style>
</defs>
&quot;&gt;<g
   class="blocklyBlockCanvas"
   id="g128">
  <g
     class="blocklyDraggable"
     transform="translate(-45.000000000001364,91.99999999999841)"
     id="g126">
    <path
       class="blocklyPathDark"
       transform="translate(1,1)"
       fill="#793c85"
       d="m 0,8 A 8,8 0 0,1 8,0 H 125.23332977294922 v 25 H 50 l -6,4 -3,0 -6,-4 h -7 a 8,8 0 0,0 -8,8 v 9 a 8,8 0 0,0 8,8 H 125.23332977294922 v 25 H 50 l -6,4 -3,0 -6,-4 h -7 a 8,8 0 0,0 -8,8 v 113 a 8,8 0 0,0 8,8 H 125.23332977294922 v 10 H 8 a 8,8 0 0,1 -8,-8 z
"
       id="path4" />
    <path
       class="blocklyPath"
       fill="#974ba6"
       d="m 0,8 A 8,8 0 0,1 8,0 H 125.23332977294922 v 25 H 50 l -6,4 -3,0 -6,-4 h -7 a 8,8 0 0,0 -8,8 v 9 a 8,8 0 0,0 8,8 H 125.23332977294922 v 25 H 50 l -6,4 -3,0 -6,-4 h -7 a 8,8 0 0,0 -8,8 v 113 a 8,8 0 0,0 8,8 H 125.23332977294922 v 10 H 8 a 8,8 0 0,1 -8,-8 z
"
       id="path6" />
    <path
       class="blocklyPathLight"
       stroke="#b681c1"
       d="m 0.5,7.5 A 7.5,7.5 0 0,1 8,0.5 H 124.73332977294922 M 124.73332977294922,0.5 M 124.73332977294922,25.5 M 21.989592359914347,48.01040764008565 a 8.5,8.5 0 0,0 6.0104076400856545,2.4895923599143455 H 124.73332977294922 M 124.73332977294922,50.5 M 124.73332977294922,75.5 M 21.989592359914347,202.01040764008565 a 8.5,8.5 0 0,0 6.0104076400856545,2.4895923599143455 H 124.73332977294922 M 2.6966991411008934,211.3033008588991 A 7.5,7.5 0 0,1 0.5,206 V 8
"
       id="path8" />
    <text
       class="blocklyText"
       y="12.5"
       transform="translate(10,5)"
       id="text10">Setup()</text>
    <text
       class="blocklyText"
       y="12.5"
       transform="translate(10,55)"
       id="text12">Endlosschleife()</text>
    <g
       class="blocklyDraggable"
       transform="translate(21,76)"
       id="g124">
      <path
         class="blocklyPathDark"
         transform="translate(1,1)"
         fill="#3c853c"
         d="m 0,8 A 8,8 0 0,1 8,0 H 15 l 6,4 3,0 6,-4 H 343.98333740234375 v 25 H 29.5 l -6,4 -3,0 -6,-4 H 0 z
"
         id="path14" />
      <path
         class="blocklyPath"
         fill="#4ba64b"
         d="m 0,8 A 8,8 0 0,1 8,0 H 15 l 6,4 3,0 6,-4 H 343.98333740234375 v 25 H 29.5 l -6,4 -3,0 -6,-4 H 0 z
"
         id="path16" />
      <path
         class="blocklyPathLight"
         stroke="#81c181"
         d="m 0.5,7.5 A 7.5,7.5 0 0,1 8,0.5 H 15 l 6,4 3,0 6,-4 H 343.48333740234375 M 343.48333740234375,0.5 M 0.5,24.5 V 8
"
         id="path18" />
      <text
         class="blocklyText"
         y="12.5"
         transform="translate(10,5)"
         id="text20">LED an digitalen</text>
      <text
         class="blocklyText"
         y="12.5"
         transform="translate(125.03333282470703,5)"
         id="text22">Pin:</text>
      <g
         class="blocklyEditableText"
         style="cursor: default;"
         transform="translate(159.5,5)"
         id="g30">
        <rect
           rx="4"
           ry="4"
           x="-5"
           y="0"
           height="16"
           width="89.58333587646484"
           id="rect24" />
        <text
           class="blocklyText"
           y="12.5"
           id="text28">BUILTIN_1<tspan
   style="fill: rgb(75, 166, 75);"
   id="tspan26"> ▾</tspan></text>
      </g>
      <text
         class="blocklyText"
         y="12.5"
         transform="translate(249.08333587646484,5)"
         id="text32">Status</text>
      <g
         class="blocklyEditableText"
         style="cursor: default;"
         transform="translate(300.98333740234375,5)"
         id="g40">
        <rect
           rx="4"
           ry="4"
           x="-5"
           y="0"
           height="16"
           width="43"
           id="rect34" />
        <text
           class="blocklyText"
           y="12.5"
           id="text38">Ein<tspan
   style="fill: rgb(75, 166, 75);"
   id="tspan36"> ▾</tspan></text>
      </g>
      <g
         class="blocklyDraggable"
         transform="translate(0,26)"
         id="g122">
        <path
           class="blocklyPathDark"
           transform="translate(1,1)"
           fill="#3c8554"
           d="m 0,0 H 15 l 6,4 3,0 6,-4 H 40 H 229.71667098999023 v 36 H 29.5 l -6,4 -3,0 -6,-4 H 0 z
M 119.56666946411133,5 h -54.93333435058594 v 5 c 0,10 -8,-8 -8,7.5 s 8,-2.5 8,7.5 v 7 h 54.93333435058594 z"
           id="path42" />
        <path
           class="blocklyPath"
           fill="#4ba669"
           d="m 0,0 H 15 l 6,4 3,0 6,-4 H 40 H 229.71667098999023 v 36 H 29.5 l -6,4 -3,0 -6,-4 H 0 z
M 119.56666946411133,5 h -54.93333435058594 v 5 c 0,10 -8,-8 -8,7.5 s 8,-2.5 8,7.5 v 7 h 54.93333435058594 z"
           id="path44" />
        <path
           class="blocklyPathLight"
           stroke="#81c196"
           d="m 0.5,0.5 H 15 l 6,4 3,0 6,-4 H 39.5 M 39.5,0.5 H 229.21667098999023 M 0.5,35.5 V 0.5
M 120.06666946411133,5.5 v 27 h -54.93333435058594 M 59.53333511352539,24.3 l 3.68,-2.1"
           id="path46" />
        <g
           class="blocklyDraggable"
           transform="translate(65.63333511352539,6)"
           id="g60">
          <path
             class="blocklyPathDark"
             transform="translate(1,1)"
             fill="#3c4885"
             d="m 0,0 H 52.93333435058594 v 25 H 0 V 20 c 0,-10 -8,8 -8,-7.5 s 8,2.5 8,-7.5 z
"
             id="path48" />
          <path
             class="blocklyPath"
             fill="#4b5aa6"
             d="m 0,0 H 52.93333435058594 v 25 H 0 V 20 c 0,-10 -8,8 -8,-7.5 s 8,2.5 8,-7.5 z
"
             id="path50" />
          <path
             class="blocklyPathLight"
             stroke="#818cc1"
             d="m 0.5,0.5 H 52.43333435058594 M 52.43333435058594,0.5 M 0.5,24.5 V 18.5 m -7.36,-0.5 q -1.52,-5.5 0,-11 m 7.36,1 V 0.5 H 1
"
             id="path52" />
          <g
             class="blocklyEditableText"
             style="cursor: text;"
             transform="translate(10,5)"
             id="g58">
            <rect
               rx="4"
               ry="4"
               x="-5"
               y="0"
               height="16"
               width="42.93333435058594"
               id="rect54" />
            <text
               class="blocklyText"
               y="12.5"
               id="text56">1000</text>
          </g>
        </g>
        <text
           class="blocklyText"
           y="12.5"
           transform="translate(10,10)"
           id="text62">Warte</text>
        <text
           class="blocklyText"
           y="12.5"
           transform="translate(129.56666946411133,10)"
           id="text64">Millisekunden</text>
        <g
           class="blocklyDraggable"
           transform="translate(0,37)"
           id="g120">
          <path
             class="blocklyPathDark"
             transform="translate(1,1)"
             fill="#3c853c"
             d="m 0,0 H 15 l 6,4 3,0 6,-4 H 343.98333740234375 v 25 H 29.5 l -6,4 -3,0 -6,-4 H 0 z
"
             id="path66" />
          <path
             class="blocklyPath"
             fill="#4ba64b"
             d="m 0,0 H 15 l 6,4 3,0 6,-4 H 343.98333740234375 v 25 H 29.5 l -6,4 -3,0 -6,-4 H 0 z
"
             id="path68" />
          <path
             class="blocklyPathLight"
             stroke="#81c181"
             d="m 0.5,0.5 H 15 l 6,4 3,0 6,-4 H 343.48333740234375 M 343.48333740234375,0.5 M 0.5,24.5 V 0.5
"
             id="path70" />
          <text
             class="blocklyText"
             y="12.5"
             transform="translate(10,5)"
             id="text72">LED an digitalen</text>
          <text
             class="blocklyText"
             y="12.5"
             transform="translate(125.03333282470703,5)"
             id="text74">Pin:</text>
          <g
             class="blocklyEditableText"
             style="cursor: default;"
             transform="translate(159.5,5)"
             id="g82">
            <rect
               rx="4"
               ry="4"
               x="-5"
               y="0"
               height="16"
               width="89.58333587646484"
               id="rect76" />
            <text
               class="blocklyText"
               y="12.5"
               id="text80">BUILTIN_1<tspan
   style="fill: rgb(75, 166, 75);"
   id="tspan78"> ▾</tspan></text>
          </g>
          <text
             class="blocklyText"
             y="12.5"
             transform="translate(249.08333587646484,5)"
             id="text84">Status</text>
          <g
             class="blocklyEditableText"
             style="cursor: default;"
             transform="translate(300.98333740234375,5)"
             id="g92">
            <rect
               rx="4"
               ry="4"
               x="-5"
               y="0"
               height="16"
               width="43"
               id="rect86" />
            <text
               class="blocklyText"
               y="12.5"
               id="text90">Aus</text>
          </g>
          <g
             class="blocklyDraggable"
             transform="translate(0,26)"
             id="g118">
            <path
               class="blocklyPathDark"
               transform="translate(1,1)"
               fill="#3c8554"
               d="m 0,0 H 15 l 6,4 3,0 6,-4 H 40 H 229.71667098999023 v 36 H 29.5 l -6,4 -3,0 -6,-4 H 8 a 8,8 0 0,1 -8,-8 z
M 119.56666946411133,5 h -54.93333435058594 v 5 c 0,10 -8,-8 -8,7.5 s 8,-2.5 8,7.5 v 7 h 54.93333435058594 z"
               id="path94" />
            <path
               class="blocklyPath"
               fill="#4ba669"
               d="m 0,0 H 15 l 6,4 3,0 6,-4 H 40 H 229.71667098999023 v 36 H 29.5 l -6,4 -3,0 -6,-4 H 8 a 8,8 0 0,1 -8,-8 z
M 119.56666946411133,5 h -54.93333435058594 v 5 c 0,10 -8,-8 -8,7.5 s 8,-2.5 8,7.5 v 7 h 54.93333435058594 z"
               id="path96" />
            <path
               class="blocklyPathLight"
               stroke="#81c196"
               d="m 0.5,0.5 H 15 l 6,4 3,0 6,-4 H 39.5 M 39.5,0.5 H 229.21667098999023 M 2.6966991411008934,33.30330085889911 A 7.5,7.5 0 0,1 0.5,28 V 0.5
M 120.06666946411133,5.5 v 27 h -54.93333435058594 M 59.53333511352539,24.3 l 3.68,-2.1"
               id="path98" />
            <g
               class="blocklyDraggable"
               transform="translate(65.63333511352539,6)"
               id="g112">
              <path
                 class="blocklyPathDark"
                 transform="translate(1,1)"
                 fill="#3c4885"
                 d="m 0,0 H 52.93333435058594 v 25 H 0 V 20 c 0,-10 -8,8 -8,-7.5 s 8,2.5 8,-7.5 z
"
                 id="path100" />
              <path
                 class="blocklyPath"
                 fill="#4b5aa6"
                 d="m 0,0 H 52.93333435058594 v 25 H 0 V 20 c 0,-10 -8,8 -8,-7.5 s 8,2.5 8,-7.5 z
"
                 id="path102" />
              <path
                 class="blocklyPathLight"
                 stroke="#818cc1"
                 d="m 0.5,0.5 H 52.43333435058594 M 52.43333435058594,0.5 M 0.5,24.5 V 18.5 m -7.36,-0.5 q -1.52,-5.5 0,-11 m 7.36,1 V 0.5 H 1
"
                 id="path104" />
              <g
                 class="blocklyEditableText"
                 style="cursor: text;"
                 transform="translate(10,5)"
                 id="g110">
                <rect
                   rx="4"
                   ry="4"
                   x="-5"
                   y="0"
                   height="16"
                   width="42.93333435058594"
                   id="rect106" />
                <text
                   class="blocklyText"
                   y="12.5"
                   id="text108">1000</text>
              </g>
            </g>
            <text
               class="blocklyText"
               y="12.5"
               transform="translate(10,10)"
               id="text114">Warte</text>
            <text
               class="blocklyText"
               y="12.5"
               transform="translate(129.56666946411133,10)"
               id="text116">Millisekunden</text>
          </g>
        </g>
      </g>
    </g>
  </g>
</g>
</svg>
