<?xml version="1.0" encoding="utf-8"?>
<svg viewBox="0 0 316.683 74.925" xmlns="http://www.w3.org/2000/svg">
  <g xmlns="http://www.w3.org/2000/svg" class="blocklyBlockCanvas" transform="matrix(1, 0, 0, 1, -411.9670104980469, -195.47451782226562)">
    <g class="blocklyCursor">
      <g width="100" height="5">
        <rect width="100" height="5" style="display: none"/>
        <rect class="blocklyVerticalMarker" rx="10" ry="10" style="display: none; fill: rgba(255, 255, 255, 0.5); pointer-events: none; stroke-width: 3px;"/>
        <path transform="" style="display: none"/>
        <path transform="" style="display: none" fill="none" stroke-width="4"/>
      </g>
    </g>
    <g data-id="QWW|$jB8+*EL;}|#uA" class="blocklyDraggable" transform="translate(55, 80)" style="cursor: grabbing;">
      <path class="blocklyPathDark" transform="translate(1,1)" fill="#7a4984" d=" m 0,0 m 0,8 a 8 8 0 0,1 8,-8 h 117 v 5 H 125 V 5 H 125 V 22 H 125 V 26 H 50 l -6,4 -3,0 -6,-4 h -7 a 8 8 0 0,0 -8,8 v 8 a 8 8 0 0,0 8,8 H 125 H 125 V 55 H 125 V 72 H 125 V 76 H 50 l -6,4 -3,0 -6,-4 h -7 a 8 8 0 0,0 -8,8 v 8 a 8 8 0 0,0 8,8 H 125 H 125 V 100 V 110 h -117 a 8 8 0 0,1 -8,-8 z " style="cursor: grabbing; display: flex;"/>
      <path class="blocklyPath" stroke="none" fill="#995ba5" d=" m 0,0 m 0,8 a 8 8 0 0,1 8,-8 h 117 v 5 H 125 V 5 H 125 V 22 H 125 V 26 H 50 l -6,4 -3,0 -6,-4 h -7 a 8 8 0 0,0 -8,8 v 8 a 8 8 0 0,0 8,8 H 125 H 125 V 55 H 125 V 72 H 125 V 76 H 50 l -6,4 -3,0 -6,-4 h -7 a 8 8 0 0,0 -8,8 v 8 a 8 8 0 0,0 8,8 H 125 H 125 V 100 V 110 h -117 a 8 8 0 0,1 -8,-8 z " style="cursor: grabbing;"/>
      <path class="blocklyPathLight" stroke="#b88cc0" d=" m 0,0 m 0.5,8 a 7.5 7.5 0 0,1 8,-7.5 H 124.5 H 124.5 M 20,50 m 1.9895923599143455,-1.9895923599143455 a 8.5 8.5 0 0,0 6.0104076400856545,2.4895923599143455 l 96.5,0 H 124.5 M 20,100 m 1.9895923599143455,-1.9895923599143455 a 8.5 8.5 0 0,0 6.0104076400856545,2.4895923599143455 l 96.5,0 H 124.5 M 0,110 m 2.6966991411008934,-2.6966991411008934 a 7.5 7.5 0 0,1 -2.1966991411008934,-5.303300858899107 V 8 " style="cursor: grabbing; display: flex; fill: none; stroke-linecap: round;"/>
      <g transform="translate(10,5)">
        <text class="blocklyText" x="0" y="14" style="white-space: pre; cursor: grabbing; fill: rgb(255, 255, 255); font-family: sans-serif; font-size: 14.6667px; font-weight: 400; line-height: normal; perspective-origin: 24.0312px 8.5px;">Setup()</text>
      </g>
      <g transform="translate(10,55)">
        <text class="blocklyText" x="0" y="14" style="white-space: pre; cursor: grabbing; fill: rgb(255, 255, 255); font-family: sans-serif; font-size: 14.6667px; font-weight: 400; line-height: normal; perspective-origin: 52.1406px 8.5px;">Endlosschleife()</text>
      </g>
    </g>
    <g data-id="0MGQAql(|u*LDM;dJHS4" class="blocklyDraggable" transform="translate(416.9999999999999, 205.99999999999972)" style="cursor: grabbing;">
      <path class="blocklyPathDark" transform="translate(1,1)" fill="#498449" d=" m 8,0 h 277 v 5 H 285 V 5 H 285 V 22 H 285 V 32 H 285 V 49 H 285 V 49 V 53 h -277 H 8 V 20 c 0,-10 -8,8 -8,-7.5 s 8,2.5 8,-7.5 z " style="cursor: grabbing; display: flex;"/>
      <path class="blocklyPath" stroke="none" fill="#5ba55b" d=" m 8,0 h 277 v 5 H 285 V 5 H 285 V 22 H 285 V 32 H 285 V 49 H 285 V 49 V 53 h -277 H 8 V 20 c 0,-10 -8,8 -8,-7.5 s 8,2.5 8,-7.5 z " style="cursor: grabbing;"/>
      <path class="blocklyPathLight" stroke="#8cc08c" d=" m 8,0 m 0.5,0.5 H 284.5 H 284.5 M 8.5,52.5 M 8.5,52.5 V 20 v -1.5 m -7.36,-0.5 q -1.52,-5.5 0,-11 m 7.36,1 V 0.5 " style="cursor: grabbing; display: flex; fill: none; stroke-linecap: round;"/>
      <g transform="translate(18,5)">
        <text class="blocklyText" x="0" y="14" style="white-space: pre; cursor: grabbing; fill: rgb(255, 255, 255); font-family: sans-serif; font-size: 14.6667px; font-weight: 400; line-height: normal; perspective-origin: 127.922px 8.5px;">Luftdruck-/Temperatursensor (DPS310)</text>
      </g>
      <g transform="translate(76.4000015258789,32)">
        <text class="blocklyText" x="0" y="14" style="white-space: pre; cursor: grabbing; fill: rgb(255, 255, 255); font-family: sans-serif; font-size: 14.6667px; font-weight: 400; line-height: normal; perspective-origin: 33.3906px 8.5px;">Messwert:</text>
      </g>
      <g class="blocklyEditableText" style="cursor: default;" transform="translate(148.4000015258789,32)">
        <rect rx="4" ry="4" x="0" y="0" height="17" width="131.5999984741211" class="blocklyFieldRect blocklyDropdownRect" stroke="#8cc08c" fill="transparent" style="fill: rgb(255, 255, 255); fill-opacity: 0.6; stroke: none;"/>
        <text class="blocklyText blocklyDropdownText" text-anchor="start" x="5" y="14" style="white-space: pre; font-family: sans-serif; font-size: 14.6667px; font-weight: 400; line-height: normal; perspective-origin: 63.6406px 8.5px;">Luftdruck in hPa<tspan style="fill: rgb(91, 165, 91);"> ▾</tspan></text>
        <image style="display: none;"/>
      </g>
    </g>
  </g>
</svg>